<svg width="1213" height="410" viewBox="0 0 1213 410" fill="none" xmlns="http://www.w3.org/2000/svg">
<path fill-rule="evenodd" clip-rule="evenodd" d="M262.295 98.3607V196.721L381.148 196.148L500 195.574L397.098 97.7869C340.508 44 287.033 0 278.246 0C269.475 0 262.295 44.2623 262.295 98.3607ZM10.9344 109.295C4.91803 115.295 0 137.426 0 158.475C0 191.262 8.19672 196.721 57.377 196.721C110.197 196.721 114.754 192.82 114.754 147.541C114.754 104.475 108.984 98.3607 68.3115 98.3607C42.7541 98.3607 16.9344 103.279 10.9344 109.295ZM131.148 147.541C131.148 192.82 135.705 196.721 188.525 196.721C241.344 196.721 245.902 192.82 245.902 147.541C245.902 102.262 241.344 98.3607 188.525 98.3607C135.705 98.3607 131.148 102.262 131.148 147.541ZM3.01639 258.197C7.32787 295.754 17.082 304.131 61.4754 308.41C111.115 313.197 114.754 310.115 114.754 263.328C114.754 216.689 110.59 213.115 56.2951 213.115C2.18033 213.115 -1.78689 216.475 3.01639 258.197ZM131.148 262.295C131.148 307.574 135.705 311.475 188.525 311.475C241.344 311.475 245.902 307.574 245.902 262.295C245.902 217.016 241.344 213.115 188.525 213.115C135.705 213.115 131.148 217.016 131.148 262.295ZM262.295 311.475C262.295 365.574 268.672 409.836 276.443 409.836C284.23 409.836 337.721 365.902 395.295 312.197L500 214.574L381.148 213.836L262.295 213.115V311.475Z" fill="#75AADB"/>
<path d="M544.98 267V121.545H596.827C608.096 121.545 617.447 123.487 624.881 127.369C632.362 131.252 637.949 136.626 641.642 143.491C645.335 150.31 647.182 158.193 647.182 167.142C647.182 176.044 645.312 183.88 641.571 190.651C637.878 197.374 632.291 202.606 624.81 206.347C617.376 210.087 608.025 211.957 596.756 211.957H557.48V193.065H594.767C601.869 193.065 607.646 192.047 612.097 190.011C616.595 187.975 619.885 185.016 621.969 181.134C624.052 177.251 625.094 172.587 625.094 167.142C625.094 161.65 624.028 156.891 621.898 152.866C619.814 148.842 616.524 145.764 612.026 143.634C607.575 141.455 601.727 140.366 594.483 140.366H566.926V267H544.98ZM616.784 201.375L652.722 267H627.722L592.494 201.375H616.784ZM717.832 269.202C707.084 269.202 697.827 266.905 690.062 262.312C682.344 257.672 676.378 251.162 672.164 242.781C667.997 234.353 665.914 224.481 665.914 213.165C665.914 201.991 667.997 192.142 672.164 183.619C676.378 175.097 682.249 168.444 689.778 163.662C697.353 158.88 706.208 156.489 716.34 156.489C722.496 156.489 728.461 157.507 734.238 159.543C740.014 161.579 745.199 164.775 749.792 169.131C754.385 173.487 758.007 179.145 760.658 186.105C763.31 193.018 764.636 201.422 764.636 211.318V218.847H677.917V202.938H743.826C743.826 197.35 742.69 192.402 740.417 188.094C738.144 183.738 734.948 180.305 730.829 177.795C726.757 175.286 721.975 174.031 716.482 174.031C710.516 174.031 705.308 175.499 700.857 178.435C696.454 181.323 693.045 185.111 690.63 189.798C688.263 194.438 687.079 199.481 687.079 204.926V217.355C687.079 224.647 688.357 230.849 690.914 235.963C693.518 241.077 697.14 244.983 701.781 247.682C706.421 250.333 711.842 251.659 718.045 251.659C722.069 251.659 725.739 251.091 729.053 249.955C732.368 248.771 735.232 247.019 737.647 244.699C740.062 242.379 741.908 239.514 743.187 236.105L763.286 239.727C761.676 245.646 758.788 250.83 754.621 255.281C750.502 259.685 745.317 263.117 739.067 265.58C732.865 267.994 725.786 269.202 717.832 269.202ZM809.433 202.227V267H788.197V157.909H808.581V175.665H809.93C812.44 169.888 816.37 165.248 821.72 161.744C827.118 158.241 833.912 156.489 842.104 156.489C849.537 156.489 856.048 158.051 861.635 161.176C867.222 164.254 871.554 168.847 874.632 174.955C877.71 181.062 879.249 188.615 879.249 197.611V267H858.013V200.168C858.013 192.26 855.953 186.081 851.834 181.631C847.714 177.133 842.056 174.884 834.859 174.884C829.935 174.884 825.555 175.949 821.72 178.08C817.932 180.21 814.926 183.335 812.7 187.455C810.522 191.527 809.433 196.451 809.433 202.227ZM948.567 269.131C939.76 269.131 931.9 266.882 924.987 262.384C918.122 257.838 912.724 251.375 908.794 242.994C904.911 234.566 902.97 224.457 902.97 212.668C902.97 200.878 904.935 190.793 908.865 182.412C912.842 174.031 918.287 167.616 925.2 163.165C932.113 158.714 939.949 156.489 948.709 156.489C955.48 156.489 960.925 157.625 965.044 159.898C969.211 162.123 972.43 164.727 974.703 167.71C977.023 170.693 978.822 173.321 980.101 175.594H981.379V121.545H1002.62V267H981.876V250.026H980.101C978.822 252.346 976.976 254.997 974.561 257.98C972.194 260.963 968.927 263.567 964.76 265.793C960.593 268.018 955.196 269.131 948.567 269.131ZM953.254 251.02C959.362 251.02 964.523 249.41 968.737 246.19C972.999 242.923 976.218 238.402 978.396 232.625C980.622 226.848 981.734 220.125 981.734 212.455C981.734 204.879 980.645 198.25 978.467 192.568C976.289 186.886 973.093 182.459 968.879 179.287C964.665 176.115 959.457 174.528 953.254 174.528C946.862 174.528 941.536 176.186 937.274 179.5C933.013 182.814 929.793 187.336 927.615 193.065C925.484 198.795 924.419 205.258 924.419 212.455C924.419 219.746 925.508 226.304 927.686 232.128C929.864 237.952 933.084 242.568 937.345 245.977C941.654 249.339 946.957 251.02 953.254 251.02ZM1079.94 269.202C1069.19 269.202 1059.94 266.905 1052.17 262.312C1044.45 257.672 1038.49 251.162 1034.27 242.781C1030.11 234.353 1028.02 224.481 1028.02 213.165C1028.02 201.991 1030.11 192.142 1034.27 183.619C1038.49 175.097 1044.36 168.444 1051.89 163.662C1059.46 158.88 1068.32 156.489 1078.45 156.489C1084.6 156.489 1090.57 157.507 1096.35 159.543C1102.12 161.579 1107.31 164.775 1111.9 169.131C1116.49 173.487 1120.12 179.145 1122.77 186.105C1125.42 193.018 1126.75 201.422 1126.75 211.318V218.847H1040.03V202.938H1105.94C1105.94 197.35 1104.8 192.402 1102.53 188.094C1100.25 183.738 1097.06 180.305 1092.94 177.795C1088.87 175.286 1084.08 174.031 1078.59 174.031C1072.63 174.031 1067.42 175.499 1062.97 178.435C1058.56 181.323 1055.15 185.111 1052.74 189.798C1050.37 194.438 1049.19 199.481 1049.19 204.926V217.355C1049.19 224.647 1050.47 230.849 1053.02 235.963C1055.63 241.077 1059.25 244.983 1063.89 247.682C1068.53 250.333 1073.95 251.659 1080.15 251.659C1084.18 251.659 1087.85 251.091 1091.16 249.955C1094.48 248.771 1097.34 247.019 1099.76 244.699C1102.17 242.379 1104.02 239.514 1105.3 236.105L1125.4 239.727C1123.79 245.646 1120.9 250.83 1116.73 255.281C1112.61 259.685 1107.43 263.117 1101.18 265.58C1094.97 267.994 1087.9 269.202 1079.94 269.202ZM1150.31 267V157.909H1170.83V175.239H1171.97C1173.96 169.367 1177.46 164.751 1182.48 161.389C1187.55 157.98 1193.28 156.276 1199.67 156.276C1200.99 156.276 1202.56 156.323 1204.36 156.418C1206.2 156.512 1207.65 156.631 1208.69 156.773V177.085C1207.84 176.848 1206.32 176.588 1204.14 176.304C1201.96 175.973 1199.79 175.807 1197.61 175.807C1192.59 175.807 1188.11 176.872 1184.18 179.003C1180.3 181.086 1177.22 183.998 1174.95 187.739C1172.68 191.432 1171.54 195.646 1171.54 200.381V267H1150.31Z" fill="black"/>
</svg>
