<svg width="600" height="777" viewBox="0 0 600 777" fill="none" xmlns="http://www.w3.org/2000/svg">
<rect width="600" height="776.471" fill="#D9D9D9"/>
<path d="M334.492 751V723.727H336.605V727.989H336.8C337.392 726.592 338.393 725.473 339.801 724.633C341.21 723.781 342.814 723.354 344.613 723.354C344.802 723.354 344.992 723.354 345.181 723.354C345.371 723.354 345.548 723.36 345.714 723.372V725.556C345.572 725.544 345.4 725.527 345.199 725.503C345.009 725.467 344.773 725.45 344.489 725.45C342.973 725.45 341.624 725.775 340.44 726.426C339.268 727.077 338.345 727.977 337.67 729.125C336.996 730.261 336.658 731.563 336.658 733.031V751H334.492ZM361.339 751.568C358.877 751.568 356.734 750.959 354.911 749.739C353.088 748.52 351.68 746.851 350.685 744.732C349.691 742.613 349.194 740.199 349.194 737.488C349.194 734.765 349.691 732.339 350.685 730.208C351.692 728.077 353.071 726.397 354.822 725.165C356.574 723.934 358.575 723.319 360.824 723.319C362.351 723.319 363.795 723.627 365.156 724.242C366.529 724.846 367.737 725.722 368.778 726.87C369.832 728.018 370.655 729.403 371.246 731.025C371.85 732.647 372.152 734.469 372.152 736.494V737.843H350.561V735.872H369.986C369.986 733.895 369.583 732.114 368.778 730.528C367.973 728.942 366.879 727.681 365.494 726.746C364.109 725.811 362.552 725.343 360.824 725.343C359.013 725.343 357.397 725.852 355.977 726.87C354.568 727.876 353.449 729.237 352.621 730.954C351.804 732.67 351.378 734.588 351.342 736.707V737.594C351.342 739.867 351.739 741.909 352.532 743.72C353.337 745.519 354.485 746.946 355.977 747.999C357.468 749.041 359.255 749.562 361.339 749.562C362.83 749.562 364.103 749.313 365.156 748.816C366.222 748.307 367.092 747.692 367.766 746.969C368.441 746.247 368.95 745.549 369.293 744.874L371.264 745.673C370.85 746.585 370.205 747.496 369.329 748.408C368.465 749.307 367.364 750.059 366.026 750.663C364.701 751.266 363.138 751.568 361.339 751.568ZM379.609 761.227V723.727H381.722V729.817H381.989C382.415 728.646 383.013 727.568 383.782 726.586C384.563 725.603 385.528 724.816 386.676 724.224C387.836 723.621 389.197 723.319 390.76 723.319C392.962 723.319 394.879 723.923 396.513 725.13C398.146 726.337 399.413 728.006 400.312 730.137C401.212 732.256 401.662 734.688 401.662 737.435C401.662 740.181 401.206 742.619 400.295 744.75C399.395 746.869 398.129 748.538 396.495 749.757C394.873 750.964 392.973 751.568 390.795 751.568C389.245 751.568 387.884 751.272 386.712 750.68C385.552 750.089 384.575 749.301 383.782 748.319C383.001 747.325 382.403 746.236 381.989 745.052H381.776V761.227H379.609ZM381.74 737.417C381.74 739.737 382.095 741.814 382.805 743.649C383.516 745.472 384.534 746.916 385.859 747.982C387.185 749.035 388.765 749.562 390.6 749.562C392.459 749.562 394.051 749.029 395.376 747.964C396.714 746.887 397.732 745.431 398.43 743.596C399.141 741.761 399.496 739.701 399.496 737.417C399.496 735.132 399.147 733.079 398.448 731.256C397.75 729.433 396.738 727.995 395.412 726.941C394.086 725.876 392.482 725.343 390.6 725.343C388.742 725.343 387.15 725.87 385.824 726.923C384.51 727.965 383.498 729.397 382.788 731.22C382.089 733.031 381.74 735.097 381.74 737.417ZM419.289 751.568C417.04 751.568 415.039 750.964 413.287 749.757C411.536 748.538 410.157 746.863 409.15 744.732C408.144 742.602 407.641 740.175 407.641 737.452C407.641 734.718 408.144 732.291 409.15 730.173C410.157 728.042 411.536 726.367 413.287 725.148C415.039 723.929 417.04 723.319 419.289 723.319C421.538 723.319 423.538 723.929 425.29 725.148C427.042 726.367 428.421 728.042 429.427 730.173C430.434 732.303 430.937 734.73 430.937 737.452C430.937 740.175 430.434 742.602 429.427 744.732C428.421 746.863 427.042 748.538 425.29 749.757C423.538 750.964 421.538 751.568 419.289 751.568ZM419.289 749.562C421.195 749.562 422.858 749.023 424.278 747.946C425.711 746.869 426.817 745.413 427.599 743.578C428.392 741.743 428.788 739.701 428.788 737.452C428.788 735.203 428.392 733.167 427.599 731.344C426.805 729.51 425.699 728.054 424.278 726.977C422.858 725.888 421.195 725.343 419.289 725.343C417.383 725.343 415.72 725.888 414.3 726.977C412.879 728.054 411.772 729.51 410.979 731.344C410.186 733.167 409.79 735.203 409.79 737.452C409.79 739.701 410.18 741.743 410.961 743.578C411.755 745.413 412.861 746.869 414.282 747.946C415.714 749.023 417.383 749.562 419.289 749.562ZM438.398 751V723.727H440.511V727.989H440.707C441.299 726.592 442.299 725.473 443.707 724.633C445.116 723.781 446.72 723.354 448.519 723.354C448.709 723.354 448.898 723.354 449.087 723.354C449.277 723.354 449.454 723.36 449.62 723.372V725.556C449.478 725.544 449.306 725.527 449.105 725.503C448.916 725.467 448.679 725.45 448.395 725.45C446.88 725.45 445.53 725.775 444.347 726.426C443.175 727.077 442.251 727.977 441.577 729.125C440.902 730.261 440.565 731.563 440.565 733.031V751H438.398ZM466.79 723.727V725.663H454.876V723.727H466.79ZM458.906 717.193H461.055V744.555C461.055 745.667 461.268 746.579 461.694 747.289C462.132 747.987 462.7 748.508 463.398 748.852C464.109 749.183 464.866 749.349 465.671 749.349C466.062 749.349 466.399 749.319 466.683 749.26C466.979 749.201 467.257 749.124 467.518 749.029L468.05 751C467.719 751.118 467.352 751.219 466.95 751.302C466.547 751.397 466.074 751.444 465.529 751.444C464.393 751.444 463.316 751.189 462.298 750.68C461.291 750.171 460.475 749.432 459.847 748.461C459.22 747.49 458.906 746.318 458.906 744.945V717.193ZM476.848 751.231C476.316 751.231 475.86 751.047 475.481 750.68C475.114 750.302 474.931 749.846 474.931 749.313C474.931 748.792 475.114 748.343 475.481 747.964C475.86 747.585 476.316 747.396 476.848 747.396C477.369 747.396 477.819 747.585 478.198 747.964C478.577 748.343 478.766 748.792 478.766 749.313C478.766 749.668 478.677 749.994 478.5 750.29C478.334 750.574 478.103 750.805 477.807 750.982C477.523 751.148 477.203 751.231 476.848 751.231ZM506.238 761.227V745.052H506.025C505.611 746.236 505.007 747.325 504.214 748.319C503.421 749.301 502.445 750.089 501.285 750.68C500.125 751.272 498.769 751.568 497.219 751.568C495.041 751.568 493.135 750.964 491.501 749.757C489.88 748.538 488.613 746.869 487.702 744.75C486.802 742.619 486.352 740.181 486.352 737.435C486.352 734.688 486.802 732.256 487.702 730.137C488.601 728.006 489.868 726.337 491.501 725.13C493.135 723.923 495.046 723.319 497.236 723.319C498.811 723.319 500.172 723.621 501.32 724.224C502.468 724.816 503.433 725.603 504.214 726.586C504.996 727.568 505.599 728.646 506.025 729.817H506.292V723.727H508.387V761.227H506.238ZM497.414 749.562C499.249 749.562 500.823 749.035 502.137 747.982C503.463 746.916 504.481 745.472 505.191 743.649C505.901 741.814 506.256 739.737 506.256 737.417C506.256 735.097 505.907 733.031 505.209 731.22C504.51 729.397 503.498 727.965 502.172 726.923C500.847 725.87 499.26 725.343 497.414 725.343C495.532 725.343 493.928 725.876 492.602 726.941C491.276 727.995 490.258 729.433 489.548 731.256C488.85 733.079 488.501 735.132 488.501 737.417C488.501 739.701 488.856 741.761 489.566 743.596C490.276 745.431 491.294 746.887 492.62 747.964C493.946 749.029 495.544 749.562 497.414 749.562ZM517.402 751V723.727H519.515V727.847H519.728C520.249 726.473 521.149 725.384 522.427 724.58C523.706 723.775 525.244 723.372 527.044 723.372C529.02 723.372 530.613 723.846 531.82 724.793C533.039 725.74 533.915 727.024 534.448 728.646H534.643C535.176 727.048 536.129 725.769 537.502 724.81C538.887 723.852 540.591 723.372 542.615 723.372C545.255 723.372 547.267 724.207 548.652 725.876C550.049 727.533 550.748 729.806 550.748 732.694V751H548.581V732.694C548.581 730.421 548.037 728.634 546.948 727.332C545.859 726.03 544.261 725.379 542.154 725.379C539.905 725.379 538.176 726.083 536.969 727.491C535.762 728.9 535.158 730.693 535.158 732.871V751H532.992V732.552C532.992 730.433 532.459 728.711 531.394 727.385C530.328 726.047 528.73 725.379 526.6 725.379C525.156 725.379 523.907 725.71 522.853 726.373C521.812 727.036 521.001 727.947 520.421 729.107C519.853 730.267 519.569 731.599 519.569 733.102V751H517.402ZM569.094 751.568C566.904 751.568 564.992 750.964 563.358 749.757C561.725 748.55 560.458 746.887 559.559 744.768C558.671 742.637 558.227 740.193 558.227 737.435C558.227 734.7 558.677 732.274 559.577 730.155C560.488 728.024 561.76 726.355 563.394 725.148C565.028 723.929 566.933 723.319 569.111 723.319C570.674 723.319 572.029 723.621 573.177 724.224C574.337 724.816 575.308 725.603 576.089 726.586C576.882 727.568 577.486 728.646 577.9 729.817H578.113V714.636H580.262V751H578.167V745.052H577.9C577.462 746.224 576.853 747.307 576.072 748.301C575.29 749.284 574.32 750.077 573.16 750.68C572 751.272 570.644 751.568 569.094 751.568ZM569.289 749.562C571.135 749.562 572.716 749.035 574.03 747.982C575.355 746.916 576.367 745.472 577.066 743.649C577.776 741.814 578.131 739.737 578.131 737.417C578.131 735.097 577.776 733.031 577.066 731.22C576.367 729.397 575.355 727.965 574.03 726.923C572.716 725.87 571.135 725.343 569.289 725.343C567.419 725.343 565.815 725.876 564.477 726.941C563.151 727.995 562.133 729.433 561.423 731.256C560.725 733.079 560.376 735.132 560.376 737.417C560.376 739.701 560.725 741.761 561.423 743.596C562.133 745.431 563.151 746.887 564.477 747.964C565.815 749.029 567.419 749.562 569.289 749.562Z" fill="#404E6B"/>
<path d="M36.6 61.52V60.12H47.4V61.52H36.6ZM60.5844 61.52V60.12H71.3844V61.52H60.5844ZM84.5688 61.52V60.12H95.3688V61.52H84.5688Z" fill="black"/>
<path d="M36.6 174.52V173.12H47.4V174.52H36.6ZM60.5844 174.52V173.12H71.3844V174.52H60.5844ZM84.5688 174.52V173.12H95.3688V174.52H84.5688Z" fill="black"/>
<path d="M37.92 314.08L39.2 313.4L43.4 319.72L42.44 320.24L37.92 314.08ZM61.9044 314.08L63.1844 313.4L67.3844 319.72L66.4244 320.24L61.9044 314.08ZM85.8888 314.08L87.1688 313.4L91.3688 319.72L90.4088 320.24L85.8888 314.08ZM113.953 349.52C112.833 349.52 112.273 348.96 112.273 347.84V344C112.273 343.227 112.34 342.56 112.473 342C112.633 341.44 112.806 340.96 112.993 340.56C113.206 340.133 113.42 339.773 113.633 339.48C113.873 339.187 114.073 338.933 114.233 338.72C114.846 337.973 115.246 337.387 115.433 336.96C115.62 336.533 115.713 336.093 115.713 335.64C115.713 334.44 115.166 333.56 114.073 333C112.98 332.413 111.393 332.12 109.313 332.12H106.473V331H109.313C111.393 331 112.98 330.72 114.073 330.16C115.166 329.573 115.713 328.68 115.713 327.48C115.713 327.027 115.62 326.587 115.433 326.16C115.246 325.733 114.846 325.147 114.233 324.4C114.073 324.187 113.873 323.933 113.633 323.64C113.42 323.347 113.206 323 112.993 322.6C112.806 322.173 112.633 321.68 112.473 321.12C112.34 320.56 112.273 319.893 112.273 319.12V315.28C112.273 314.16 112.833 313.6 113.953 313.6H121.433V314.72H113.553V319.08C113.553 319.8 113.606 320.413 113.713 320.92C113.846 321.427 113.993 321.867 114.153 322.24C114.313 322.587 114.486 322.893 114.673 323.16C114.886 323.4 115.073 323.613 115.233 323.8C115.846 324.573 116.286 325.24 116.553 325.8C116.846 326.333 116.993 326.907 116.993 327.52C116.993 328.72 116.553 329.653 115.673 330.32C114.793 330.987 113.673 331.387 112.313 331.52V331.6C113.673 331.733 114.793 332.133 115.673 332.8C116.553 333.467 116.993 334.4 116.993 335.6C116.993 336.213 116.846 336.8 116.553 337.36C116.286 337.893 115.846 338.547 115.233 339.32C115.073 339.533 114.886 339.76 114.673 340C114.486 340.24 114.313 340.547 114.153 340.92C113.993 341.267 113.846 341.693 113.713 342.2C113.606 342.707 113.553 343.32 113.553 344.04V348.4H121.433V349.52H113.953ZM129.098 342.76H135.978V324.6H129.098V323.36H137.378V327.64H137.498C137.738 327.053 138.018 326.507 138.338 326C138.684 325.467 139.111 325.013 139.618 324.64C140.151 324.24 140.778 323.933 141.498 323.72C142.218 323.48 143.058 323.36 144.018 323.36H148.218V324.68H143.658C142.778 324.68 141.951 324.827 141.178 325.12C140.431 325.387 139.778 325.787 139.218 326.32C138.658 326.853 138.204 327.533 137.858 328.36C137.538 329.16 137.378 330.08 137.378 331.12V342.76H146.178V344H129.098V342.76ZM161.922 313.6C163.042 313.6 163.602 314.16 163.602 315.28V319.12C163.602 319.893 163.522 320.56 163.362 321.12C163.229 321.68 163.055 322.173 162.842 322.6C162.655 323 162.442 323.347 162.202 323.64C161.989 323.933 161.802 324.187 161.642 324.4C161.029 325.147 160.629 325.733 160.442 326.16C160.255 326.587 160.162 327.027 160.162 327.48C160.162 328.68 160.709 329.573 161.802 330.16C162.895 330.72 164.482 331 166.562 331H169.402V332.12H166.562C164.482 332.12 162.895 332.413 161.802 333C160.709 333.56 160.162 334.44 160.162 335.64C160.162 336.093 160.255 336.533 160.442 336.96C160.629 337.387 161.029 337.973 161.642 338.72C161.802 338.933 161.989 339.187 162.202 339.48C162.442 339.773 162.655 340.133 162.842 340.56C163.055 340.96 163.229 341.44 163.362 342C163.522 342.56 163.602 343.227 163.602 344V347.84C163.602 348.96 163.042 349.52 161.922 349.52H154.442V348.4H162.322V344.04C162.322 343.32 162.255 342.707 162.122 342.2C162.015 341.693 161.882 341.267 161.722 340.92C161.562 340.547 161.375 340.24 161.162 340C160.975 339.76 160.802 339.533 160.642 339.32C160.029 338.547 159.575 337.893 159.282 337.36C159.015 336.8 158.882 336.213 158.882 335.6C158.882 334.4 159.322 333.467 160.202 332.8C161.082 332.133 162.202 331.733 163.562 331.6V331.52C162.202 331.387 161.082 330.987 160.202 330.32C159.322 329.653 158.882 328.72 158.882 327.52C158.882 326.907 159.015 326.333 159.282 325.8C159.575 325.24 160.029 324.573 160.642 323.8C160.802 323.613 160.975 323.4 161.162 323.16C161.375 322.893 161.562 322.587 161.722 322.24C161.882 321.867 162.015 321.427 162.122 320.92C162.255 320.413 162.322 319.8 162.322 319.08V314.72H154.442V313.6H161.922ZM37.92 418.08L39.2 417.4L43.4 423.72L42.44 424.24L37.92 418.08ZM61.9044 418.08L63.1844 417.4L67.3844 423.72L66.4244 424.24L61.9044 418.08ZM85.8888 418.08L87.1688 417.4L91.3688 423.72L90.4088 424.24L85.8888 418.08Z" fill="black"/>
<path d="M34.375 96.1H36.375V98.2H36.475C37.3083 96.6 38.6333 95.8 40.45 95.8C42.0333 95.8 43.2667 96.3917 44.15 97.575C45.05 98.7583 45.5 100.417 45.5 102.55C45.5 104.683 45.05 106.342 44.15 107.525C43.2667 108.708 42.0333 109.3 40.45 109.3C38.6333 109.3 37.3083 108.5 36.475 106.9H36.375V114H34.375V96.1ZM39.675 107.525C40.8417 107.525 41.7417 107.175 42.375 106.475C43.025 105.758 43.35 104.817 43.35 103.65V101.45C43.35 100.283 43.025 99.35 42.375 98.65C41.7417 97.9333 40.8417 97.575 39.675 97.575C39.225 97.575 38.8 97.6333 38.4 97.75C38 97.8667 37.65 98.0417 37.35 98.275C37.05 98.4917 36.8083 98.7667 36.625 99.1C36.4583 99.4167 36.375 99.7917 36.375 100.225V104.875C36.375 105.308 36.4583 105.692 36.625 106.025C36.8083 106.342 37.05 106.617 37.35 106.85C37.65 107.067 38 107.233 38.4 107.35C38.8 107.467 39.225 107.525 39.675 107.525ZM59.3652 109C58.5819 109 58.0236 108.8 57.6902 108.4C57.3569 108 57.1486 107.5 57.0652 106.9H56.9402C56.6569 107.65 56.1986 108.242 55.5652 108.675C54.9486 109.092 54.1152 109.3 53.0652 109.3C51.7152 109.3 50.6402 108.95 49.8402 108.25C49.0402 107.55 48.6402 106.592 48.6402 105.375C48.6402 104.175 49.0736 103.25 49.9402 102.6C50.8236 101.95 52.2402 101.625 54.1902 101.625H56.9402V100.35C56.9402 99.4 56.6736 98.6917 56.1402 98.225C55.6069 97.7417 54.8486 97.5 53.8652 97.5C52.9986 97.5 52.2902 97.675 51.7402 98.025C51.1902 98.3583 50.7486 98.8167 50.4152 99.4L49.0652 98.4C49.2319 98.0667 49.4569 97.7417 49.7402 97.425C50.0236 97.1083 50.3736 96.8333 50.7902 96.6C51.2069 96.35 51.6819 96.1583 52.2152 96.025C52.7486 95.875 53.3402 95.8 53.9902 95.8C55.5069 95.8 56.7069 96.1833 57.5902 96.95C58.4902 97.7167 58.9402 98.7833 58.9402 100.15V107.25H60.7402V109H59.3652ZM53.4152 107.625C53.9319 107.625 54.3986 107.567 54.8152 107.45C55.2486 107.317 55.6236 107.15 55.9402 106.95C56.2569 106.733 56.4986 106.483 56.6652 106.2C56.8486 105.9 56.9402 105.583 56.9402 105.25V103.125H54.1902C52.9902 103.125 52.1152 103.292 51.5652 103.625C51.0152 103.958 50.7402 104.442 50.7402 105.075V105.6C50.7402 106.267 50.9736 106.775 51.4402 107.125C51.9236 107.458 52.5819 107.625 53.4152 107.625ZM63.9055 107.3H67.6805V97.8H63.9055V96.1H69.6805V99.35H69.8055C70.0721 98.3333 70.5721 97.5417 71.3055 96.975C72.0555 96.3917 73.0055 96.1 74.1555 96.1H75.9555V98.1H73.5305C72.3805 98.1 71.4471 98.4333 70.7305 99.1C70.0305 99.7667 69.6805 100.642 69.6805 101.725V107.3H74.6805V109H63.9055V107.3ZM89.3457 109C88.5624 109 88.004 108.8 87.6707 108.4C87.3374 108 87.129 107.5 87.0457 106.9H86.9207C86.6374 107.65 86.179 108.242 85.5457 108.675C84.929 109.092 84.0957 109.3 83.0457 109.3C81.6957 109.3 80.6207 108.95 79.8207 108.25C79.0207 107.55 78.6207 106.592 78.6207 105.375C78.6207 104.175 79.054 103.25 79.9207 102.6C80.804 101.95 82.2207 101.625 84.1707 101.625H86.9207V100.35C86.9207 99.4 86.654 98.6917 86.1207 98.225C85.5874 97.7417 84.829 97.5 83.8457 97.5C82.979 97.5 82.2707 97.675 81.7207 98.025C81.1707 98.3583 80.729 98.8167 80.3957 99.4L79.0457 98.4C79.2124 98.0667 79.4374 97.7417 79.7207 97.425C80.004 97.1083 80.354 96.8333 80.7707 96.6C81.1874 96.35 81.6624 96.1583 82.1957 96.025C82.729 95.875 83.3207 95.8 83.9707 95.8C85.4874 95.8 86.6874 96.1833 87.5707 96.95C88.4707 97.7167 88.9207 98.7833 88.9207 100.15V107.25H90.7207V109H89.3457ZM83.3957 107.625C83.9124 107.625 84.379 107.567 84.7957 107.45C85.229 107.317 85.604 107.15 85.9207 106.95C86.2374 106.733 86.479 106.483 86.6457 106.2C86.829 105.9 86.9207 105.583 86.9207 105.25V103.125H84.1707C82.9707 103.125 82.0957 103.292 81.5457 103.625C80.9957 103.958 80.7207 104.442 80.7207 105.075V105.6C80.7207 106.267 80.954 106.775 81.4207 107.125C81.904 107.458 82.5624 107.625 83.3957 107.625ZM93.3109 109V96.1H95.1609V97.6H95.2609C95.4609 97.1 95.7443 96.675 96.1109 96.325C96.4776 95.975 97.0193 95.8 97.7359 95.8C98.4859 95.8 99.0443 95.9917 99.4109 96.375C99.7776 96.7417 100.003 97.225 100.086 97.825H100.161C100.394 97.2417 100.728 96.7583 101.161 96.375C101.594 95.9917 102.194 95.8 102.961 95.8C104.011 95.8 104.711 96.1667 105.061 96.9C105.428 97.6333 105.611 98.6833 105.611 100.05V109H103.761V100.375C103.761 99.275 103.644 98.5167 103.411 98.1C103.194 97.6667 102.786 97.45 102.186 97.45C101.653 97.45 101.219 97.625 100.886 97.975C100.553 98.3083 100.386 98.825 100.386 99.525V109H98.5359V100.375C98.5359 99.275 98.4193 98.5167 98.1859 98.1C97.9693 97.6667 97.5693 97.45 96.9859 97.45C96.4526 97.45 96.0109 97.625 95.6609 97.975C95.3276 98.3083 95.1609 98.825 95.1609 99.525V109H93.3109ZM114.601 109.3C113.251 109.3 112.085 109.075 111.101 108.625C110.135 108.158 109.31 107.542 108.626 106.775L109.976 105.6C110.593 106.25 111.268 106.75 112.001 107.1C112.735 107.45 113.618 107.625 114.651 107.625C115.651 107.625 116.468 107.45 117.101 107.1C117.751 106.733 118.076 106.167 118.076 105.4C118.076 105.067 118.01 104.792 117.876 104.575C117.76 104.342 117.593 104.158 117.376 104.025C117.16 103.892 116.918 103.792 116.651 103.725C116.385 103.642 116.101 103.575 115.801 103.525L113.776 103.225C113.326 103.158 112.835 103.067 112.301 102.95C111.785 102.833 111.31 102.65 110.876 102.4C110.443 102.133 110.076 101.783 109.776 101.35C109.493 100.917 109.351 100.35 109.351 99.65C109.351 99 109.476 98.4417 109.726 97.975C109.993 97.4917 110.36 97.0917 110.826 96.775C111.293 96.4417 111.843 96.2 112.476 96.05C113.11 95.8833 113.801 95.8 114.551 95.8C115.718 95.8 116.726 95.9833 117.576 96.35C118.443 96.7167 119.185 97.225 119.801 97.875L118.501 99.1C118.351 98.9167 118.16 98.7333 117.926 98.55C117.71 98.35 117.435 98.175 117.101 98.025C116.785 97.8583 116.41 97.725 115.976 97.625C115.543 97.525 115.043 97.475 114.476 97.475C113.46 97.475 112.676 97.65 112.126 98C111.593 98.35 111.326 98.8583 111.326 99.525C111.326 99.8583 111.385 100.142 111.501 100.375C111.635 100.592 111.81 100.767 112.026 100.9C112.243 101.033 112.485 101.142 112.751 101.225C113.035 101.292 113.318 101.35 113.601 101.4L115.626 101.7C116.093 101.767 116.585 101.858 117.101 101.975C117.618 102.092 118.093 102.283 118.526 102.55C118.96 102.8 119.318 103.142 119.601 103.575C119.901 104.008 120.051 104.575 120.051 105.275C120.051 106.558 119.551 107.55 118.551 108.25C117.568 108.95 116.251 109.3 114.601 109.3ZM129.441 109.225C128.758 109.225 128.275 109.083 127.991 108.8C127.725 108.517 127.591 108.158 127.591 107.725V107.275C127.591 106.842 127.725 106.483 127.991 106.2C128.275 105.917 128.758 105.775 129.441 105.775C130.125 105.775 130.6 105.917 130.866 106.2C131.15 106.483 131.291 106.842 131.291 107.275V107.725C131.291 108.158 131.15 108.517 130.866 108.8C130.6 109.083 130.125 109.225 129.441 109.225ZM129.441 99.325C128.758 99.325 128.275 99.1833 127.991 98.9C127.725 98.6167 127.591 98.2583 127.591 97.825V97.375C127.591 96.9417 127.725 96.5833 127.991 96.3C128.275 96.0167 128.758 95.875 129.441 95.875C130.125 95.875 130.6 96.0167 130.866 96.3C131.15 96.5833 131.291 96.9417 131.291 97.375V97.825C131.291 98.2583 131.15 98.6167 130.866 98.9C130.6 99.1833 130.125 99.325 129.441 99.325ZM63.9805 140.3H68.4805V125.2H63.9805V123.5H70.4805V140.3H74.9805V142H63.9805V140.3ZM84.4707 142.3C83.5707 142.3 82.754 142.142 82.0207 141.825C81.304 141.508 80.6874 141.058 80.1707 140.475C79.6707 139.875 79.2874 139.167 79.0207 138.35C78.754 137.517 78.6207 136.583 78.6207 135.55C78.6207 134.533 78.754 133.608 79.0207 132.775C79.2874 131.942 79.6707 131.233 80.1707 130.65C80.6874 130.05 81.304 129.592 82.0207 129.275C82.754 128.958 83.5707 128.8 84.4707 128.8C85.3707 128.8 86.179 128.958 86.8957 129.275C87.629 129.592 88.2457 130.05 88.7457 130.65C89.2624 131.233 89.654 131.942 89.9207 132.775C90.1874 133.608 90.3207 134.533 90.3207 135.55C90.3207 136.583 90.1874 137.517 89.9207 138.35C89.654 139.167 89.2624 139.875 88.7457 140.475C88.2457 141.058 87.629 141.508 86.8957 141.825C86.179 142.142 85.3707 142.3 84.4707 142.3ZM84.4707 140.575C85.5874 140.575 86.4874 140.242 87.1707 139.575C87.854 138.908 88.1957 137.875 88.1957 136.475V134.625C88.1957 133.225 87.854 132.192 87.1707 131.525C86.4874 130.858 85.5874 130.525 84.4707 130.525C83.354 130.525 82.454 130.858 81.7707 131.525C81.0874 132.192 80.7457 133.225 80.7457 134.625V136.475C80.7457 137.875 81.0874 138.908 81.7707 139.575C82.454 140.242 83.354 140.575 84.4707 140.575ZM99.9109 142.3C98.9776 142.3 98.1443 142.142 97.4109 141.825C96.6943 141.492 96.0859 141.033 95.5859 140.45C95.0859 139.867 94.7026 139.158 94.4359 138.325C94.1859 137.492 94.0609 136.567 94.0609 135.55C94.0609 134.533 94.1943 133.608 94.4609 132.775C94.7276 131.942 95.1109 131.233 95.6109 130.65C96.1109 130.05 96.7193 129.592 97.4359 129.275C98.1526 128.958 98.9693 128.8 99.8859 128.8C101.136 128.8 102.153 129.075 102.936 129.625C103.719 130.175 104.294 130.892 104.661 131.775L103.061 132.625C102.828 131.958 102.436 131.442 101.886 131.075C101.353 130.708 100.686 130.525 99.8859 130.525C99.3026 130.525 98.7776 130.625 98.3109 130.825C97.8609 131.008 97.4776 131.275 97.1609 131.625C96.8443 131.975 96.6026 132.392 96.4359 132.875C96.2859 133.358 96.2109 133.883 96.2109 134.45V136.65C96.2109 137.217 96.2859 137.742 96.4359 138.225C96.6026 138.708 96.8443 139.125 97.1609 139.475C97.4776 139.825 97.8693 140.1 98.3359 140.3C98.8026 140.483 99.3359 140.575 99.9359 140.575C100.803 140.575 101.519 140.375 102.086 139.975C102.653 139.575 103.103 139.025 103.436 138.325L104.861 139.3C104.478 140.167 103.878 140.883 103.061 141.45C102.261 142.017 101.211 142.3 99.9109 142.3ZM119.326 142C118.543 142 117.985 141.8 117.651 141.4C117.318 141 117.11 140.5 117.026 139.9H116.901C116.618 140.65 116.16 141.242 115.526 141.675C114.91 142.092 114.076 142.3 113.026 142.3C111.676 142.3 110.601 141.95 109.801 141.25C109.001 140.55 108.601 139.592 108.601 138.375C108.601 137.175 109.035 136.25 109.901 135.6C110.785 134.95 112.201 134.625 114.151 134.625H116.901V133.35C116.901 132.4 116.635 131.692 116.101 131.225C115.568 130.742 114.81 130.5 113.826 130.5C112.96 130.5 112.251 130.675 111.701 131.025C111.151 131.358 110.71 131.817 110.376 132.4L109.026 131.4C109.193 131.067 109.418 130.742 109.701 130.425C109.985 130.108 110.335 129.833 110.751 129.6C111.168 129.35 111.643 129.158 112.176 129.025C112.71 128.875 113.301 128.8 113.951 128.8C115.468 128.8 116.668 129.183 117.551 129.95C118.451 130.717 118.901 131.783 118.901 133.15V140.25H120.701V142H119.326ZM113.376 140.625C113.893 140.625 114.36 140.567 114.776 140.45C115.21 140.317 115.585 140.15 115.901 139.95C116.218 139.733 116.46 139.483 116.626 139.2C116.81 138.9 116.901 138.583 116.901 138.25V136.125H114.151C112.951 136.125 112.076 136.292 111.526 136.625C110.976 136.958 110.701 137.442 110.701 138.075V138.6C110.701 139.267 110.935 139.775 111.401 140.125C111.885 140.458 112.543 140.625 113.376 140.625ZM130.066 142C129.083 142 128.358 141.725 127.891 141.175C127.441 140.625 127.216 139.917 127.216 139.05V130.8H122.916V129.1H126.116C126.55 129.1 126.85 129.017 127.016 128.85C127.2 128.667 127.291 128.358 127.291 127.925V124.55H129.216V129.1H135.091V130.8H129.216V140.3H135.091V142H130.066ZM145.232 126.25C144.648 126.25 144.24 126.133 144.007 125.9C143.773 125.65 143.657 125.342 143.657 124.975V124.575C143.657 124.208 143.773 123.908 144.007 123.675C144.24 123.425 144.648 123.3 145.232 123.3C145.815 123.3 146.223 123.425 146.457 123.675C146.69 123.908 146.807 124.208 146.807 124.575V124.975C146.807 125.342 146.69 125.65 146.457 125.9C146.223 126.133 145.815 126.25 145.232 126.25ZM139.582 140.3H144.232V130.8H139.582V129.1H146.232V140.3H150.582V142H139.582V140.3ZM159.422 142.3C158.522 142.3 157.705 142.142 156.972 141.825C156.255 141.508 155.639 141.058 155.122 140.475C154.622 139.875 154.239 139.167 153.972 138.35C153.705 137.517 153.572 136.583 153.572 135.55C153.572 134.533 153.705 133.608 153.972 132.775C154.239 131.942 154.622 131.233 155.122 130.65C155.639 130.05 156.255 129.592 156.972 129.275C157.705 128.958 158.522 128.8 159.422 128.8C160.322 128.8 161.13 128.958 161.847 129.275C162.58 129.592 163.197 130.05 163.697 130.65C164.214 131.233 164.605 131.942 164.872 132.775C165.139 133.608 165.272 134.533 165.272 135.55C165.272 136.583 165.139 137.517 164.872 138.35C164.605 139.167 164.214 139.875 163.697 140.475C163.197 141.058 162.58 141.508 161.847 141.825C161.13 142.142 160.322 142.3 159.422 142.3ZM159.422 140.575C160.539 140.575 161.439 140.242 162.122 139.575C162.805 138.908 163.147 137.875 163.147 136.475V134.625C163.147 133.225 162.805 132.192 162.122 131.525C161.439 130.858 160.539 130.525 159.422 130.525C158.305 130.525 157.405 130.858 156.722 131.525C156.039 132.192 155.697 133.225 155.697 134.625V136.475C155.697 137.875 156.039 138.908 156.722 139.575C157.405 140.242 158.305 140.575 159.422 140.575ZM169.362 142V129.1H171.362V131.2H171.462C171.595 130.883 171.762 130.583 171.962 130.3C172.162 130 172.404 129.742 172.687 129.525C172.987 129.308 173.337 129.133 173.737 129C174.137 128.867 174.604 128.8 175.137 128.8C176.487 128.8 177.57 129.233 178.387 130.1C179.204 130.95 179.612 132.158 179.612 133.725V142H177.612V134.075C177.612 132.892 177.354 132.017 176.837 131.45C176.32 130.867 175.562 130.575 174.562 130.575C174.162 130.575 173.77 130.625 173.387 130.725C173.004 130.825 172.662 130.975 172.362 131.175C172.062 131.375 171.82 131.633 171.637 131.95C171.454 132.267 171.362 132.633 171.362 133.05V142H169.362ZM189.402 142.225C188.719 142.225 188.236 142.083 187.952 141.8C187.686 141.517 187.552 141.158 187.552 140.725V140.275C187.552 139.842 187.686 139.483 187.952 139.2C188.236 138.917 188.719 138.775 189.402 138.775C190.086 138.775 190.561 138.917 190.827 139.2C191.111 139.483 191.252 139.842 191.252 140.275V140.725C191.252 141.158 191.111 141.517 190.827 141.8C190.561 142.083 190.086 142.225 189.402 142.225ZM189.402 132.325C188.719 132.325 188.236 132.183 187.952 131.9C187.686 131.617 187.552 131.258 187.552 130.825V130.375C187.552 129.942 187.686 129.583 187.952 129.3C188.236 129.017 188.719 128.875 189.402 128.875C190.086 128.875 190.561 129.017 190.827 129.3C191.111 129.583 191.252 129.942 191.252 130.375V130.825C191.252 131.258 191.111 131.617 190.827 131.9C190.561 132.183 190.086 132.325 189.402 132.325ZM216.808 123.5H218.483L217.158 130.425H213.933L216.808 123.5ZM222.783 123.5H224.458L223.133 130.425H219.908L222.783 123.5ZM231.223 142H229.123V124.55H235.473C237.09 124.55 238.323 124.992 239.173 125.875C240.023 126.758 240.448 127.992 240.448 129.575C240.448 130.992 240.081 132.125 239.348 132.975C238.615 133.825 237.548 134.317 236.148 134.45L240.598 142H238.248L233.998 134.55H231.223V142ZM235.423 132.775C236.306 132.775 236.99 132.558 237.473 132.125C237.973 131.675 238.223 131.042 238.223 130.225V128.925C238.223 128.108 237.973 127.483 237.473 127.05C236.99 126.6 236.306 126.375 235.423 126.375H231.223V132.775H235.423ZM244.113 142V124.55H255.113V126.375H246.213V132.25H254.363V134.075H246.213V142H244.113ZM266.304 142V138.575H257.704V136.725L265.254 124.55H268.304V136.85H270.904V138.575H268.304V142H266.304ZM259.579 136.85H266.304V126.175H266.204L259.579 136.85ZM275.919 123.5H279.144L276.269 130.425H274.594L275.919 123.5ZM281.894 123.5H285.119L282.244 130.425H280.569L281.894 123.5Z" fill="black"/>
<path d="M34.075 381.3H38.425V371.8H33.825V370.1H38.425V367.45C38.425 366.583 38.65 365.875 39.1 365.325C39.5667 364.775 40.2917 364.5 41.275 364.5H45.6V366.2H40.425V370.1H45.6V371.8H40.425V381.3H45.025V383H34.075V381.3ZM55.2902 367.25C54.7069 367.25 54.2986 367.133 54.0652 366.9C53.8319 366.65 53.7152 366.342 53.7152 365.975V365.575C53.7152 365.208 53.8319 364.908 54.0652 364.675C54.2986 364.425 54.7069 364.3 55.2902 364.3C55.8736 364.3 56.2819 364.425 56.5152 364.675C56.7486 364.908 56.8652 365.208 56.8652 365.575V365.975C56.8652 366.342 56.7486 366.65 56.5152 366.9C56.2819 367.133 55.8736 367.25 55.2902 367.25ZM49.6402 381.3H54.2902V371.8H49.6402V370.1H56.2902V381.3H60.6402V383H49.6402V381.3ZM63.9805 381.3H68.4805V366.2H63.9805V364.5H70.4805V381.3H74.9805V383H63.9805V381.3ZM85.0957 383C84.1124 383 83.3874 382.725 82.9207 382.175C82.4707 381.625 82.2457 380.917 82.2457 380.05V371.8H77.9457V370.1H81.1457C81.579 370.1 81.879 370.017 82.0457 369.85C82.229 369.667 82.3207 369.358 82.3207 368.925V365.55H84.2457V370.1H90.1207V371.8H84.2457V381.3H90.1207V383H85.0957ZM99.6859 383.3C98.7526 383.3 97.9109 383.142 97.1609 382.825C96.4276 382.508 95.7943 382.058 95.2609 381.475C94.7443 380.875 94.3443 380.167 94.0609 379.35C93.7776 378.517 93.6359 377.592 93.6359 376.575C93.6359 375.542 93.7776 374.608 94.0609 373.775C94.3609 372.942 94.7693 372.233 95.2859 371.65C95.8026 371.05 96.4193 370.592 97.1359 370.275C97.8693 369.958 98.6776 369.8 99.5609 369.8C100.428 369.8 101.211 369.958 101.911 370.275C102.628 370.592 103.236 371.033 103.736 371.6C104.236 372.15 104.619 372.808 104.886 373.575C105.153 374.342 105.286 375.183 105.286 376.1V377.05H95.7359V377.65C95.7359 378.217 95.8276 378.742 96.0109 379.225C96.1943 379.708 96.4526 380.125 96.7859 380.475C97.1359 380.825 97.5526 381.1 98.0359 381.3C98.5359 381.483 99.0859 381.575 99.6859 381.575C100.553 381.575 101.303 381.375 101.936 380.975C102.569 380.575 103.053 380.025 103.386 379.325L104.861 380.325C104.478 381.192 103.836 381.908 102.936 382.475C102.053 383.025 100.969 383.3 99.6859 383.3ZM99.5609 371.45C99.0109 371.45 98.5026 371.55 98.0359 371.75C97.5693 371.95 97.1609 372.225 96.8109 372.575C96.4776 372.925 96.2109 373.342 96.0109 373.825C95.8276 374.292 95.7359 374.808 95.7359 375.375V375.55H103.136V375.275C103.136 374.708 103.044 374.192 102.861 373.725C102.694 373.258 102.453 372.858 102.136 372.525C101.836 372.175 101.461 371.908 101.011 371.725C100.578 371.542 100.094 371.45 99.5609 371.45ZM108.876 381.3H112.651V371.8H108.876V370.1H114.651V373.35H114.776C115.043 372.333 115.543 371.542 116.276 370.975C117.026 370.392 117.976 370.1 119.126 370.1H120.926V372.1H118.501C117.351 372.1 116.418 372.433 115.701 373.1C115.001 373.767 114.651 374.642 114.651 375.725V381.3H119.651V383H108.876V381.3ZM127.066 375.225C127.066 374.008 127.2 372.842 127.466 371.725C127.75 370.592 128.125 369.542 128.591 368.575C129.075 367.608 129.633 366.742 130.266 365.975C130.9 365.192 131.566 364.533 132.266 364H134.291C133.558 364.55 132.866 365.192 132.216 365.925C131.583 366.642 131.016 367.433 130.516 368.3C130.033 369.15 129.65 370.075 129.366 371.075C129.083 372.058 128.941 373.083 128.941 374.15V376.3C128.941 377.367 129.083 378.4 129.366 379.4C129.65 380.383 130.033 381.308 130.516 382.175C131.016 383.025 131.583 383.808 132.216 384.525C132.866 385.258 133.558 385.9 134.291 386.45H132.266C131.566 385.933 130.9 385.283 130.266 384.5C129.633 383.717 129.075 382.842 128.591 381.875C128.125 380.908 127.75 379.867 127.466 378.75C127.2 377.617 127.066 376.442 127.066 375.225ZM138.932 381.3H143.432V366.2H138.932V364.5H145.432V381.3H149.932V383H138.932V381.3ZM159.422 383.3C158.522 383.3 157.705 383.142 156.972 382.825C156.255 382.508 155.639 382.058 155.122 381.475C154.622 380.875 154.239 380.167 153.972 379.35C153.705 378.517 153.572 377.583 153.572 376.55C153.572 375.533 153.705 374.608 153.972 373.775C154.239 372.942 154.622 372.233 155.122 371.65C155.639 371.05 156.255 370.592 156.972 370.275C157.705 369.958 158.522 369.8 159.422 369.8C160.322 369.8 161.13 369.958 161.847 370.275C162.58 370.592 163.197 371.05 163.697 371.65C164.214 372.233 164.605 372.942 164.872 373.775C165.139 374.608 165.272 375.533 165.272 376.55C165.272 377.583 165.139 378.517 164.872 379.35C164.605 380.167 164.214 380.875 163.697 381.475C163.197 382.058 162.58 382.508 161.847 382.825C161.13 383.142 160.322 383.3 159.422 383.3ZM159.422 381.575C160.539 381.575 161.439 381.242 162.122 380.575C162.805 379.908 163.147 378.875 163.147 377.475V375.625C163.147 374.225 162.805 373.192 162.122 372.525C161.439 371.858 160.539 371.525 159.422 371.525C158.305 371.525 157.405 371.858 156.722 372.525C156.039 373.192 155.697 374.225 155.697 375.625V377.475C155.697 378.875 156.039 379.908 156.722 380.575C157.405 381.242 158.305 381.575 159.422 381.575ZM174.862 383.3C173.929 383.3 173.095 383.142 172.362 382.825C171.645 382.492 171.037 382.033 170.537 381.45C170.037 380.867 169.654 380.158 169.387 379.325C169.137 378.492 169.012 377.567 169.012 376.55C169.012 375.533 169.145 374.608 169.412 373.775C169.679 372.942 170.062 372.233 170.562 371.65C171.062 371.05 171.67 370.592 172.387 370.275C173.104 369.958 173.92 369.8 174.837 369.8C176.087 369.8 177.104 370.075 177.887 370.625C178.67 371.175 179.245 371.892 179.612 372.775L178.012 373.625C177.779 372.958 177.387 372.442 176.837 372.075C176.304 371.708 175.637 371.525 174.837 371.525C174.254 371.525 173.729 371.625 173.262 371.825C172.812 372.008 172.429 372.275 172.112 372.625C171.795 372.975 171.554 373.392 171.387 373.875C171.237 374.358 171.162 374.883 171.162 375.45V377.65C171.162 378.217 171.237 378.742 171.387 379.225C171.554 379.708 171.795 380.125 172.112 380.475C172.429 380.825 172.82 381.1 173.287 381.3C173.754 381.483 174.287 381.575 174.887 381.575C175.754 381.575 176.47 381.375 177.037 380.975C177.604 380.575 178.054 380.025 178.387 379.325L179.812 380.3C179.429 381.167 178.829 381.883 178.012 382.45C177.212 383.017 176.162 383.3 174.862 383.3ZM194.277 383C193.494 383 192.936 382.8 192.602 382.4C192.269 382 192.061 381.5 191.977 380.9H191.852C191.569 381.65 191.111 382.242 190.477 382.675C189.861 383.092 189.027 383.3 187.977 383.3C186.627 383.3 185.552 382.95 184.752 382.25C183.952 381.55 183.552 380.592 183.552 379.375C183.552 378.175 183.986 377.25 184.852 376.6C185.736 375.95 187.152 375.625 189.102 375.625H191.852V374.35C191.852 373.4 191.586 372.692 191.052 372.225C190.519 371.742 189.761 371.5 188.777 371.5C187.911 371.5 187.202 371.675 186.652 372.025C186.102 372.358 185.661 372.817 185.327 373.4L183.977 372.4C184.144 372.067 184.369 371.742 184.652 371.425C184.936 371.108 185.286 370.833 185.702 370.6C186.119 370.35 186.594 370.158 187.127 370.025C187.661 369.875 188.252 369.8 188.902 369.8C190.419 369.8 191.619 370.183 192.502 370.95C193.402 371.717 193.852 372.783 193.852 374.15V381.25H195.652V383H194.277ZM188.327 381.625C188.844 381.625 189.311 381.567 189.727 381.45C190.161 381.317 190.536 381.15 190.852 380.95C191.169 380.733 191.411 380.483 191.577 380.2C191.761 379.9 191.852 379.583 191.852 379.25V377.125H189.102C187.902 377.125 187.027 377.292 186.477 377.625C185.927 377.958 185.652 378.442 185.652 379.075V379.6C185.652 380.267 185.886 380.775 186.352 381.125C186.836 381.458 187.494 381.625 188.327 381.625ZM205.018 383C204.034 383 203.309 382.725 202.843 382.175C202.393 381.625 202.168 380.917 202.168 380.05V371.8H197.868V370.1H201.068C201.501 370.1 201.801 370.017 201.968 369.85C202.151 369.667 202.243 369.358 202.243 368.925V365.55H204.168V370.1H210.043V371.8H204.168V381.3H210.043V383H205.018ZM220.183 367.25C219.599 367.25 219.191 367.133 218.958 366.9C218.724 366.65 218.608 366.342 218.608 365.975V365.575C218.608 365.208 218.724 364.908 218.958 364.675C219.191 364.425 219.599 364.3 220.183 364.3C220.766 364.3 221.174 364.425 221.408 364.675C221.641 364.908 221.758 365.208 221.758 365.575V365.975C221.758 366.342 221.641 366.65 221.408 366.9C221.174 367.133 220.766 367.25 220.183 367.25ZM214.533 381.3H219.183V371.8H214.533V370.1H221.183V381.3H225.533V383H214.533V381.3ZM234.373 383.3C233.473 383.3 232.656 383.142 231.923 382.825C231.206 382.508 230.59 382.058 230.073 381.475C229.573 380.875 229.19 380.167 228.923 379.35C228.656 378.517 228.523 377.583 228.523 376.55C228.523 375.533 228.656 374.608 228.923 373.775C229.19 372.942 229.573 372.233 230.073 371.65C230.59 371.05 231.206 370.592 231.923 370.275C232.656 369.958 233.473 369.8 234.373 369.8C235.273 369.8 236.081 369.958 236.798 370.275C237.531 370.592 238.148 371.05 238.648 371.65C239.165 372.233 239.556 372.942 239.823 373.775C240.09 374.608 240.223 375.533 240.223 376.55C240.223 377.583 240.09 378.517 239.823 379.35C239.556 380.167 239.165 380.875 238.648 381.475C238.148 382.058 237.531 382.508 236.798 382.825C236.081 383.142 235.273 383.3 234.373 383.3ZM234.373 381.575C235.49 381.575 236.39 381.242 237.073 380.575C237.756 379.908 238.098 378.875 238.098 377.475V375.625C238.098 374.225 237.756 373.192 237.073 372.525C236.39 371.858 235.49 371.525 234.373 371.525C233.256 371.525 232.356 371.858 231.673 372.525C230.99 373.192 230.648 374.225 230.648 375.625V377.475C230.648 378.875 230.99 379.908 231.673 380.575C232.356 381.242 233.256 381.575 234.373 381.575ZM244.313 383V370.1H246.313V372.2H246.413C246.547 371.883 246.713 371.583 246.913 371.3C247.113 371 247.355 370.742 247.638 370.525C247.938 370.308 248.288 370.133 248.688 370C249.088 369.867 249.555 369.8 250.088 369.8C251.438 369.8 252.522 370.233 253.338 371.1C254.155 371.95 254.563 373.158 254.563 374.725V383H252.563V375.075C252.563 373.892 252.305 373.017 251.788 372.45C251.272 371.867 250.513 371.575 249.513 371.575C249.113 371.575 248.722 371.625 248.338 371.725C247.955 371.825 247.613 371.975 247.313 372.175C247.013 372.375 246.772 372.633 246.588 372.95C246.405 373.267 246.313 373.633 246.313 374.05V383H244.313ZM273.394 373.7V372H285.294V373.7H273.394ZM273.394 378.7V377H285.294V378.7H273.394ZM288.384 373.7V372H300.284V373.7H288.384ZM288.384 378.7V377H300.284V378.7H288.384ZM319.189 370.1H321.189V372.2H321.289C322.123 370.6 323.448 369.8 325.264 369.8C326.848 369.8 328.081 370.392 328.964 371.575C329.864 372.758 330.314 374.417 330.314 376.55C330.314 378.683 329.864 380.342 328.964 381.525C328.081 382.708 326.848 383.3 325.264 383.3C323.448 383.3 322.123 382.5 321.289 380.9H321.189V388H319.189V370.1ZM324.489 381.525C325.656 381.525 326.556 381.175 327.189 380.475C327.839 379.758 328.164 378.817 328.164 377.65V375.45C328.164 374.283 327.839 373.35 327.189 372.65C326.556 371.933 325.656 371.575 324.489 371.575C324.039 371.575 323.614 371.633 323.214 371.75C322.814 371.867 322.464 372.042 322.164 372.275C321.864 372.492 321.623 372.767 321.439 373.1C321.273 373.417 321.189 373.792 321.189 374.225V378.875C321.189 379.308 321.273 379.692 321.439 380.025C321.623 380.342 321.864 380.617 322.164 380.85C322.464 381.067 322.814 381.233 323.214 381.35C323.614 381.467 324.039 381.525 324.489 381.525ZM344.18 383C343.396 383 342.838 382.8 342.505 382.4C342.171 382 341.963 381.5 341.88 380.9H341.755C341.471 381.65 341.013 382.242 340.38 382.675C339.763 383.092 338.93 383.3 337.88 383.3C336.53 383.3 335.455 382.95 334.655 382.25C333.855 381.55 333.455 380.592 333.455 379.375C333.455 378.175 333.888 377.25 334.755 376.6C335.638 375.95 337.055 375.625 339.005 375.625H341.755V374.35C341.755 373.4 341.488 372.692 340.955 372.225C340.421 371.742 339.663 371.5 338.68 371.5C337.813 371.5 337.105 371.675 336.555 372.025C336.005 372.358 335.563 372.817 335.23 373.4L333.88 372.4C334.046 372.067 334.271 371.742 334.555 371.425C334.838 371.108 335.188 370.833 335.605 370.6C336.021 370.35 336.496 370.158 337.03 370.025C337.563 369.875 338.155 369.8 338.805 369.8C340.321 369.8 341.521 370.183 342.405 370.95C343.305 371.717 343.755 372.783 343.755 374.15V381.25H345.555V383H344.18ZM338.23 381.625C338.746 381.625 339.213 381.567 339.63 381.45C340.063 381.317 340.438 381.15 340.755 380.95C341.071 380.733 341.313 380.483 341.48 380.2C341.663 379.9 341.755 379.583 341.755 379.25V377.125H339.005C337.805 377.125 336.93 377.292 336.38 377.625C335.83 377.958 335.555 378.442 335.555 379.075V379.6C335.555 380.267 335.788 380.775 336.255 381.125C336.738 381.458 337.396 381.625 338.23 381.625ZM348.72 381.3H352.495V371.8H348.72V370.1H354.495V373.35H354.62C354.887 372.333 355.387 371.542 356.12 370.975C356.87 370.392 357.82 370.1 358.97 370.1H360.77V372.1H358.345C357.195 372.1 356.262 372.433 355.545 373.1C354.845 373.767 354.495 374.642 354.495 375.725V381.3H359.495V383H348.72V381.3ZM374.16 383C373.377 383 372.818 382.8 372.485 382.4C372.152 382 371.943 381.5 371.86 380.9H371.735C371.452 381.65 370.993 382.242 370.36 382.675C369.743 383.092 368.91 383.3 367.86 383.3C366.51 383.3 365.435 382.95 364.635 382.25C363.835 381.55 363.435 380.592 363.435 379.375C363.435 378.175 363.868 377.25 364.735 376.6C365.618 375.95 367.035 375.625 368.985 375.625H371.735V374.35C371.735 373.4 371.468 372.692 370.935 372.225C370.402 371.742 369.643 371.5 368.66 371.5C367.793 371.5 367.085 371.675 366.535 372.025C365.985 372.358 365.543 372.817 365.21 373.4L363.86 372.4C364.027 372.067 364.252 371.742 364.535 371.425C364.818 371.108 365.168 370.833 365.585 370.6C366.002 370.35 366.477 370.158 367.01 370.025C367.543 369.875 368.135 369.8 368.785 369.8C370.302 369.8 371.502 370.183 372.385 370.95C373.285 371.717 373.735 372.783 373.735 374.15V381.25H375.535V383H374.16ZM368.21 381.625C368.727 381.625 369.193 381.567 369.61 381.45C370.043 381.317 370.418 381.15 370.735 380.95C371.052 380.733 371.293 380.483 371.46 380.2C371.643 379.9 371.735 379.583 371.735 379.25V377.125H368.985C367.785 377.125 366.91 377.292 366.36 377.625C365.81 377.958 365.535 378.442 365.535 379.075V379.6C365.535 380.267 365.768 380.775 366.235 381.125C366.718 381.458 367.377 381.625 368.21 381.625ZM378.125 383V370.1H379.975V371.6H380.075C380.275 371.1 380.559 370.675 380.925 370.325C381.292 369.975 381.834 369.8 382.55 369.8C383.3 369.8 383.859 369.992 384.225 370.375C384.592 370.742 384.817 371.225 384.9 371.825H384.975C385.209 371.242 385.542 370.758 385.975 370.375C386.409 369.992 387.009 369.8 387.775 369.8C388.825 369.8 389.525 370.167 389.875 370.9C390.242 371.633 390.425 372.683 390.425 374.05V383H388.575V374.375C388.575 373.275 388.459 372.517 388.225 372.1C388.009 371.667 387.6 371.45 387 371.45C386.467 371.45 386.034 371.625 385.7 371.975C385.367 372.308 385.2 372.825 385.2 373.525V383H383.35V374.375C383.35 373.275 383.234 372.517 383 372.1C382.784 371.667 382.384 371.45 381.8 371.45C381.267 371.45 380.825 371.625 380.475 371.975C380.142 372.308 379.975 372.825 379.975 373.525V383H378.125ZM399.416 383.3C398.066 383.3 396.899 383.075 395.916 382.625C394.949 382.158 394.124 381.542 393.441 380.775L394.791 379.6C395.407 380.25 396.082 380.75 396.816 381.1C397.549 381.45 398.432 381.625 399.466 381.625C400.466 381.625 401.282 381.45 401.916 381.1C402.566 380.733 402.891 380.167 402.891 379.4C402.891 379.067 402.824 378.792 402.691 378.575C402.574 378.342 402.407 378.158 402.191 378.025C401.974 377.892 401.732 377.792 401.466 377.725C401.199 377.642 400.916 377.575 400.616 377.525L398.591 377.225C398.141 377.158 397.649 377.067 397.116 376.95C396.599 376.833 396.124 376.65 395.691 376.4C395.257 376.133 394.891 375.783 394.591 375.35C394.307 374.917 394.166 374.35 394.166 373.65C394.166 373 394.291 372.442 394.541 371.975C394.807 371.492 395.174 371.092 395.641 370.775C396.107 370.442 396.657 370.2 397.291 370.05C397.924 369.883 398.616 369.8 399.366 369.8C400.532 369.8 401.541 369.983 402.391 370.35C403.257 370.717 403.999 371.225 404.616 371.875L403.316 373.1C403.166 372.917 402.974 372.733 402.741 372.55C402.524 372.35 402.249 372.175 401.916 372.025C401.599 371.858 401.224 371.725 400.791 371.625C400.357 371.525 399.857 371.475 399.291 371.475C398.274 371.475 397.491 371.65 396.941 372C396.407 372.35 396.141 372.858 396.141 373.525C396.141 373.858 396.199 374.142 396.316 374.375C396.449 374.592 396.624 374.767 396.841 374.9C397.057 375.033 397.299 375.142 397.566 375.225C397.849 375.292 398.132 375.35 398.416 375.4L400.441 375.7C400.907 375.767 401.399 375.858 401.916 375.975C402.432 376.092 402.907 376.283 403.341 376.55C403.774 376.8 404.132 377.142 404.416 377.575C404.716 378.008 404.866 378.575 404.866 379.275C404.866 380.558 404.366 381.55 403.366 382.25C402.382 382.95 401.066 383.3 399.416 383.3ZM413.731 383.275C412.348 383.192 411.198 382.875 410.281 382.325C409.364 381.758 408.606 381.058 408.006 380.225L409.531 378.975C410.131 379.725 410.764 380.308 411.431 380.725C412.098 381.142 412.873 381.392 413.756 381.475V374.95L413.181 374.85C412.314 374.7 411.589 374.475 411.006 374.175C410.423 373.858 409.956 373.492 409.606 373.075C409.256 372.642 409.006 372.167 408.856 371.65C408.706 371.117 408.631 370.567 408.631 370C408.631 368.583 409.081 367.475 409.981 366.675C410.898 365.858 412.148 365.392 413.731 365.275V362.725H415.281V365.275C416.431 365.358 417.423 365.642 418.256 366.125C419.106 366.592 419.848 367.25 420.481 368.1L418.906 369.225C418.456 368.625 417.939 368.142 417.356 367.775C416.789 367.408 416.089 367.183 415.256 367.1V373.225L416.006 373.35C416.856 373.5 417.573 373.725 418.156 374.025C418.739 374.325 419.206 374.692 419.556 375.125C419.923 375.542 420.181 376.017 420.331 376.55C420.481 377.083 420.556 377.642 420.556 378.225C420.556 379.692 420.098 380.867 419.181 381.75C418.281 382.633 416.981 383.142 415.281 383.275V385.825H413.731V383.275ZM410.656 370C410.656 370.817 410.889 371.458 411.356 371.925C411.839 372.392 412.639 372.742 413.756 372.975V367.075C412.756 367.175 411.989 367.475 411.456 367.975C410.923 368.458 410.656 369.133 410.656 370ZM418.531 378.25C418.531 377.35 418.273 376.667 417.756 376.2C417.256 375.733 416.423 375.4 415.256 375.2V381.45C416.306 381.333 417.114 381 417.681 380.45C418.248 379.9 418.531 379.167 418.531 378.25ZM423.746 381.3H428.246V366.2H423.746V364.5H430.246V381.3H434.746V383H423.746V381.3ZM444.236 383.3C443.336 383.3 442.52 383.142 441.786 382.825C441.07 382.508 440.453 382.058 439.936 381.475C439.436 380.875 439.053 380.167 438.786 379.35C438.52 378.517 438.386 377.583 438.386 376.55C438.386 375.533 438.52 374.608 438.786 373.775C439.053 372.942 439.436 372.233 439.936 371.65C440.453 371.05 441.07 370.592 441.786 370.275C442.52 369.958 443.336 369.8 444.236 369.8C445.136 369.8 445.945 369.958 446.661 370.275C447.395 370.592 448.011 371.05 448.511 371.65C449.028 372.233 449.42 372.942 449.686 373.775C449.953 374.608 450.086 375.533 450.086 376.55C450.086 377.583 449.953 378.517 449.686 379.35C449.42 380.167 449.028 380.875 448.511 381.475C448.011 382.058 447.395 382.508 446.661 382.825C445.945 383.142 445.136 383.3 444.236 383.3ZM444.236 381.575C445.353 381.575 446.253 381.242 446.936 380.575C447.62 379.908 447.961 378.875 447.961 377.475V375.625C447.961 374.225 447.62 373.192 446.936 372.525C446.253 371.858 445.353 371.525 444.236 371.525C443.12 371.525 442.22 371.858 441.536 372.525C440.853 373.192 440.511 374.225 440.511 375.625V377.475C440.511 378.875 440.853 379.908 441.536 380.575C442.22 381.242 443.12 381.575 444.236 381.575ZM459.677 383.3C458.743 383.3 457.91 383.142 457.177 382.825C456.46 382.492 455.852 382.033 455.352 381.45C454.852 380.867 454.468 380.158 454.202 379.325C453.952 378.492 453.827 377.567 453.827 376.55C453.827 375.533 453.96 374.608 454.227 373.775C454.493 372.942 454.877 372.233 455.377 371.65C455.877 371.05 456.485 370.592 457.202 370.275C457.918 369.958 458.735 369.8 459.652 369.8C460.902 369.8 461.918 370.075 462.702 370.625C463.485 371.175 464.06 371.892 464.427 372.775L462.827 373.625C462.593 372.958 462.202 372.442 461.652 372.075C461.118 371.708 460.452 371.525 459.652 371.525C459.068 371.525 458.543 371.625 458.077 371.825C457.627 372.008 457.243 372.275 456.927 372.625C456.61 372.975 456.368 373.392 456.202 373.875C456.052 374.358 455.977 374.883 455.977 375.45V377.65C455.977 378.217 456.052 378.742 456.202 379.225C456.368 379.708 456.61 380.125 456.927 380.475C457.243 380.825 457.635 381.1 458.102 381.3C458.568 381.483 459.102 381.575 459.702 381.575C460.568 381.575 461.285 381.375 461.852 380.975C462.418 380.575 462.868 380.025 463.202 379.325L464.627 380.3C464.243 381.167 463.643 381.883 462.827 382.45C462.027 383.017 460.977 383.3 459.677 383.3ZM479.092 383C478.308 383 477.75 382.8 477.417 382.4C477.083 382 476.875 381.5 476.792 380.9H476.667C476.383 381.65 475.925 382.242 475.292 382.675C474.675 383.092 473.842 383.3 472.792 383.3C471.442 383.3 470.367 382.95 469.567 382.25C468.767 381.55 468.367 380.592 468.367 379.375C468.367 378.175 468.8 377.25 469.667 376.6C470.55 375.95 471.967 375.625 473.917 375.625H476.667V374.35C476.667 373.4 476.4 372.692 475.867 372.225C475.333 371.742 474.575 371.5 473.592 371.5C472.725 371.5 472.017 371.675 471.467 372.025C470.917 372.358 470.475 372.817 470.142 373.4L468.792 372.4C468.958 372.067 469.183 371.742 469.467 371.425C469.75 371.108 470.1 370.833 470.517 370.6C470.933 370.35 471.408 370.158 471.942 370.025C472.475 369.875 473.067 369.8 473.717 369.8C475.233 369.8 476.433 370.183 477.317 370.95C478.217 371.717 478.667 372.783 478.667 374.15V381.25H480.467V383H479.092ZM473.142 381.625C473.658 381.625 474.125 381.567 474.542 381.45C474.975 381.317 475.35 381.15 475.667 380.95C475.983 380.733 476.225 380.483 476.392 380.2C476.575 379.9 476.667 379.583 476.667 379.25V377.125H473.917C472.717 377.125 471.842 377.292 471.292 377.625C470.742 377.958 470.467 378.442 470.467 379.075V379.6C470.467 380.267 470.7 380.775 471.167 381.125C471.65 381.458 472.308 381.625 473.142 381.625ZM489.832 383C488.849 383 488.124 382.725 487.657 382.175C487.207 381.625 486.982 380.917 486.982 380.05V371.8H482.682V370.1H485.882C486.315 370.1 486.615 370.017 486.782 369.85C486.965 369.667 487.057 369.358 487.057 368.925V365.55H488.982V370.1H494.857V371.8H488.982V381.3H494.857V383H489.832ZM504.997 367.25C504.414 367.25 504.006 367.133 503.772 366.9C503.539 366.65 503.422 366.342 503.422 365.975V365.575C503.422 365.208 503.539 364.908 503.772 364.675C504.006 364.425 504.414 364.3 504.997 364.3C505.581 364.3 505.989 364.425 506.222 364.675C506.456 364.908 506.572 365.208 506.572 365.575V365.975C506.572 366.342 506.456 366.65 506.222 366.9C505.989 367.133 505.581 367.25 504.997 367.25ZM499.347 381.3H503.997V371.8H499.347V370.1H505.997V381.3H510.347V383H499.347V381.3ZM519.188 383.3C518.288 383.3 517.471 383.142 516.738 382.825C516.021 382.508 515.404 382.058 514.888 381.475C514.388 380.875 514.004 380.167 513.738 379.35C513.471 378.517 513.337 377.583 513.337 376.55C513.337 375.533 513.471 374.608 513.738 373.775C514.004 372.942 514.388 372.233 514.888 371.65C515.404 371.05 516.021 370.592 516.738 370.275C517.471 369.958 518.288 369.8 519.188 369.8C520.088 369.8 520.896 369.958 521.613 370.275C522.346 370.592 522.963 371.05 523.463 371.65C523.979 372.233 524.371 372.942 524.638 373.775C524.904 374.608 525.038 375.533 525.038 376.55C525.038 377.583 524.904 378.517 524.638 379.35C524.371 380.167 523.979 380.875 523.463 381.475C522.963 382.058 522.346 382.508 521.613 382.825C520.896 383.142 520.088 383.3 519.188 383.3ZM519.188 381.575C520.304 381.575 521.204 381.242 521.888 380.575C522.571 379.908 522.913 378.875 522.913 377.475V375.625C522.913 374.225 522.571 373.192 521.888 372.525C521.204 371.858 520.304 371.525 519.188 371.525C518.071 371.525 517.171 371.858 516.488 372.525C515.804 373.192 515.463 374.225 515.463 375.625V377.475C515.463 378.875 515.804 379.908 516.488 380.575C517.171 381.242 518.071 381.575 519.188 381.575ZM529.128 383V370.1H531.128V372.2H531.228C531.361 371.883 531.528 371.583 531.728 371.3C531.928 371 532.169 370.742 532.453 370.525C532.753 370.308 533.103 370.133 533.503 370C533.903 369.867 534.369 369.8 534.903 369.8C536.253 369.8 537.336 370.233 538.153 371.1C538.969 371.95 539.378 373.158 539.378 374.725V383H537.378V375.075C537.378 373.892 537.119 373.017 536.603 372.45C536.086 371.867 535.328 371.575 534.328 371.575C533.928 371.575 533.536 371.625 533.153 371.725C532.769 371.825 532.428 371.975 532.128 372.175C531.828 372.375 531.586 372.633 531.403 372.95C531.219 373.267 531.128 373.633 531.128 374.05V383H529.128ZM551.543 375.225C551.543 376.442 551.401 377.617 551.118 378.75C550.851 379.867 550.476 380.908 549.993 381.875C549.526 382.842 548.976 383.717 548.343 384.5C547.71 385.283 547.043 385.933 546.343 386.45H544.318C545.035 385.9 545.718 385.258 546.368 384.525C547.018 383.808 547.585 383.025 548.068 382.175C548.568 381.308 548.96 380.383 549.243 379.4C549.526 378.4 549.668 377.367 549.668 376.3V374.15C549.668 373.083 549.526 372.058 549.243 371.075C548.96 370.075 548.568 369.15 548.068 368.3C547.585 367.433 547.018 366.642 546.368 365.925C545.718 365.192 545.035 364.55 544.318 364H546.343C547.043 364.533 547.71 365.192 548.343 365.975C548.976 366.742 549.526 367.608 549.993 368.575C550.476 369.542 550.851 370.592 551.118 371.725C551.401 372.842 551.543 374.008 551.543 375.225Z" fill="black"/>
</svg>
