<svg width="600" height="777" viewBox="0 0 600 777" fill="none" xmlns="http://www.w3.org/2000/svg">
<rect width="600" height="776.471" fill="#D9D9D9"/>
<path d="M334.492 751V723.727H336.605V727.989H336.8C337.392 726.592 338.393 725.473 339.801 724.633C341.21 723.781 342.814 723.354 344.613 723.354C344.802 723.354 344.992 723.354 345.181 723.354C345.371 723.354 345.548 723.36 345.714 723.372V725.556C345.572 725.544 345.4 725.527 345.199 725.503C345.009 725.467 344.773 725.45 344.489 725.45C342.973 725.45 341.624 725.775 340.44 726.426C339.268 727.077 338.345 727.977 337.67 729.125C336.996 730.261 336.658 731.563 336.658 733.031V751H334.492ZM361.339 751.568C358.877 751.568 356.734 750.959 354.911 749.739C353.088 748.52 351.68 746.851 350.685 744.732C349.691 742.613 349.194 740.199 349.194 737.488C349.194 734.765 349.691 732.339 350.685 730.208C351.692 728.077 353.071 726.397 354.822 725.165C356.574 723.934 358.575 723.319 360.824 723.319C362.351 723.319 363.795 723.627 365.156 724.242C366.529 724.846 367.737 725.722 368.778 726.87C369.832 728.018 370.655 729.403 371.246 731.025C371.85 732.647 372.152 734.469 372.152 736.494V737.843H350.561V735.872H369.986C369.986 733.895 369.583 732.114 368.778 730.528C367.973 728.942 366.879 727.681 365.494 726.746C364.109 725.811 362.552 725.343 360.824 725.343C359.013 725.343 357.397 725.852 355.977 726.87C354.568 727.876 353.449 729.237 352.621 730.954C351.804 732.67 351.378 734.588 351.342 736.707V737.594C351.342 739.867 351.739 741.909 352.532 743.72C353.337 745.519 354.485 746.946 355.977 747.999C357.468 749.041 359.255 749.562 361.339 749.562C362.83 749.562 364.103 749.313 365.156 748.816C366.222 748.307 367.092 747.692 367.766 746.969C368.441 746.247 368.95 745.549 369.293 744.874L371.264 745.673C370.85 746.585 370.205 747.496 369.329 748.408C368.465 749.307 367.364 750.059 366.026 750.663C364.701 751.266 363.138 751.568 361.339 751.568ZM379.609 761.227V723.727H381.722V729.817H381.989C382.415 728.646 383.013 727.568 383.782 726.586C384.563 725.603 385.528 724.816 386.676 724.224C387.836 723.621 389.197 723.319 390.76 723.319C392.962 723.319 394.879 723.923 396.513 725.13C398.146 726.337 399.413 728.006 400.312 730.137C401.212 732.256 401.662 734.688 401.662 737.435C401.662 740.181 401.206 742.619 400.295 744.75C399.395 746.869 398.129 748.538 396.495 749.757C394.873 750.964 392.973 751.568 390.795 751.568C389.245 751.568 387.884 751.272 386.712 750.68C385.552 750.089 384.575 749.301 383.782 748.319C383.001 747.325 382.403 746.236 381.989 745.052H381.776V761.227H379.609ZM381.74 737.417C381.74 739.737 382.095 741.814 382.805 743.649C383.516 745.472 384.534 746.916 385.859 747.982C387.185 749.035 388.765 749.562 390.6 749.562C392.459 749.562 394.051 749.029 395.376 747.964C396.714 746.887 397.732 745.431 398.43 743.596C399.141 741.761 399.496 739.701 399.496 737.417C399.496 735.132 399.147 733.079 398.448 731.256C397.75 729.433 396.738 727.995 395.412 726.941C394.086 725.876 392.482 725.343 390.6 725.343C388.742 725.343 387.15 725.87 385.824 726.923C384.51 727.965 383.498 729.397 382.788 731.22C382.089 733.031 381.74 735.097 381.74 737.417ZM419.289 751.568C417.04 751.568 415.039 750.964 413.287 749.757C411.536 748.538 410.157 746.863 409.15 744.732C408.144 742.602 407.641 740.175 407.641 737.452C407.641 734.718 408.144 732.291 409.15 730.173C410.157 728.042 411.536 726.367 413.287 725.148C415.039 723.929 417.04 723.319 419.289 723.319C421.538 723.319 423.538 723.929 425.29 725.148C427.042 726.367 428.421 728.042 429.427 730.173C430.434 732.303 430.937 734.73 430.937 737.452C430.937 740.175 430.434 742.602 429.427 744.732C428.421 746.863 427.042 748.538 425.29 749.757C423.538 750.964 421.538 751.568 419.289 751.568ZM419.289 749.562C421.195 749.562 422.858 749.023 424.278 747.946C425.711 746.869 426.817 745.413 427.599 743.578C428.392 741.743 428.788 739.701 428.788 737.452C428.788 735.203 428.392 733.167 427.599 731.344C426.805 729.51 425.699 728.054 424.278 726.977C422.858 725.888 421.195 725.343 419.289 725.343C417.383 725.343 415.72 725.888 414.3 726.977C412.879 728.054 411.772 729.51 410.979 731.344C410.186 733.167 409.79 735.203 409.79 737.452C409.79 739.701 410.18 741.743 410.961 743.578C411.755 745.413 412.861 746.869 414.282 747.946C415.714 749.023 417.383 749.562 419.289 749.562ZM438.398 751V723.727H440.511V727.989H440.707C441.299 726.592 442.299 725.473 443.707 724.633C445.116 723.781 446.72 723.354 448.519 723.354C448.709 723.354 448.898 723.354 449.087 723.354C449.277 723.354 449.454 723.36 449.62 723.372V725.556C449.478 725.544 449.306 725.527 449.105 725.503C448.916 725.467 448.679 725.45 448.395 725.45C446.88 725.45 445.53 725.775 444.347 726.426C443.175 727.077 442.251 727.977 441.577 729.125C440.902 730.261 440.565 731.563 440.565 733.031V751H438.398ZM466.79 723.727V725.663H454.876V723.727H466.79ZM458.906 717.193H461.055V744.555C461.055 745.667 461.268 746.579 461.694 747.289C462.132 747.987 462.7 748.508 463.398 748.852C464.109 749.183 464.866 749.349 465.671 749.349C466.062 749.349 466.399 749.319 466.683 749.26C466.979 749.201 467.257 749.124 467.518 749.029L468.05 751C467.719 751.118 467.352 751.219 466.95 751.302C466.547 751.397 466.074 751.444 465.529 751.444C464.393 751.444 463.316 751.189 462.298 750.68C461.291 750.171 460.475 749.432 459.847 748.461C459.22 747.49 458.906 746.318 458.906 744.945V717.193ZM476.848 751.231C476.316 751.231 475.86 751.047 475.481 750.68C475.114 750.302 474.931 749.846 474.931 749.313C474.931 748.792 475.114 748.343 475.481 747.964C475.86 747.585 476.316 747.396 476.848 747.396C477.369 747.396 477.819 747.585 478.198 747.964C478.577 748.343 478.766 748.792 478.766 749.313C478.766 749.668 478.677 749.994 478.5 750.29C478.334 750.574 478.103 750.805 477.807 750.982C477.523 751.148 477.203 751.231 476.848 751.231ZM506.238 761.227V745.052H506.025C505.611 746.236 505.007 747.325 504.214 748.319C503.421 749.301 502.445 750.089 501.285 750.68C500.125 751.272 498.769 751.568 497.219 751.568C495.041 751.568 493.135 750.964 491.501 749.757C489.88 748.538 488.613 746.869 487.702 744.75C486.802 742.619 486.352 740.181 486.352 737.435C486.352 734.688 486.802 732.256 487.702 730.137C488.601 728.006 489.868 726.337 491.501 725.13C493.135 723.923 495.046 723.319 497.236 723.319C498.811 723.319 500.172 723.621 501.32 724.224C502.468 724.816 503.433 725.603 504.214 726.586C504.996 727.568 505.599 728.646 506.025 729.817H506.292V723.727H508.387V761.227H506.238ZM497.414 749.562C499.249 749.562 500.823 749.035 502.137 747.982C503.463 746.916 504.481 745.472 505.191 743.649C505.901 741.814 506.256 739.737 506.256 737.417C506.256 735.097 505.907 733.031 505.209 731.22C504.51 729.397 503.498 727.965 502.172 726.923C500.847 725.87 499.26 725.343 497.414 725.343C495.532 725.343 493.928 725.876 492.602 726.941C491.276 727.995 490.258 729.433 489.548 731.256C488.85 733.079 488.501 735.132 488.501 737.417C488.501 739.701 488.856 741.761 489.566 743.596C490.276 745.431 491.294 746.887 492.62 747.964C493.946 749.029 495.544 749.562 497.414 749.562ZM517.402 751V723.727H519.515V727.847H519.728C520.249 726.473 521.149 725.384 522.427 724.58C523.706 723.775 525.244 723.372 527.044 723.372C529.02 723.372 530.613 723.846 531.82 724.793C533.039 725.74 533.915 727.024 534.448 728.646H534.643C535.176 727.048 536.129 725.769 537.502 724.81C538.887 723.852 540.591 723.372 542.615 723.372C545.255 723.372 547.267 724.207 548.652 725.876C550.049 727.533 550.748 729.806 550.748 732.694V751H548.581V732.694C548.581 730.421 548.037 728.634 546.948 727.332C545.859 726.03 544.261 725.379 542.154 725.379C539.905 725.379 538.176 726.083 536.969 727.491C535.762 728.9 535.158 730.693 535.158 732.871V751H532.992V732.552C532.992 730.433 532.459 728.711 531.394 727.385C530.328 726.047 528.73 725.379 526.6 725.379C525.156 725.379 523.907 725.71 522.853 726.373C521.812 727.036 521.001 727.947 520.421 729.107C519.853 730.267 519.569 731.599 519.569 733.102V751H517.402ZM569.094 751.568C566.904 751.568 564.992 750.964 563.358 749.757C561.725 748.55 560.458 746.887 559.559 744.768C558.671 742.637 558.227 740.193 558.227 737.435C558.227 734.7 558.677 732.274 559.577 730.155C560.488 728.024 561.76 726.355 563.394 725.148C565.028 723.929 566.933 723.319 569.111 723.319C570.674 723.319 572.029 723.621 573.177 724.224C574.337 724.816 575.308 725.603 576.089 726.586C576.882 727.568 577.486 728.646 577.9 729.817H578.113V714.636H580.262V751H578.167V745.052H577.9C577.462 746.224 576.853 747.307 576.072 748.301C575.29 749.284 574.32 750.077 573.16 750.68C572 751.272 570.644 751.568 569.094 751.568ZM569.289 749.562C571.135 749.562 572.716 749.035 574.03 747.982C575.355 746.916 576.367 745.472 577.066 743.649C577.776 741.814 578.131 739.737 578.131 737.417C578.131 735.097 577.776 733.031 577.066 731.22C576.367 729.397 575.355 727.965 574.03 726.923C572.716 725.87 571.135 725.343 569.289 725.343C567.419 725.343 565.815 725.876 564.477 726.941C563.151 727.995 562.133 729.433 561.423 731.256C560.725 733.079 560.376 735.132 560.376 737.417C560.376 739.701 560.725 741.761 561.423 743.596C562.133 745.431 563.151 746.887 564.477 747.964C565.815 749.029 567.419 749.562 569.289 749.562Z" fill="#404E6B"/>
<path d="M36.6 61.52V60.12H47.4V61.52H36.6ZM60.5844 61.52V60.12H71.3844V61.52H60.5844ZM84.5688 61.52V60.12H95.3688V61.52H84.5688Z" fill="black"/>
<path d="M36.6 174.52V173.12H47.4V174.52H36.6ZM60.5844 174.52V173.12H71.3844V174.52H60.5844ZM84.5688 174.52V173.12H95.3688V174.52H84.5688Z" fill="black"/>
<path d="M37.92 314.08L39.2 313.4L43.4 319.72L42.44 320.24L37.92 314.08ZM61.9044 314.08L63.1844 313.4L67.3844 319.72L66.4244 320.24L61.9044 314.08ZM85.8888 314.08L87.1688 313.4L91.3688 319.72L90.4088 320.24L85.8888 314.08ZM113.953 349.52C112.833 349.52 112.273 348.96 112.273 347.84V344C112.273 343.227 112.34 342.56 112.473 342C112.633 341.44 112.806 340.96 112.993 340.56C113.206 340.133 113.42 339.773 113.633 339.48C113.873 339.187 114.073 338.933 114.233 338.72C114.846 337.973 115.246 337.387 115.433 336.96C115.62 336.533 115.713 336.093 115.713 335.64C115.713 334.44 115.166 333.56 114.073 333C112.98 332.413 111.393 332.12 109.313 332.12H106.473V331H109.313C111.393 331 112.98 330.72 114.073 330.16C115.166 329.573 115.713 328.68 115.713 327.48C115.713 327.027 115.62 326.587 115.433 326.16C115.246 325.733 114.846 325.147 114.233 324.4C114.073 324.187 113.873 323.933 113.633 323.64C113.42 323.347 113.206 323 112.993 322.6C112.806 322.173 112.633 321.68 112.473 321.12C112.34 320.56 112.273 319.893 112.273 319.12V315.28C112.273 314.16 112.833 313.6 113.953 313.6H121.433V314.72H113.553V319.08C113.553 319.8 113.606 320.413 113.713 320.92C113.846 321.427 113.993 321.867 114.153 322.24C114.313 322.587 114.486 322.893 114.673 323.16C114.886 323.4 115.073 323.613 115.233 323.8C115.846 324.573 116.286 325.24 116.553 325.8C116.846 326.333 116.993 326.907 116.993 327.52C116.993 328.72 116.553 329.653 115.673 330.32C114.793 330.987 113.673 331.387 112.313 331.52V331.6C113.673 331.733 114.793 332.133 115.673 332.8C116.553 333.467 116.993 334.4 116.993 335.6C116.993 336.213 116.846 336.8 116.553 337.36C116.286 337.893 115.846 338.547 115.233 339.32C115.073 339.533 114.886 339.76 114.673 340C114.486 340.24 114.313 340.547 114.153 340.92C113.993 341.267 113.846 341.693 113.713 342.2C113.606 342.707 113.553 343.32 113.553 344.04V348.4H121.433V349.52H113.953ZM129.098 342.76H135.978V324.6H129.098V323.36H137.378V327.64H137.498C137.738 327.053 138.018 326.507 138.338 326C138.684 325.467 139.111 325.013 139.618 324.64C140.151 324.24 140.778 323.933 141.498 323.72C142.218 323.48 143.058 323.36 144.018 323.36H148.218V324.68H143.658C142.778 324.68 141.951 324.827 141.178 325.12C140.431 325.387 139.778 325.787 139.218 326.32C138.658 326.853 138.204 327.533 137.858 328.36C137.538 329.16 137.378 330.08 137.378 331.12V342.76H146.178V344H129.098V342.76ZM161.922 313.6C163.042 313.6 163.602 314.16 163.602 315.28V319.12C163.602 319.893 163.522 320.56 163.362 321.12C163.229 321.68 163.055 322.173 162.842 322.6C162.655 323 162.442 323.347 162.202 323.64C161.989 323.933 161.802 324.187 161.642 324.4C161.029 325.147 160.629 325.733 160.442 326.16C160.255 326.587 160.162 327.027 160.162 327.48C160.162 328.68 160.709 329.573 161.802 330.16C162.895 330.72 164.482 331 166.562 331H169.402V332.12H166.562C164.482 332.12 162.895 332.413 161.802 333C160.709 333.56 160.162 334.44 160.162 335.64C160.162 336.093 160.255 336.533 160.442 336.96C160.629 337.387 161.029 337.973 161.642 338.72C161.802 338.933 161.989 339.187 162.202 339.48C162.442 339.773 162.655 340.133 162.842 340.56C163.055 340.96 163.229 341.44 163.362 342C163.522 342.56 163.602 343.227 163.602 344V347.84C163.602 348.96 163.042 349.52 161.922 349.52H154.442V348.4H162.322V344.04C162.322 343.32 162.255 342.707 162.122 342.2C162.015 341.693 161.882 341.267 161.722 340.92C161.562 340.547 161.375 340.24 161.162 340C160.975 339.76 160.802 339.533 160.642 339.32C160.029 338.547 159.575 337.893 159.282 337.36C159.015 336.8 158.882 336.213 158.882 335.6C158.882 334.4 159.322 333.467 160.202 332.8C161.082 332.133 162.202 331.733 163.562 331.6V331.52C162.202 331.387 161.082 330.987 160.202 330.32C159.322 329.653 158.882 328.72 158.882 327.52C158.882 326.907 159.015 326.333 159.282 325.8C159.575 325.24 160.029 324.573 160.642 323.8C160.802 323.613 160.975 323.4 161.162 323.16C161.375 322.893 161.562 322.587 161.722 322.24C161.882 321.867 162.015 321.427 162.122 320.92C162.255 320.413 162.322 319.8 162.322 319.08V314.72H154.442V313.6H161.922ZM37.92 418.08L39.2 417.4L43.4 423.72L42.44 424.24L37.92 418.08ZM61.9044 418.08L63.1844 417.4L67.3844 423.72L66.4244 424.24L61.9044 418.08ZM85.8888 418.08L87.1688 417.4L91.3688 423.72L90.4088 424.24L85.8888 418.08Z" fill="black"/>
<path d="M34.49 385.96H39.71V374.56H34.19V372.52H39.71V369.34C39.71 368.3 39.98 367.45 40.52 366.79C41.08 366.13 41.95 365.8 43.13 365.8H48.32V367.84H42.11V372.52H48.32V374.56H42.11V385.96H47.63V388H34.49V385.96ZM59.9483 369.1C59.2483 369.1 58.7583 368.96 58.4783 368.68C58.1983 368.38 58.0583 368.01 58.0583 367.57V367.09C58.0583 366.65 58.1983 366.29 58.4783 366.01C58.7583 365.71 59.2483 365.56 59.9483 365.56C60.6483 365.56 61.1383 365.71 61.4183 366.01C61.6983 366.29 61.8383 366.65 61.8383 367.09V367.57C61.8383 368.01 61.6983 368.38 61.4183 368.68C61.1383 368.96 60.6483 369.1 59.9483 369.1ZM53.1683 385.96H58.7483V374.56H53.1683V372.52H61.1483V385.96H66.3683V388H53.1683V385.96ZM70.3766 385.96H75.7766V367.84H70.3766V365.8H78.1766V385.96H83.5766V388H70.3766V385.96ZM95.7148 388C94.5348 388 93.6648 387.67 93.1048 387.01C92.5648 386.35 92.2948 385.5 92.2948 384.46V374.56H87.1348V372.52H90.9748C91.4948 372.52 91.8548 372.42 92.0548 372.22C92.2748 372 92.3848 371.63 92.3848 371.11V367.06H94.6948V372.52H101.745V374.56H94.6948V385.96H101.745V388H95.7148ZM113.223 388.36C112.103 388.36 111.093 388.17 110.193 387.79C109.313 387.41 108.553 386.87 107.913 386.17C107.293 385.45 106.813 384.6 106.473 383.62C106.133 382.62 105.963 381.51 105.963 380.29C105.963 379.05 106.133 377.93 106.473 376.93C106.833 375.93 107.323 375.08 107.943 374.38C108.563 373.66 109.303 373.11 110.163 372.73C111.043 372.35 112.013 372.16 113.073 372.16C114.113 372.16 115.053 372.35 115.893 372.73C116.753 373.11 117.483 373.64 118.083 374.32C118.683 374.98 119.143 375.77 119.463 376.69C119.783 377.61 119.943 378.62 119.943 379.72V380.86H108.483V381.58C108.483 382.26 108.593 382.89 108.813 383.47C109.033 384.05 109.343 384.55 109.743 384.97C110.163 385.39 110.663 385.72 111.243 385.96C111.843 386.18 112.503 386.29 113.223 386.29C114.263 386.29 115.163 386.05 115.923 385.57C116.683 385.09 117.263 384.43 117.663 383.59L119.433 384.79C118.973 385.83 118.203 386.69 117.123 387.37C116.063 388.03 114.763 388.36 113.223 388.36ZM113.073 374.14C112.413 374.14 111.803 374.26 111.243 374.5C110.683 374.74 110.193 375.07 109.773 375.49C109.373 375.91 109.053 376.41 108.813 376.99C108.593 377.55 108.483 378.17 108.483 378.85V379.06H117.363V378.73C117.363 378.05 117.253 377.43 117.033 376.87C116.833 376.31 116.543 375.83 116.163 375.43C115.803 375.01 115.353 374.69 114.813 374.47C114.293 374.25 113.713 374.14 113.073 374.14ZM124.251 385.96H128.781V374.56H124.251V372.52H131.181V376.42H131.331C131.651 375.2 132.251 374.25 133.131 373.57C134.031 372.87 135.171 372.52 136.551 372.52H138.711V374.92H135.801C134.421 374.92 133.301 375.32 132.441 376.12C131.601 376.92 131.181 377.97 131.181 379.27V385.96H137.181V388H124.251V385.96ZM146.08 378.67C146.08 377.21 146.24 375.81 146.56 374.47C146.9 373.11 147.35 371.85 147.91 370.69C148.49 369.53 149.16 368.49 149.92 367.57C150.68 366.63 151.48 365.84 152.32 365.2H154.75C153.87 365.86 153.04 366.63 152.26 367.51C151.5 368.37 150.82 369.32 150.22 370.36C149.64 371.38 149.18 372.49 148.84 373.69C148.5 374.87 148.33 376.1 148.33 377.38V379.96C148.33 381.24 148.5 382.48 148.84 383.68C149.18 384.86 149.64 385.97 150.22 387.01C150.82 388.03 151.5 388.97 152.26 389.83C153.04 390.71 153.87 391.48 154.75 392.14H152.32C151.48 391.52 150.68 390.74 149.92 389.8C149.16 388.86 148.49 387.81 147.91 386.65C147.35 385.49 146.9 384.24 146.56 382.9C146.24 381.54 146.08 380.13 146.08 378.67ZM160.318 385.96H165.718V367.84H160.318V365.8H168.118V385.96H173.518V388H160.318V385.96ZM184.906 388.36C183.826 388.36 182.846 388.17 181.966 387.79C181.106 387.41 180.366 386.87 179.746 386.17C179.146 385.45 178.686 384.6 178.366 383.62C178.046 382.62 177.886 381.5 177.886 380.26C177.886 379.04 178.046 377.93 178.366 376.93C178.686 375.93 179.146 375.08 179.746 374.38C180.366 373.66 181.106 373.11 181.966 372.73C182.846 372.35 183.826 372.16 184.906 372.16C185.986 372.16 186.956 372.35 187.816 372.73C188.696 373.11 189.436 373.66 190.036 374.38C190.656 375.08 191.126 375.93 191.446 376.93C191.766 377.93 191.926 379.04 191.926 380.26C191.926 381.5 191.766 382.62 191.446 383.62C191.126 384.6 190.656 385.45 190.036 386.17C189.436 386.87 188.696 387.41 187.816 387.79C186.956 388.17 185.986 388.36 184.906 388.36ZM184.906 386.29C186.246 386.29 187.326 385.89 188.146 385.09C188.966 384.29 189.376 383.05 189.376 381.37V379.15C189.376 377.47 188.966 376.23 188.146 375.43C187.326 374.63 186.246 374.23 184.906 374.23C183.566 374.23 182.486 374.63 181.666 375.43C180.846 376.23 180.436 377.47 180.436 379.15V381.37C180.436 383.05 180.846 384.29 181.666 385.09C182.486 385.89 183.566 386.29 184.906 386.29ZM203.435 388.36C202.315 388.36 201.315 388.17 200.435 387.79C199.575 387.39 198.845 386.84 198.245 386.14C197.645 385.44 197.185 384.59 196.865 383.59C196.565 382.59 196.415 381.48 196.415 380.26C196.415 379.04 196.575 377.93 196.895 376.93C197.215 375.93 197.675 375.08 198.275 374.38C198.875 373.66 199.605 373.11 200.465 372.73C201.325 372.35 202.305 372.16 203.405 372.16C204.905 372.16 206.125 372.49 207.065 373.15C208.005 373.81 208.695 374.67 209.135 375.73L207.215 376.75C206.935 375.95 206.465 375.33 205.805 374.89C205.165 374.45 204.365 374.23 203.405 374.23C202.705 374.23 202.075 374.35 201.515 374.59C200.975 374.81 200.515 375.13 200.135 375.55C199.755 375.97 199.465 376.47 199.265 377.05C199.085 377.63 198.995 378.26 198.995 378.94V381.58C198.995 382.26 199.085 382.89 199.265 383.47C199.465 384.05 199.755 384.55 200.135 384.97C200.515 385.39 200.985 385.72 201.545 385.96C202.105 386.18 202.745 386.29 203.465 386.29C204.505 386.29 205.365 386.05 206.045 385.57C206.725 385.09 207.265 384.43 207.665 383.59L209.375 384.76C208.915 385.8 208.195 386.66 207.215 387.34C206.255 388.02 204.995 388.36 203.435 388.36ZM226.733 388C225.793 388 225.123 387.76 224.723 387.28C224.323 386.8 224.073 386.2 223.973 385.48H223.823C223.483 386.38 222.933 387.09 222.173 387.61C221.433 388.11 220.433 388.36 219.173 388.36C217.553 388.36 216.263 387.94 215.303 387.1C214.343 386.26 213.863 385.11 213.863 383.65C213.863 382.21 214.383 381.1 215.423 380.32C216.483 379.54 218.183 379.15 220.523 379.15H223.823V377.62C223.823 376.48 223.503 375.63 222.863 375.07C222.223 374.49 221.313 374.2 220.133 374.2C219.093 374.2 218.243 374.41 217.583 374.83C216.923 375.23 216.393 375.78 215.993 376.48L214.373 375.28C214.573 374.88 214.843 374.49 215.183 374.11C215.523 373.73 215.943 373.4 216.443 373.12C216.943 372.82 217.513 372.59 218.153 372.43C218.793 372.25 219.503 372.16 220.283 372.16C222.103 372.16 223.543 372.62 224.603 373.54C225.683 374.46 226.223 375.74 226.223 377.38V385.9H228.383V388H226.733ZM219.593 386.35C220.213 386.35 220.773 386.28 221.273 386.14C221.793 385.98 222.243 385.78 222.623 385.54C223.003 385.28 223.293 384.98 223.493 384.64C223.713 384.28 223.823 383.9 223.823 383.5V380.95H220.523C219.083 380.95 218.033 381.15 217.373 381.55C216.713 381.95 216.383 382.53 216.383 383.29V383.92C216.383 384.72 216.663 385.33 217.223 385.75C217.803 386.15 218.593 386.35 219.593 386.35ZM239.621 388C238.441 388 237.571 387.67 237.011 387.01C236.471 386.35 236.201 385.5 236.201 384.46V374.56H231.041V372.52H234.881C235.401 372.52 235.761 372.42 235.961 372.22C236.181 372 236.291 371.63 236.291 371.11V367.06H238.601V372.52H245.651V374.56H238.601V385.96H245.651V388H239.621ZM257.819 369.1C257.119 369.1 256.629 368.96 256.349 368.68C256.069 368.38 255.929 368.01 255.929 367.57V367.09C255.929 366.65 256.069 366.29 256.349 366.01C256.629 365.71 257.119 365.56 257.819 365.56C258.519 365.56 259.009 365.71 259.289 366.01C259.569 366.29 259.709 366.65 259.709 367.09V367.57C259.709 368.01 259.569 368.38 259.289 368.68C259.009 368.96 258.519 369.1 257.819 369.1ZM251.039 385.96H256.619V374.56H251.039V372.52H259.019V385.96H264.239V388H251.039V385.96ZM274.848 388.36C273.768 388.36 272.788 388.17 271.908 387.79C271.048 387.41 270.308 386.87 269.688 386.17C269.088 385.45 268.628 384.6 268.308 383.62C267.988 382.62 267.828 381.5 267.828 380.26C267.828 379.04 267.988 377.93 268.308 376.93C268.628 375.93 269.088 375.08 269.688 374.38C270.308 373.66 271.048 373.11 271.908 372.73C272.788 372.35 273.768 372.16 274.848 372.16C275.928 372.16 276.898 372.35 277.758 372.73C278.638 373.11 279.378 373.66 279.978 374.38C280.598 375.08 281.068 375.93 281.388 376.93C281.708 377.93 281.868 379.04 281.868 380.26C281.868 381.5 281.708 382.62 281.388 383.62C281.068 384.6 280.598 385.45 279.978 386.17C279.378 386.87 278.638 387.41 277.758 387.79C276.898 388.17 275.928 388.36 274.848 388.36ZM274.848 386.29C276.188 386.29 277.268 385.89 278.088 385.09C278.908 384.29 279.318 383.05 279.318 381.37V379.15C279.318 377.47 278.908 376.23 278.088 375.43C277.268 374.63 276.188 374.23 274.848 374.23C273.508 374.23 272.428 374.63 271.608 375.43C270.788 376.23 270.378 377.47 270.378 379.15V381.37C270.378 383.05 270.788 384.29 271.608 385.09C272.428 385.89 273.508 386.29 274.848 386.29ZM286.776 388V372.52H289.176V375.04H289.296C289.456 374.66 289.656 374.3 289.896 373.96C290.136 373.6 290.426 373.29 290.766 373.03C291.126 372.77 291.546 372.56 292.026 372.4C292.506 372.24 293.066 372.16 293.706 372.16C295.326 372.16 296.626 372.68 297.606 373.72C298.586 374.74 299.076 376.19 299.076 378.07V388H296.676V378.49C296.676 377.07 296.366 376.02 295.746 375.34C295.126 374.64 294.216 374.29 293.016 374.29C292.536 374.29 292.066 374.35 291.606 374.47C291.146 374.59 290.736 374.77 290.376 375.01C290.016 375.25 289.726 375.56 289.506 375.94C289.286 376.32 289.176 376.76 289.176 377.26V388H286.776ZM321.673 376.84V374.8H335.953V376.84H321.673ZM321.673 382.84V380.8H335.953V382.84H321.673ZM339.661 376.84V374.8H353.941V376.84H339.661ZM339.661 382.84V380.8H353.941V382.84H339.661ZM379.687 365.8H381.697L380.107 374.11H376.237L379.687 365.8ZM386.857 365.8H388.867L387.277 374.11H383.407L386.857 365.8ZM396.986 388H394.466V367.06H402.086C404.026 367.06 405.506 367.59 406.526 368.65C407.546 369.71 408.056 371.19 408.056 373.09C408.056 374.79 407.616 376.15 406.736 377.17C405.856 378.19 404.576 378.78 402.896 378.94L408.236 388H405.416L400.316 379.06H396.986V388ZM402.026 376.93C403.086 376.93 403.906 376.67 404.486 376.15C405.086 375.61 405.386 374.85 405.386 373.87V372.31C405.386 371.33 405.086 370.58 404.486 370.06C403.906 369.52 403.086 369.25 402.026 369.25H396.986V376.93H402.026ZM412.454 388V367.06H425.654V369.25H414.974V376.3H424.754V378.49H414.974V388H412.454ZM439.082 388V383.89H428.762V381.67L437.822 367.06H441.482V381.82H444.602V383.89H441.482V388H439.082ZM431.012 381.82H439.082V369.01H438.962L431.012 381.82ZM450.62 365.8H454.49L451.04 374.11H449.03L450.62 365.8ZM457.79 365.8H461.66L458.21 374.11H456.2L457.79 365.8ZM475.569 378.67C475.569 380.13 475.399 381.54 475.059 382.9C474.739 384.24 474.289 385.49 473.709 386.65C473.149 387.81 472.489 388.86 471.729 389.8C470.969 390.74 470.169 391.52 469.329 392.14H466.899C467.759 391.48 468.579 390.71 469.359 389.83C470.139 388.97 470.819 388.03 471.399 387.01C471.999 385.97 472.469 384.86 472.809 383.68C473.149 382.48 473.319 381.24 473.319 379.96V377.38C473.319 376.1 473.149 374.87 472.809 373.69C472.469 372.49 471.999 371.38 471.399 370.36C470.819 369.32 470.139 368.37 469.359 367.51C468.579 366.63 467.759 365.86 466.899 365.2H469.329C470.169 365.84 470.969 366.63 471.729 367.57C472.489 368.49 473.149 369.53 473.709 370.69C474.289 371.85 474.739 373.11 475.059 374.47C475.399 375.81 475.569 377.21 475.569 378.67Z" fill="black"/>
</svg>
