<svg width="600" height="777" viewBox="0 0 600 777" fill="none" xmlns="http://www.w3.org/2000/svg">
<rect width="600" height="776.471" fill="#D9D9D9"/>
<path d="M334.492 751V723.727H336.605V727.989H336.8C337.392 726.592 338.393 725.473 339.801 724.633C341.21 723.781 342.814 723.354 344.613 723.354C344.802 723.354 344.992 723.354 345.181 723.354C345.371 723.354 345.548 723.36 345.714 723.372V725.556C345.572 725.544 345.4 725.527 345.199 725.503C345.009 725.467 344.773 725.45 344.489 725.45C342.973 725.45 341.624 725.775 340.44 726.426C339.268 727.077 338.345 727.977 337.67 729.125C336.996 730.261 336.658 731.563 336.658 733.031V751H334.492ZM361.339 751.568C358.877 751.568 356.734 750.959 354.911 749.739C353.088 748.52 351.68 746.851 350.685 744.732C349.691 742.613 349.194 740.199 349.194 737.488C349.194 734.765 349.691 732.339 350.685 730.208C351.692 728.077 353.071 726.397 354.822 725.165C356.574 723.934 358.575 723.319 360.824 723.319C362.351 723.319 363.795 723.627 365.156 724.242C366.529 724.846 367.737 725.722 368.778 726.87C369.832 728.018 370.655 729.403 371.246 731.025C371.85 732.647 372.152 734.469 372.152 736.494V737.843H350.561V735.872H369.986C369.986 733.895 369.583 732.114 368.778 730.528C367.973 728.942 366.879 727.681 365.494 726.746C364.109 725.811 362.552 725.343 360.824 725.343C359.013 725.343 357.397 725.852 355.977 726.87C354.568 727.876 353.449 729.237 352.621 730.954C351.804 732.67 351.378 734.588 351.342 736.707V737.594C351.342 739.867 351.739 741.909 352.532 743.72C353.337 745.519 354.485 746.946 355.977 747.999C357.468 749.041 359.255 749.562 361.339 749.562C362.83 749.562 364.103 749.313 365.156 748.816C366.222 748.307 367.092 747.692 367.766 746.969C368.441 746.247 368.95 745.549 369.293 744.874L371.264 745.673C370.85 746.585 370.205 747.496 369.329 748.408C368.465 749.307 367.364 750.059 366.026 750.663C364.701 751.266 363.138 751.568 361.339 751.568ZM379.609 761.227V723.727H381.722V729.817H381.989C382.415 728.646 383.013 727.568 383.782 726.586C384.563 725.603 385.528 724.816 386.676 724.224C387.836 723.621 389.197 723.319 390.76 723.319C392.962 723.319 394.879 723.923 396.513 725.13C398.146 726.337 399.413 728.006 400.312 730.137C401.212 732.256 401.662 734.688 401.662 737.435C401.662 740.181 401.206 742.619 400.295 744.75C399.395 746.869 398.129 748.538 396.495 749.757C394.873 750.964 392.973 751.568 390.795 751.568C389.245 751.568 387.884 751.272 386.712 750.68C385.552 750.089 384.575 749.301 383.782 748.319C383.001 747.325 382.403 746.236 381.989 745.052H381.776V761.227H379.609ZM381.74 737.417C381.74 739.737 382.095 741.814 382.805 743.649C383.516 745.472 384.534 746.916 385.859 747.982C387.185 749.035 388.765 749.562 390.6 749.562C392.459 749.562 394.051 749.029 395.376 747.964C396.714 746.887 397.732 745.431 398.43 743.596C399.141 741.761 399.496 739.701 399.496 737.417C399.496 735.132 399.147 733.079 398.448 731.256C397.75 729.433 396.738 727.995 395.412 726.941C394.086 725.876 392.482 725.343 390.6 725.343C388.742 725.343 387.15 725.87 385.824 726.923C384.51 727.965 383.498 729.397 382.788 731.22C382.089 733.031 381.74 735.097 381.74 737.417ZM419.289 751.568C417.04 751.568 415.039 750.964 413.287 749.757C411.536 748.538 410.157 746.863 409.15 744.732C408.144 742.602 407.641 740.175 407.641 737.452C407.641 734.718 408.144 732.291 409.15 730.173C410.157 728.042 411.536 726.367 413.287 725.148C415.039 723.929 417.04 723.319 419.289 723.319C421.538 723.319 423.538 723.929 425.29 725.148C427.042 726.367 428.421 728.042 429.427 730.173C430.434 732.303 430.937 734.73 430.937 737.452C430.937 740.175 430.434 742.602 429.427 744.732C428.421 746.863 427.042 748.538 425.29 749.757C423.538 750.964 421.538 751.568 419.289 751.568ZM419.289 749.562C421.195 749.562 422.858 749.023 424.278 747.946C425.711 746.869 426.817 745.413 427.599 743.578C428.392 741.743 428.788 739.701 428.788 737.452C428.788 735.203 428.392 733.167 427.599 731.344C426.805 729.51 425.699 728.054 424.278 726.977C422.858 725.888 421.195 725.343 419.289 725.343C417.383 725.343 415.72 725.888 414.3 726.977C412.879 728.054 411.772 729.51 410.979 731.344C410.186 733.167 409.79 735.203 409.79 737.452C409.79 739.701 410.18 741.743 410.961 743.578C411.755 745.413 412.861 746.869 414.282 747.946C415.714 749.023 417.383 749.562 419.289 749.562ZM438.398 751V723.727H440.511V727.989H440.707C441.299 726.592 442.299 725.473 443.707 724.633C445.116 723.781 446.72 723.354 448.519 723.354C448.709 723.354 448.898 723.354 449.087 723.354C449.277 723.354 449.454 723.36 449.62 723.372V725.556C449.478 725.544 449.306 725.527 449.105 725.503C448.916 725.467 448.679 725.45 448.395 725.45C446.88 725.45 445.53 725.775 444.347 726.426C443.175 727.077 442.251 727.977 441.577 729.125C440.902 730.261 440.565 731.563 440.565 733.031V751H438.398ZM466.79 723.727V725.663H454.876V723.727H466.79ZM458.906 717.193H461.055V744.555C461.055 745.667 461.268 746.579 461.694 747.289C462.132 747.987 462.7 748.508 463.398 748.852C464.109 749.183 464.866 749.349 465.671 749.349C466.062 749.349 466.399 749.319 466.683 749.26C466.979 749.201 467.257 749.124 467.518 749.029L468.05 751C467.719 751.118 467.352 751.219 466.95 751.302C466.547 751.397 466.074 751.444 465.529 751.444C464.393 751.444 463.316 751.189 462.298 750.68C461.291 750.171 460.475 749.432 459.847 748.461C459.22 747.49 458.906 746.318 458.906 744.945V717.193ZM476.848 751.231C476.316 751.231 475.86 751.047 475.481 750.68C475.114 750.302 474.931 749.846 474.931 749.313C474.931 748.792 475.114 748.343 475.481 747.964C475.86 747.585 476.316 747.396 476.848 747.396C477.369 747.396 477.819 747.585 478.198 747.964C478.577 748.343 478.766 748.792 478.766 749.313C478.766 749.668 478.677 749.994 478.5 750.29C478.334 750.574 478.103 750.805 477.807 750.982C477.523 751.148 477.203 751.231 476.848 751.231ZM506.238 761.227V745.052H506.025C505.611 746.236 505.007 747.325 504.214 748.319C503.421 749.301 502.445 750.089 501.285 750.68C500.125 751.272 498.769 751.568 497.219 751.568C495.041 751.568 493.135 750.964 491.501 749.757C489.88 748.538 488.613 746.869 487.702 744.75C486.802 742.619 486.352 740.181 486.352 737.435C486.352 734.688 486.802 732.256 487.702 730.137C488.601 728.006 489.868 726.337 491.501 725.13C493.135 723.923 495.046 723.319 497.236 723.319C498.811 723.319 500.172 723.621 501.32 724.224C502.468 724.816 503.433 725.603 504.214 726.586C504.996 727.568 505.599 728.646 506.025 729.817H506.292V723.727H508.387V761.227H506.238ZM497.414 749.562C499.249 749.562 500.823 749.035 502.137 747.982C503.463 746.916 504.481 745.472 505.191 743.649C505.901 741.814 506.256 739.737 506.256 737.417C506.256 735.097 505.907 733.031 505.209 731.22C504.51 729.397 503.498 727.965 502.172 726.923C500.847 725.87 499.26 725.343 497.414 725.343C495.532 725.343 493.928 725.876 492.602 726.941C491.276 727.995 490.258 729.433 489.548 731.256C488.85 733.079 488.501 735.132 488.501 737.417C488.501 739.701 488.856 741.761 489.566 743.596C490.276 745.431 491.294 746.887 492.62 747.964C493.946 749.029 495.544 749.562 497.414 749.562ZM517.402 751V723.727H519.515V727.847H519.728C520.249 726.473 521.149 725.384 522.427 724.58C523.706 723.775 525.244 723.372 527.044 723.372C529.02 723.372 530.613 723.846 531.82 724.793C533.039 725.74 533.915 727.024 534.448 728.646H534.643C535.176 727.048 536.129 725.769 537.502 724.81C538.887 723.852 540.591 723.372 542.615 723.372C545.255 723.372 547.267 724.207 548.652 725.876C550.049 727.533 550.748 729.806 550.748 732.694V751H548.581V732.694C548.581 730.421 548.037 728.634 546.948 727.332C545.859 726.03 544.261 725.379 542.154 725.379C539.905 725.379 538.176 726.083 536.969 727.491C535.762 728.9 535.158 730.693 535.158 732.871V751H532.992V732.552C532.992 730.433 532.459 728.711 531.394 727.385C530.328 726.047 528.73 725.379 526.6 725.379C525.156 725.379 523.907 725.71 522.853 726.373C521.812 727.036 521.001 727.947 520.421 729.107C519.853 730.267 519.569 731.599 519.569 733.102V751H517.402ZM569.094 751.568C566.904 751.568 564.992 750.964 563.358 749.757C561.725 748.55 560.458 746.887 559.559 744.768C558.671 742.637 558.227 740.193 558.227 737.435C558.227 734.7 558.677 732.274 559.577 730.155C560.488 728.024 561.76 726.355 563.394 725.148C565.028 723.929 566.933 723.319 569.111 723.319C570.674 723.319 572.029 723.621 573.177 724.224C574.337 724.816 575.308 725.603 576.089 726.586C576.882 727.568 577.486 728.646 577.9 729.817H578.113V714.636H580.262V751H578.167V745.052H577.9C577.462 746.224 576.853 747.307 576.072 748.301C575.29 749.284 574.32 750.077 573.16 750.68C572 751.272 570.644 751.568 569.094 751.568ZM569.289 749.562C571.135 749.562 572.716 749.035 574.03 747.982C575.355 746.916 576.367 745.472 577.066 743.649C577.776 741.814 578.131 739.737 578.131 737.417C578.131 735.097 577.776 733.031 577.066 731.22C576.367 729.397 575.355 727.965 574.03 726.923C572.716 725.87 571.135 725.343 569.289 725.343C567.419 725.343 565.815 725.876 564.477 726.941C563.151 727.995 562.133 729.433 561.423 731.256C560.725 733.079 560.376 735.132 560.376 737.417C560.376 739.701 560.725 741.761 561.423 743.596C562.133 745.431 563.151 746.887 564.477 747.964C565.815 749.029 567.419 749.562 569.289 749.562Z" fill="#404E6B"/>
<path d="M36.6 61.52V60.12H47.4V61.52H36.6ZM60.5844 61.52V60.12H71.3844V61.52H60.5844ZM84.5688 61.52V60.12H95.3688V61.52H84.5688Z" fill="black"/>
<path d="M36.6 174.52V173.12H47.4V174.52H36.6ZM60.5844 174.52V173.12H71.3844V174.52H60.5844ZM84.5688 174.52V173.12H95.3688V174.52H84.5688Z" fill="black"/>
<path d="M37.92 314.08L39.2 313.4L43.4 319.72L42.44 320.24L37.92 314.08ZM61.9044 314.08L63.1844 313.4L67.3844 319.72L66.4244 320.24L61.9044 314.08ZM85.8888 314.08L87.1688 313.4L91.3688 319.72L90.4088 320.24L85.8888 314.08ZM113.953 349.52C112.833 349.52 112.273 348.96 112.273 347.84V344C112.273 343.227 112.34 342.56 112.473 342C112.633 341.44 112.806 340.96 112.993 340.56C113.206 340.133 113.42 339.773 113.633 339.48C113.873 339.187 114.073 338.933 114.233 338.72C114.846 337.973 115.246 337.387 115.433 336.96C115.62 336.533 115.713 336.093 115.713 335.64C115.713 334.44 115.166 333.56 114.073 333C112.98 332.413 111.393 332.12 109.313 332.12H106.473V331H109.313C111.393 331 112.98 330.72 114.073 330.16C115.166 329.573 115.713 328.68 115.713 327.48C115.713 327.027 115.62 326.587 115.433 326.16C115.246 325.733 114.846 325.147 114.233 324.4C114.073 324.187 113.873 323.933 113.633 323.64C113.42 323.347 113.206 323 112.993 322.6C112.806 322.173 112.633 321.68 112.473 321.12C112.34 320.56 112.273 319.893 112.273 319.12V315.28C112.273 314.16 112.833 313.6 113.953 313.6H121.433V314.72H113.553V319.08C113.553 319.8 113.606 320.413 113.713 320.92C113.846 321.427 113.993 321.867 114.153 322.24C114.313 322.587 114.486 322.893 114.673 323.16C114.886 323.4 115.073 323.613 115.233 323.8C115.846 324.573 116.286 325.24 116.553 325.8C116.846 326.333 116.993 326.907 116.993 327.52C116.993 328.72 116.553 329.653 115.673 330.32C114.793 330.987 113.673 331.387 112.313 331.52V331.6C113.673 331.733 114.793 332.133 115.673 332.8C116.553 333.467 116.993 334.4 116.993 335.6C116.993 336.213 116.846 336.8 116.553 337.36C116.286 337.893 115.846 338.547 115.233 339.32C115.073 339.533 114.886 339.76 114.673 340C114.486 340.24 114.313 340.547 114.153 340.92C113.993 341.267 113.846 341.693 113.713 342.2C113.606 342.707 113.553 343.32 113.553 344.04V348.4H121.433V349.52H113.953ZM129.098 342.76H135.978V324.6H129.098V323.36H137.378V327.64H137.498C137.738 327.053 138.018 326.507 138.338 326C138.684 325.467 139.111 325.013 139.618 324.64C140.151 324.24 140.778 323.933 141.498 323.72C142.218 323.48 143.058 323.36 144.018 323.36H148.218V324.68H143.658C142.778 324.68 141.951 324.827 141.178 325.12C140.431 325.387 139.778 325.787 139.218 326.32C138.658 326.853 138.204 327.533 137.858 328.36C137.538 329.16 137.378 330.08 137.378 331.12V342.76H146.178V344H129.098V342.76ZM161.922 313.6C163.042 313.6 163.602 314.16 163.602 315.28V319.12C163.602 319.893 163.522 320.56 163.362 321.12C163.229 321.68 163.055 322.173 162.842 322.6C162.655 323 162.442 323.347 162.202 323.64C161.989 323.933 161.802 324.187 161.642 324.4C161.029 325.147 160.629 325.733 160.442 326.16C160.255 326.587 160.162 327.027 160.162 327.48C160.162 328.68 160.709 329.573 161.802 330.16C162.895 330.72 164.482 331 166.562 331H169.402V332.12H166.562C164.482 332.12 162.895 332.413 161.802 333C160.709 333.56 160.162 334.44 160.162 335.64C160.162 336.093 160.255 336.533 160.442 336.96C160.629 337.387 161.029 337.973 161.642 338.72C161.802 338.933 161.989 339.187 162.202 339.48C162.442 339.773 162.655 340.133 162.842 340.56C163.055 340.96 163.229 341.44 163.362 342C163.522 342.56 163.602 343.227 163.602 344V347.84C163.602 348.96 163.042 349.52 161.922 349.52H154.442V348.4H162.322V344.04C162.322 343.32 162.255 342.707 162.122 342.2C162.015 341.693 161.882 341.267 161.722 340.92C161.562 340.547 161.375 340.24 161.162 340C160.975 339.76 160.802 339.533 160.642 339.32C160.029 338.547 159.575 337.893 159.282 337.36C159.015 336.8 158.882 336.213 158.882 335.6C158.882 334.4 159.322 333.467 160.202 332.8C161.082 332.133 162.202 331.733 163.562 331.6V331.52C162.202 331.387 161.082 330.987 160.202 330.32C159.322 329.653 158.882 328.72 158.882 327.52C158.882 326.907 159.015 326.333 159.282 325.8C159.575 325.24 160.029 324.573 160.642 323.8C160.802 323.613 160.975 323.4 161.162 323.16C161.375 322.893 161.562 322.587 161.722 322.24C161.882 321.867 162.015 321.427 162.122 320.92C162.255 320.413 162.322 319.8 162.322 319.08V314.72H154.442V313.6H161.922ZM37.92 418.08L39.2 417.4L43.4 423.72L42.44 424.24L37.92 418.08ZM61.9044 418.08L63.1844 417.4L67.3844 423.72L66.4244 424.24L61.9044 418.08ZM85.8888 418.08L87.1688 417.4L91.3688 423.72L90.4088 424.24L85.8888 418.08Z" fill="black"/>
<path d="M34.85 93.52H37.25V96.04H37.37C38.37 94.12 39.96 93.16 42.14 93.16C44.04 93.16 45.52 93.87 46.58 95.29C47.66 96.71 48.2 98.7 48.2 101.26C48.2 103.82 47.66 105.81 46.58 107.23C45.52 108.65 44.04 109.36 42.14 109.36C39.96 109.36 38.37 108.4 37.37 106.48H37.25V115H34.85V93.52ZM41.21 107.23C42.61 107.23 43.69 106.81 44.45 105.97C45.23 105.11 45.62 103.98 45.62 102.58V99.94C45.62 98.54 45.23 97.42 44.45 96.58C43.69 95.72 42.61 95.29 41.21 95.29C40.67 95.29 40.16 95.36 39.68 95.5C39.2 95.64 38.78 95.85 38.42 96.13C38.06 96.39 37.77 96.72 37.55 97.12C37.35 97.5 37.25 97.95 37.25 98.47V104.05C37.25 104.57 37.35 105.03 37.55 105.43C37.77 105.81 38.06 106.14 38.42 106.42C38.78 106.68 39.2 106.88 39.68 107.02C40.16 107.16 40.67 107.23 41.21 107.23ZM64.8383 109C63.8983 109 63.2283 108.76 62.8283 108.28C62.4283 107.8 62.1783 107.2 62.0783 106.48H61.9283C61.5883 107.38 61.0383 108.09 60.2783 108.61C59.5383 109.11 58.5383 109.36 57.2783 109.36C55.6583 109.36 54.3683 108.94 53.4083 108.1C52.4483 107.26 51.9683 106.11 51.9683 104.65C51.9683 103.21 52.4883 102.1 53.5283 101.32C54.5883 100.54 56.2883 100.15 58.6283 100.15H61.9283V98.62C61.9283 97.48 61.6083 96.63 60.9683 96.07C60.3283 95.49 59.4183 95.2 58.2383 95.2C57.1983 95.2 56.3483 95.41 55.6883 95.83C55.0283 96.23 54.4983 96.78 54.0983 97.48L52.4783 96.28C52.6783 95.88 52.9483 95.49 53.2883 95.11C53.6283 94.73 54.0483 94.4 54.5483 94.12C55.0483 93.82 55.6183 93.59 56.2583 93.43C56.8983 93.25 57.6083 93.16 58.3883 93.16C60.2083 93.16 61.6483 93.62 62.7083 94.54C63.7883 95.46 64.3283 96.74 64.3283 98.38V106.9H66.4883V109H64.8383ZM57.6983 107.35C58.3183 107.35 58.8783 107.28 59.3783 107.14C59.8983 106.98 60.3483 106.78 60.7283 106.54C61.1083 106.28 61.3983 105.98 61.5983 105.64C61.8183 105.28 61.9283 104.9 61.9283 104.5V101.95H58.6283C57.1883 101.95 56.1383 102.15 55.4783 102.55C54.8183 102.95 54.4883 103.53 54.4883 104.29V104.92C54.4883 105.72 54.7683 106.33 55.3283 106.75C55.9083 107.15 56.6983 107.35 57.6983 107.35ZM70.2866 106.96H74.8166V95.56H70.2866V93.52H77.2166V97.42H77.3666C77.6866 96.2 78.2866 95.25 79.1666 94.57C80.0666 93.87 81.2066 93.52 82.5866 93.52H84.7466V95.92H81.8366C80.4566 95.92 79.3366 96.32 78.4766 97.12C77.6366 97.92 77.2166 98.97 77.2166 100.27V106.96H83.2166V109H70.2866V106.96ZM100.815 109C99.8748 109 99.2048 108.76 98.8048 108.28C98.4048 107.8 98.1548 107.2 98.0548 106.48H97.9048C97.5648 107.38 97.0148 108.09 96.2548 108.61C95.5148 109.11 94.5148 109.36 93.2548 109.36C91.6348 109.36 90.3448 108.94 89.3848 108.1C88.4248 107.26 87.9448 106.11 87.9448 104.65C87.9448 103.21 88.4648 102.1 89.5048 101.32C90.5648 100.54 92.2648 100.15 94.6048 100.15H97.9048V98.62C97.9048 97.48 97.5848 96.63 96.9448 96.07C96.3048 95.49 95.3948 95.2 94.2148 95.2C93.1748 95.2 92.3248 95.41 91.6648 95.83C91.0048 96.23 90.4748 96.78 90.0748 97.48L88.4548 96.28C88.6548 95.88 88.9248 95.49 89.2648 95.11C89.6048 94.73 90.0248 94.4 90.5248 94.12C91.0248 93.82 91.5948 93.59 92.2348 93.43C92.8748 93.25 93.5848 93.16 94.3648 93.16C96.1848 93.16 97.6248 93.62 98.6848 94.54C99.7648 95.46 100.305 96.74 100.305 98.38V106.9H102.465V109H100.815ZM93.6748 107.35C94.2948 107.35 94.8548 107.28 95.3548 107.14C95.8748 106.98 96.3248 106.78 96.7048 106.54C97.0848 106.28 97.3748 105.98 97.5748 105.64C97.7948 105.28 97.9048 104.9 97.9048 104.5V101.95H94.6048C93.1648 101.95 92.1148 102.15 91.4548 102.55C90.7948 102.95 90.4648 103.53 90.4648 104.29V104.92C90.4648 105.72 90.7448 106.33 91.3048 106.75C91.8848 107.15 92.6748 107.35 93.6748 107.35ZM105.573 109V93.52H107.793V95.32H107.913C108.153 94.72 108.493 94.21 108.933 93.79C109.373 93.37 110.023 93.16 110.883 93.16C111.783 93.16 112.453 93.39 112.893 93.85C113.333 94.29 113.603 94.87 113.703 95.59H113.793C114.073 94.89 114.473 94.31 114.993 93.85C115.513 93.39 116.233 93.16 117.153 93.16C118.413 93.16 119.253 93.6 119.673 94.48C120.113 95.36 120.333 96.62 120.333 98.26V109H118.113V98.65C118.113 97.33 117.973 96.42 117.693 95.92C117.433 95.4 116.943 95.14 116.223 95.14C115.583 95.14 115.063 95.35 114.663 95.77C114.263 96.17 114.063 96.79 114.063 97.63V109H111.843V98.65C111.843 97.33 111.703 96.42 111.423 95.92C111.163 95.4 110.683 95.14 109.983 95.14C109.343 95.14 108.813 95.35 108.393 95.77C107.993 96.17 107.793 96.79 107.793 97.63V109H105.573ZM131.121 109.36C129.501 109.36 128.101 109.09 126.921 108.55C125.761 107.99 124.771 107.25 123.951 106.33L125.571 104.92C126.311 105.7 127.121 106.3 128.001 106.72C128.881 107.14 129.941 107.35 131.181 107.35C132.381 107.35 133.361 107.14 134.121 106.72C134.901 106.28 135.291 105.6 135.291 104.68C135.291 104.28 135.211 103.95 135.051 103.69C134.911 103.41 134.711 103.19 134.451 103.03C134.191 102.87 133.901 102.75 133.581 102.67C133.261 102.57 132.921 102.49 132.561 102.43L130.131 102.07C129.591 101.99 129.001 101.88 128.361 101.74C127.741 101.6 127.171 101.38 126.651 101.08C126.131 100.76 125.691 100.34 125.331 99.82C124.991 99.3 124.821 98.62 124.821 97.78C124.821 97 124.971 96.33 125.271 95.77C125.591 95.19 126.031 94.71 126.591 94.33C127.151 93.93 127.811 93.64 128.571 93.46C129.331 93.26 130.161 93.16 131.061 93.16C132.461 93.16 133.671 93.38 134.691 93.82C135.731 94.26 136.621 94.87 137.361 95.65L135.801 97.12C135.621 96.9 135.391 96.68 135.111 96.46C134.851 96.22 134.521 96.01 134.121 95.83C133.741 95.63 133.291 95.47 132.771 95.35C132.251 95.23 131.651 95.17 130.971 95.17C129.751 95.17 128.811 95.38 128.151 95.8C127.511 96.22 127.191 96.83 127.191 97.63C127.191 98.03 127.261 98.37 127.401 98.65C127.561 98.91 127.771 99.12 128.031 99.28C128.291 99.44 128.581 99.57 128.901 99.67C129.241 99.75 129.581 99.82 129.921 99.88L132.351 100.24C132.911 100.32 133.501 100.43 134.121 100.57C134.741 100.71 135.311 100.94 135.831 101.26C136.351 101.56 136.781 101.97 137.121 102.49C137.481 103.01 137.661 103.69 137.661 104.53C137.661 106.07 137.061 107.26 135.861 108.1C134.681 108.94 133.101 109.36 131.121 109.36ZM148.93 109.27C148.11 109.27 147.53 109.1 147.19 108.76C146.87 108.42 146.71 107.99 146.71 107.47V106.93C146.71 106.41 146.87 105.98 147.19 105.64C147.53 105.3 148.11 105.13 148.93 105.13C149.75 105.13 150.32 105.3 150.64 105.64C150.98 105.98 151.15 106.41 151.15 106.93V107.47C151.15 107.99 150.98 108.42 150.64 108.76C150.32 109.1 149.75 109.27 148.93 109.27ZM148.93 97.39C148.11 97.39 147.53 97.22 147.19 96.88C146.87 96.54 146.71 96.11 146.71 95.59V95.05C146.71 94.53 146.87 94.1 147.19 93.76C147.53 93.42 148.11 93.25 148.93 93.25C149.75 93.25 150.32 93.42 150.64 93.76C150.98 94.1 151.15 94.53 151.15 95.05V95.59C151.15 96.11 150.98 96.54 150.64 96.88C150.32 97.22 149.75 97.39 148.93 97.39ZM70.3766 145.96H75.7766V127.84H70.3766V125.8H78.1766V145.96H83.5766V148H70.3766V145.96ZM94.9648 148.36C93.8848 148.36 92.9048 148.17 92.0248 147.79C91.1648 147.41 90.4248 146.87 89.8048 146.17C89.2048 145.45 88.7448 144.6 88.4248 143.62C88.1048 142.62 87.9448 141.5 87.9448 140.26C87.9448 139.04 88.1048 137.93 88.4248 136.93C88.7448 135.93 89.2048 135.08 89.8048 134.38C90.4248 133.66 91.1648 133.11 92.0248 132.73C92.9048 132.35 93.8848 132.16 94.9648 132.16C96.0448 132.16 97.0148 132.35 97.8748 132.73C98.7548 133.11 99.4948 133.66 100.095 134.38C100.715 135.08 101.185 135.93 101.505 136.93C101.825 137.93 101.985 139.04 101.985 140.26C101.985 141.5 101.825 142.62 101.505 143.62C101.185 144.6 100.715 145.45 100.095 146.17C99.4948 146.87 98.7548 147.41 97.8748 147.79C97.0148 148.17 96.0448 148.36 94.9648 148.36ZM94.9648 146.29C96.3048 146.29 97.3848 145.89 98.2048 145.09C99.0248 144.29 99.4348 143.05 99.4348 141.37V139.15C99.4348 137.47 99.0248 136.23 98.2048 135.43C97.3848 134.63 96.3048 134.23 94.9648 134.23C93.6248 134.23 92.5448 134.63 91.7248 135.43C90.9048 136.23 90.4948 137.47 90.4948 139.15V141.37C90.4948 143.05 90.9048 144.29 91.7248 145.09C92.5448 145.89 93.6248 146.29 94.9648 146.29ZM113.493 148.36C112.373 148.36 111.373 148.17 110.493 147.79C109.633 147.39 108.903 146.84 108.303 146.14C107.703 145.44 107.243 144.59 106.923 143.59C106.623 142.59 106.473 141.48 106.473 140.26C106.473 139.04 106.633 137.93 106.953 136.93C107.273 135.93 107.733 135.08 108.333 134.38C108.933 133.66 109.663 133.11 110.523 132.73C111.383 132.35 112.363 132.16 113.463 132.16C114.963 132.16 116.183 132.49 117.123 133.15C118.063 133.81 118.753 134.67 119.193 135.73L117.273 136.75C116.993 135.95 116.523 135.33 115.863 134.89C115.223 134.45 114.423 134.23 113.463 134.23C112.763 134.23 112.133 134.35 111.573 134.59C111.033 134.81 110.573 135.13 110.193 135.55C109.813 135.97 109.523 136.47 109.323 137.05C109.143 137.63 109.053 138.26 109.053 138.94V141.58C109.053 142.26 109.143 142.89 109.323 143.47C109.523 144.05 109.813 144.55 110.193 144.97C110.573 145.39 111.043 145.72 111.603 145.96C112.163 146.18 112.803 146.29 113.523 146.29C114.563 146.29 115.423 146.05 116.103 145.57C116.783 145.09 117.323 144.43 117.723 143.59L119.433 144.76C118.973 145.8 118.253 146.66 117.273 147.34C116.313 148.02 115.053 148.36 113.493 148.36ZM136.791 148C135.851 148 135.181 147.76 134.781 147.28C134.381 146.8 134.131 146.2 134.031 145.48H133.881C133.541 146.38 132.991 147.09 132.231 147.61C131.491 148.11 130.491 148.36 129.231 148.36C127.611 148.36 126.321 147.94 125.361 147.1C124.401 146.26 123.921 145.11 123.921 143.65C123.921 142.21 124.441 141.1 125.481 140.32C126.541 139.54 128.241 139.15 130.581 139.15H133.881V137.62C133.881 136.48 133.561 135.63 132.921 135.07C132.281 134.49 131.371 134.2 130.191 134.2C129.151 134.2 128.301 134.41 127.641 134.83C126.981 135.23 126.451 135.78 126.051 136.48L124.431 135.28C124.631 134.88 124.901 134.49 125.241 134.11C125.581 133.73 126.001 133.4 126.501 133.12C127.001 132.82 127.571 132.59 128.211 132.43C128.851 132.25 129.561 132.16 130.341 132.16C132.161 132.16 133.601 132.62 134.661 133.54C135.741 134.46 136.281 135.74 136.281 137.38V145.9H138.441V148H136.791ZM129.651 146.35C130.271 146.35 130.831 146.28 131.331 146.14C131.851 145.98 132.301 145.78 132.681 145.54C133.061 145.28 133.351 144.98 133.551 144.64C133.771 144.28 133.881 143.9 133.881 143.5V140.95H130.581C129.141 140.95 128.091 141.15 127.431 141.55C126.771 141.95 126.441 142.53 126.441 143.29V143.92C126.441 144.72 126.721 145.33 127.281 145.75C127.861 146.15 128.651 146.35 129.651 146.35ZM149.68 148C148.5 148 147.63 147.67 147.07 147.01C146.53 146.35 146.26 145.5 146.26 144.46V134.56H141.1V132.52H144.94C145.46 132.52 145.82 132.42 146.02 132.22C146.24 132 146.35 131.63 146.35 131.11V127.06H148.66V132.52H155.71V134.56H148.66V145.96H155.71V148H149.68ZM167.878 129.1C167.178 129.1 166.688 128.96 166.408 128.68C166.128 128.38 165.988 128.01 165.988 127.57V127.09C165.988 126.65 166.128 126.29 166.408 126.01C166.688 125.71 167.178 125.56 167.878 125.56C168.578 125.56 169.068 125.71 169.348 126.01C169.628 126.29 169.768 126.65 169.768 127.09V127.57C169.768 128.01 169.628 128.38 169.348 128.68C169.068 128.96 168.578 129.1 167.878 129.1ZM161.098 145.96H166.678V134.56H161.098V132.52H169.078V145.96H174.298V148H161.098V145.96ZM184.906 148.36C183.826 148.36 182.846 148.17 181.966 147.79C181.106 147.41 180.366 146.87 179.746 146.17C179.146 145.45 178.686 144.6 178.366 143.62C178.046 142.62 177.886 141.5 177.886 140.26C177.886 139.04 178.046 137.93 178.366 136.93C178.686 135.93 179.146 135.08 179.746 134.38C180.366 133.66 181.106 133.11 181.966 132.73C182.846 132.35 183.826 132.16 184.906 132.16C185.986 132.16 186.956 132.35 187.816 132.73C188.696 133.11 189.436 133.66 190.036 134.38C190.656 135.08 191.126 135.93 191.446 136.93C191.766 137.93 191.926 139.04 191.926 140.26C191.926 141.5 191.766 142.62 191.446 143.62C191.126 144.6 190.656 145.45 190.036 146.17C189.436 146.87 188.696 147.41 187.816 147.79C186.956 148.17 185.986 148.36 184.906 148.36ZM184.906 146.29C186.246 146.29 187.326 145.89 188.146 145.09C188.966 144.29 189.376 143.05 189.376 141.37V139.15C189.376 137.47 188.966 136.23 188.146 135.43C187.326 134.63 186.246 134.23 184.906 134.23C183.566 134.23 182.486 134.63 181.666 135.43C180.846 136.23 180.436 137.47 180.436 139.15V141.37C180.436 143.05 180.846 144.29 181.666 145.09C182.486 145.89 183.566 146.29 184.906 146.29ZM196.835 148V132.52H199.235V135.04H199.355C199.515 134.66 199.715 134.3 199.955 133.96C200.195 133.6 200.485 133.29 200.825 133.03C201.185 132.77 201.605 132.56 202.085 132.4C202.565 132.24 203.125 132.16 203.765 132.16C205.385 132.16 206.685 132.68 207.665 133.72C208.645 134.74 209.135 136.19 209.135 138.07V148H206.735V138.49C206.735 137.07 206.425 136.02 205.805 135.34C205.185 134.64 204.275 134.29 203.075 134.29C202.595 134.29 202.125 134.35 201.665 134.47C201.205 134.59 200.795 134.77 200.435 135.01C200.075 135.25 199.785 135.56 199.565 135.94C199.345 136.32 199.235 136.76 199.235 137.26V148H196.835ZM220.883 148.27C220.063 148.27 219.483 148.1 219.143 147.76C218.823 147.42 218.663 146.99 218.663 146.47V145.93C218.663 145.41 218.823 144.98 219.143 144.64C219.483 144.3 220.063 144.13 220.883 144.13C221.703 144.13 222.273 144.3 222.593 144.64C222.933 144.98 223.103 145.41 223.103 145.93V146.47C223.103 146.99 222.933 147.42 222.593 147.76C222.273 148.1 221.703 148.27 220.883 148.27ZM220.883 136.39C220.063 136.39 219.483 136.22 219.143 135.88C218.823 135.54 218.663 135.11 218.663 134.59V134.05C218.663 133.53 218.823 133.1 219.143 132.76C219.483 132.42 220.063 132.25 220.883 132.25C221.703 132.25 222.273 132.42 222.593 132.76C222.933 133.1 223.103 133.53 223.103 134.05V134.59C223.103 135.11 222.933 135.54 222.593 135.88C222.273 136.22 221.703 136.39 220.883 136.39ZM253.769 125.8H255.779L254.189 134.11H250.319L253.769 125.8ZM260.939 125.8H262.949L261.359 134.11H257.489L260.939 125.8ZM271.068 148H268.548V127.06H276.168C278.108 127.06 279.588 127.59 280.608 128.65C281.628 129.71 282.138 131.19 282.138 133.09C282.138 134.79 281.698 136.15 280.818 137.17C279.938 138.19 278.658 138.78 276.978 138.94L282.318 148H279.498L274.398 139.06H271.068V148ZM276.108 136.93C277.168 136.93 277.988 136.67 278.568 136.15C279.168 135.61 279.468 134.85 279.468 133.87V132.31C279.468 131.33 279.168 130.58 278.568 130.06C277.988 129.52 277.168 129.25 276.108 129.25H271.068V136.93H276.108ZM286.536 148V127.06H299.736V129.25H289.056V136.3H298.836V138.49H289.056V148H286.536ZM313.164 148V143.89H302.844V141.67L311.904 127.06H315.564V141.82H318.684V143.89H315.564V148H313.164ZM305.094 141.82H313.164V129.01H313.044L305.094 141.82ZM324.703 125.8H328.573L325.123 134.11H323.113L324.703 125.8ZM331.873 125.8H335.743L332.293 134.11H330.283L331.873 125.8Z" fill="black"/>
<path d="M34.49 385.96H39.71V374.56H34.19V372.52H39.71V369.34C39.71 368.3 39.98 367.45 40.52 366.79C41.08 366.13 41.95 365.8 43.13 365.8H48.32V367.84H42.11V372.52H48.32V374.56H42.11V385.96H47.63V388H34.49V385.96ZM59.9483 369.1C59.2483 369.1 58.7583 368.96 58.4783 368.68C58.1983 368.38 58.0583 368.01 58.0583 367.57V367.09C58.0583 366.65 58.1983 366.29 58.4783 366.01C58.7583 365.71 59.2483 365.56 59.9483 365.56C60.6483 365.56 61.1383 365.71 61.4183 366.01C61.6983 366.29 61.8383 366.65 61.8383 367.09V367.57C61.8383 368.01 61.6983 368.38 61.4183 368.68C61.1383 368.96 60.6483 369.1 59.9483 369.1ZM53.1683 385.96H58.7483V374.56H53.1683V372.52H61.1483V385.96H66.3683V388H53.1683V385.96ZM70.3766 385.96H75.7766V367.84H70.3766V365.8H78.1766V385.96H83.5766V388H70.3766V385.96ZM95.7148 388C94.5348 388 93.6648 387.67 93.1048 387.01C92.5648 386.35 92.2948 385.5 92.2948 384.46V374.56H87.1348V372.52H90.9748C91.4948 372.52 91.8548 372.42 92.0548 372.22C92.2748 372 92.3848 371.63 92.3848 371.11V367.06H94.6948V372.52H101.745V374.56H94.6948V385.96H101.745V388H95.7148ZM113.223 388.36C112.103 388.36 111.093 388.17 110.193 387.79C109.313 387.41 108.553 386.87 107.913 386.17C107.293 385.45 106.813 384.6 106.473 383.62C106.133 382.62 105.963 381.51 105.963 380.29C105.963 379.05 106.133 377.93 106.473 376.93C106.833 375.93 107.323 375.08 107.943 374.38C108.563 373.66 109.303 373.11 110.163 372.73C111.043 372.35 112.013 372.16 113.073 372.16C114.113 372.16 115.053 372.35 115.893 372.73C116.753 373.11 117.483 373.64 118.083 374.32C118.683 374.98 119.143 375.77 119.463 376.69C119.783 377.61 119.943 378.62 119.943 379.72V380.86H108.483V381.58C108.483 382.26 108.593 382.89 108.813 383.47C109.033 384.05 109.343 384.55 109.743 384.97C110.163 385.39 110.663 385.72 111.243 385.96C111.843 386.18 112.503 386.29 113.223 386.29C114.263 386.29 115.163 386.05 115.923 385.57C116.683 385.09 117.263 384.43 117.663 383.59L119.433 384.79C118.973 385.83 118.203 386.69 117.123 387.37C116.063 388.03 114.763 388.36 113.223 388.36ZM113.073 374.14C112.413 374.14 111.803 374.26 111.243 374.5C110.683 374.74 110.193 375.07 109.773 375.49C109.373 375.91 109.053 376.41 108.813 376.99C108.593 377.55 108.483 378.17 108.483 378.85V379.06H117.363V378.73C117.363 378.05 117.253 377.43 117.033 376.87C116.833 376.31 116.543 375.83 116.163 375.43C115.803 375.01 115.353 374.69 114.813 374.47C114.293 374.25 113.713 374.14 113.073 374.14ZM124.251 385.96H128.781V374.56H124.251V372.52H131.181V376.42H131.331C131.651 375.2 132.251 374.25 133.131 373.57C134.031 372.87 135.171 372.52 136.551 372.52H138.711V374.92H135.801C134.421 374.92 133.301 375.32 132.441 376.12C131.601 376.92 131.181 377.97 131.181 379.27V385.96H137.181V388H124.251V385.96ZM146.08 378.67C146.08 377.21 146.24 375.81 146.56 374.47C146.9 373.11 147.35 371.85 147.91 370.69C148.49 369.53 149.16 368.49 149.92 367.57C150.68 366.63 151.48 365.84 152.32 365.2H154.75C153.87 365.86 153.04 366.63 152.26 367.51C151.5 368.37 150.82 369.32 150.22 370.36C149.64 371.38 149.18 372.49 148.84 373.69C148.5 374.87 148.33 376.1 148.33 377.38V379.96C148.33 381.24 148.5 382.48 148.84 383.68C149.18 384.86 149.64 385.97 150.22 387.01C150.82 388.03 151.5 388.97 152.26 389.83C153.04 390.71 153.87 391.48 154.75 392.14H152.32C151.48 391.52 150.68 390.74 149.92 389.8C149.16 388.86 148.49 387.81 147.91 386.65C147.35 385.49 146.9 384.24 146.56 382.9C146.24 381.54 146.08 380.13 146.08 378.67ZM170.668 385.48H170.548C169.548 387.4 167.958 388.36 165.778 388.36C163.878 388.36 162.388 387.65 161.308 386.23C160.248 384.81 159.718 382.82 159.718 380.26C159.718 377.7 160.248 375.71 161.308 374.29C162.388 372.87 163.878 372.16 165.778 372.16C167.958 372.16 169.548 373.12 170.548 375.04H170.668V365.8H173.068V388H170.668V385.48ZM166.708 386.23C167.248 386.23 167.758 386.16 168.238 386.02C168.718 385.88 169.138 385.68 169.498 385.42C169.858 385.14 170.138 384.81 170.338 384.43C170.558 384.03 170.668 383.57 170.668 383.05V377.47C170.668 376.95 170.558 376.5 170.338 376.12C170.138 375.72 169.858 375.39 169.498 375.13C169.138 374.85 168.718 374.64 168.238 374.5C167.758 374.36 167.248 374.29 166.708 374.29C165.308 374.29 164.218 374.72 163.438 375.58C162.678 376.42 162.298 377.54 162.298 378.94V381.58C162.298 382.98 162.678 384.11 163.438 384.97C164.218 385.81 165.308 386.23 166.708 386.23ZM190.756 388C189.816 388 189.146 387.76 188.746 387.28C188.346 386.8 188.096 386.2 187.996 385.48H187.846C187.506 386.38 186.956 387.09 186.196 387.61C185.456 388.11 184.456 388.36 183.196 388.36C181.576 388.36 180.286 387.94 179.326 387.1C178.366 386.26 177.886 385.11 177.886 383.65C177.886 382.21 178.406 381.1 179.446 380.32C180.506 379.54 182.206 379.15 184.546 379.15H187.846V377.62C187.846 376.48 187.526 375.63 186.886 375.07C186.246 374.49 185.336 374.2 184.156 374.2C183.116 374.2 182.266 374.41 181.606 374.83C180.946 375.23 180.416 375.78 180.016 376.48L178.396 375.28C178.596 374.88 178.866 374.49 179.206 374.11C179.546 373.73 179.966 373.4 180.466 373.12C180.966 372.82 181.536 372.59 182.176 372.43C182.816 372.25 183.526 372.16 184.306 372.16C186.126 372.16 187.566 372.62 188.626 373.54C189.706 374.46 190.246 375.74 190.246 377.38V385.9H192.406V388H190.756ZM183.616 386.35C184.236 386.35 184.796 386.28 185.296 386.14C185.816 385.98 186.266 385.78 186.646 385.54C187.026 385.28 187.316 384.98 187.516 384.64C187.736 384.28 187.846 383.9 187.846 383.5V380.95H184.546C183.106 380.95 182.056 381.15 181.396 381.55C180.736 381.95 180.406 382.53 180.406 383.29V383.92C180.406 384.72 180.686 385.33 181.246 385.75C181.826 386.15 182.616 386.35 183.616 386.35ZM203.645 388C202.465 388 201.595 387.67 201.035 387.01C200.495 386.35 200.225 385.5 200.225 384.46V374.56H195.065V372.52H198.905C199.425 372.52 199.785 372.42 199.985 372.22C200.205 372 200.315 371.63 200.315 371.11V367.06H202.625V372.52H209.675V374.56H202.625V385.96H209.675V388H203.645ZM226.733 388C225.793 388 225.123 387.76 224.723 387.28C224.323 386.8 224.073 386.2 223.973 385.48H223.823C223.483 386.38 222.933 387.09 222.173 387.61C221.433 388.11 220.433 388.36 219.173 388.36C217.553 388.36 216.263 387.94 215.303 387.1C214.343 386.26 213.863 385.11 213.863 383.65C213.863 382.21 214.383 381.1 215.423 380.32C216.483 379.54 218.183 379.15 220.523 379.15H223.823V377.62C223.823 376.48 223.503 375.63 222.863 375.07C222.223 374.49 221.313 374.2 220.133 374.2C219.093 374.2 218.243 374.41 217.583 374.83C216.923 375.23 216.393 375.78 215.993 376.48L214.373 375.28C214.573 374.88 214.843 374.49 215.183 374.11C215.523 373.73 215.943 373.4 216.443 373.12C216.943 372.82 217.513 372.59 218.153 372.43C218.793 372.25 219.503 372.16 220.283 372.16C222.103 372.16 223.543 372.62 224.603 373.54C225.683 374.46 226.223 375.74 226.223 377.38V385.9H228.383V388H226.733ZM219.593 386.35C220.213 386.35 220.773 386.28 221.273 386.14C221.793 385.98 222.243 385.78 222.623 385.54C223.003 385.28 223.293 384.98 223.493 384.64C223.713 384.28 223.823 383.9 223.823 383.5V380.95H220.523C219.083 380.95 218.033 381.15 217.373 381.55C216.713 381.95 216.383 382.53 216.383 383.29V383.92C216.383 384.72 216.663 385.33 217.223 385.75C217.803 386.15 218.593 386.35 219.593 386.35ZM249.719 376.84V374.8H263.999V376.84H249.719ZM249.719 382.84V380.8H263.999V382.84H249.719ZM267.708 376.84V374.8H281.988V376.84H267.708ZM267.708 382.84V380.8H281.988V382.84H267.708ZM304.674 372.52H307.074V375.04H307.194C308.194 373.12 309.784 372.16 311.964 372.16C313.864 372.16 315.344 372.87 316.404 374.29C317.484 375.71 318.024 377.7 318.024 380.26C318.024 382.82 317.484 384.81 316.404 386.23C315.344 387.65 313.864 388.36 311.964 388.36C309.784 388.36 308.194 387.4 307.194 385.48H307.074V394H304.674V372.52ZM311.034 386.23C312.434 386.23 313.514 385.81 314.274 384.97C315.054 384.11 315.444 382.98 315.444 381.58V378.94C315.444 377.54 315.054 376.42 314.274 375.58C313.514 374.72 312.434 374.29 311.034 374.29C310.494 374.29 309.984 374.36 309.504 374.5C309.024 374.64 308.604 374.85 308.244 375.13C307.884 375.39 307.594 375.72 307.374 376.12C307.174 376.5 307.074 376.95 307.074 377.47V383.05C307.074 383.57 307.174 384.03 307.374 384.43C307.594 384.81 307.884 385.14 308.244 385.42C308.604 385.68 309.024 385.88 309.504 386.02C309.984 386.16 310.494 386.23 311.034 386.23ZM334.663 388C333.723 388 333.053 387.76 332.653 387.28C332.253 386.8 332.003 386.2 331.903 385.48H331.753C331.413 386.38 330.863 387.09 330.103 387.61C329.363 388.11 328.363 388.36 327.103 388.36C325.483 388.36 324.193 387.94 323.233 387.1C322.273 386.26 321.792 385.11 321.792 383.65C321.792 382.21 322.313 381.1 323.353 380.32C324.413 379.54 326.113 379.15 328.453 379.15H331.753V377.62C331.753 376.48 331.433 375.63 330.793 375.07C330.153 374.49 329.243 374.2 328.063 374.2C327.023 374.2 326.173 374.41 325.513 374.83C324.853 375.23 324.323 375.78 323.923 376.48L322.303 375.28C322.503 374.88 322.773 374.49 323.113 374.11C323.453 373.73 323.873 373.4 324.373 373.12C324.873 372.82 325.443 372.59 326.083 372.43C326.723 372.25 327.433 372.16 328.213 372.16C330.033 372.16 331.473 372.62 332.533 373.54C333.613 374.46 334.153 375.74 334.153 377.38V385.9H336.313V388H334.663ZM327.522 386.35C328.143 386.35 328.703 386.28 329.203 386.14C329.723 385.98 330.173 385.78 330.553 385.54C330.933 385.28 331.223 384.98 331.423 384.64C331.643 384.28 331.753 383.9 331.753 383.5V380.95H328.453C327.013 380.95 325.963 381.15 325.303 381.55C324.643 381.95 324.313 382.53 324.313 383.29V383.92C324.313 384.72 324.593 385.33 325.153 385.75C325.733 386.15 326.523 386.35 327.522 386.35ZM340.111 385.96H344.641V374.56H340.111V372.52H347.041V376.42H347.191C347.511 375.2 348.111 374.25 348.991 373.57C349.891 372.87 351.031 372.52 352.411 372.52H354.571V374.92H351.661C350.281 374.92 349.161 375.32 348.301 376.12C347.461 376.92 347.041 377.97 347.041 379.27V385.96H353.041V388H340.111V385.96ZM370.639 388C369.699 388 369.029 387.76 368.629 387.28C368.229 386.8 367.979 386.2 367.879 385.48H367.729C367.389 386.38 366.839 387.09 366.079 387.61C365.339 388.11 364.339 388.36 363.079 388.36C361.459 388.36 360.169 387.94 359.209 387.1C358.249 386.26 357.769 385.11 357.769 383.65C357.769 382.21 358.289 381.1 359.329 380.32C360.389 379.54 362.089 379.15 364.429 379.15H367.729V377.62C367.729 376.48 367.409 375.63 366.769 375.07C366.129 374.49 365.219 374.2 364.039 374.2C362.999 374.2 362.149 374.41 361.489 374.83C360.829 375.23 360.299 375.78 359.899 376.48L358.279 375.28C358.479 374.88 358.749 374.49 359.089 374.11C359.429 373.73 359.849 373.4 360.349 373.12C360.849 372.82 361.419 372.59 362.059 372.43C362.699 372.25 363.409 372.16 364.189 372.16C366.009 372.16 367.449 372.62 368.509 373.54C369.589 374.46 370.129 375.74 370.129 377.38V385.9H372.289V388H370.639ZM363.499 386.35C364.119 386.35 364.679 386.28 365.179 386.14C365.699 385.98 366.149 385.78 366.529 385.54C366.909 385.28 367.199 384.98 367.399 384.64C367.619 384.28 367.729 383.9 367.729 383.5V380.95H364.429C362.989 380.95 361.939 381.15 361.279 381.55C360.619 381.95 360.289 382.53 360.289 383.29V383.92C360.289 384.72 360.569 385.33 361.129 385.75C361.709 386.15 362.499 386.35 363.499 386.35ZM375.397 388V372.52H377.617V374.32H377.737C377.977 373.72 378.317 373.21 378.757 372.79C379.197 372.37 379.847 372.16 380.707 372.16C381.607 372.16 382.277 372.39 382.717 372.85C383.157 373.29 383.427 373.87 383.527 374.59H383.617C383.897 373.89 384.297 373.31 384.817 372.85C385.337 372.39 386.057 372.16 386.977 372.16C388.237 372.16 389.077 372.6 389.497 373.48C389.937 374.36 390.157 375.62 390.157 377.26V388H387.937V377.65C387.937 376.33 387.797 375.42 387.517 374.92C387.257 374.4 386.767 374.14 386.047 374.14C385.407 374.14 384.887 374.35 384.487 374.77C384.087 375.17 383.887 375.79 383.887 376.63V388H381.667V377.65C381.667 376.33 381.527 375.42 381.247 374.92C380.987 374.4 380.507 374.14 379.807 374.14C379.167 374.14 378.637 374.35 378.217 374.77C377.817 375.17 377.617 375.79 377.617 376.63V388H375.397ZM400.946 388.36C399.326 388.36 397.926 388.09 396.746 387.55C395.586 386.99 394.596 386.25 393.776 385.33L395.396 383.92C396.136 384.7 396.946 385.3 397.826 385.72C398.706 386.14 399.766 386.35 401.006 386.35C402.206 386.35 403.186 386.14 403.946 385.72C404.726 385.28 405.116 384.6 405.116 383.68C405.116 383.28 405.036 382.95 404.876 382.69C404.736 382.41 404.536 382.19 404.276 382.03C404.016 381.87 403.726 381.75 403.406 381.67C403.086 381.57 402.746 381.49 402.386 381.43L399.956 381.07C399.416 380.99 398.826 380.88 398.186 380.74C397.566 380.6 396.996 380.38 396.476 380.08C395.956 379.76 395.516 379.34 395.156 378.82C394.816 378.3 394.646 377.62 394.646 376.78C394.646 376 394.796 375.33 395.096 374.77C395.416 374.19 395.856 373.71 396.416 373.33C396.976 372.93 397.636 372.64 398.396 372.46C399.156 372.26 399.986 372.16 400.886 372.16C402.286 372.16 403.496 372.38 404.516 372.82C405.556 373.26 406.446 373.87 407.186 374.65L405.626 376.12C405.446 375.9 405.216 375.68 404.936 375.46C404.676 375.22 404.346 375.01 403.946 374.83C403.566 374.63 403.116 374.47 402.596 374.35C402.076 374.23 401.476 374.17 400.796 374.17C399.576 374.17 398.636 374.38 397.976 374.8C397.336 375.22 397.016 375.83 397.016 376.63C397.016 377.03 397.086 377.37 397.226 377.65C397.386 377.91 397.596 378.12 397.856 378.28C398.116 378.44 398.406 378.57 398.726 378.67C399.066 378.75 399.406 378.82 399.746 378.88L402.176 379.24C402.736 379.32 403.326 379.43 403.946 379.57C404.566 379.71 405.136 379.94 405.656 380.26C406.176 380.56 406.606 380.97 406.946 381.49C407.306 382.01 407.486 382.69 407.486 383.53C407.486 385.07 406.886 386.26 405.686 387.1C404.506 387.94 402.926 388.36 400.946 388.36ZM418.124 388.33C416.464 388.23 415.084 387.85 413.984 387.19C412.884 386.51 411.974 385.67 411.254 384.67L413.084 383.17C413.804 384.07 414.564 384.77 415.364 385.27C416.164 385.77 417.094 386.07 418.154 386.17V378.34L417.464 378.22C416.424 378.04 415.554 377.77 414.854 377.41C414.154 377.03 413.594 376.59 413.174 376.09C412.754 375.57 412.454 375 412.274 374.38C412.094 373.74 412.004 373.08 412.004 372.4C412.004 370.7 412.544 369.37 413.624 368.41C414.724 367.43 416.224 366.87 418.124 366.73V363.67H419.984V366.73C421.364 366.83 422.554 367.17 423.554 367.75C424.574 368.31 425.464 369.1 426.224 370.12L424.334 371.47C423.794 370.75 423.174 370.17 422.474 369.73C421.794 369.29 420.954 369.02 419.954 368.92V376.27L420.854 376.42C421.874 376.6 422.734 376.87 423.434 377.23C424.134 377.59 424.694 378.03 425.114 378.55C425.554 379.05 425.864 379.62 426.044 380.26C426.224 380.9 426.314 381.57 426.314 382.27C426.314 384.03 425.764 385.44 424.664 386.5C423.584 387.56 422.024 388.17 419.984 388.33V391.39H418.124V388.33ZM414.434 372.4C414.434 373.38 414.714 374.15 415.274 374.71C415.854 375.27 416.814 375.69 418.154 375.97V368.89C416.954 369.01 416.034 369.37 415.394 369.97C414.754 370.55 414.434 371.36 414.434 372.4ZM423.884 382.3C423.884 381.22 423.574 380.4 422.954 379.84C422.354 379.28 421.354 378.88 419.954 378.64V386.14C421.214 386 422.184 385.6 422.864 384.94C423.544 384.28 423.884 383.4 423.884 382.3ZM430.142 385.96H435.542V367.84H430.142V365.8H437.942V385.96H443.342V388H430.142V385.96ZM454.73 388.36C453.65 388.36 452.67 388.17 451.79 387.79C450.93 387.41 450.19 386.87 449.57 386.17C448.97 385.45 448.51 384.6 448.19 383.62C447.87 382.62 447.71 381.5 447.71 380.26C447.71 379.04 447.87 377.93 448.19 376.93C448.51 375.93 448.97 375.08 449.57 374.38C450.19 373.66 450.93 373.11 451.79 372.73C452.67 372.35 453.65 372.16 454.73 372.16C455.81 372.16 456.78 372.35 457.64 372.73C458.52 373.11 459.26 373.66 459.86 374.38C460.48 375.08 460.95 375.93 461.27 376.93C461.59 377.93 461.75 379.04 461.75 380.26C461.75 381.5 461.59 382.62 461.27 383.62C460.95 384.6 460.48 385.45 459.86 386.17C459.26 386.87 458.52 387.41 457.64 387.79C456.78 388.17 455.81 388.36 454.73 388.36ZM454.73 386.29C456.07 386.29 457.15 385.89 457.97 385.09C458.79 384.29 459.2 383.05 459.2 381.37V379.15C459.2 377.47 458.79 376.23 457.97 375.43C457.15 374.63 456.07 374.23 454.73 374.23C453.39 374.23 452.31 374.63 451.49 375.43C450.67 376.23 450.26 377.47 450.26 379.15V381.37C450.26 383.05 450.67 384.29 451.49 385.09C452.31 385.89 453.39 386.29 454.73 386.29ZM473.259 388.36C472.139 388.36 471.139 388.17 470.259 387.79C469.399 387.39 468.669 386.84 468.069 386.14C467.469 385.44 467.009 384.59 466.689 383.59C466.389 382.59 466.239 381.48 466.239 380.26C466.239 379.04 466.399 377.93 466.719 376.93C467.039 375.93 467.499 375.08 468.099 374.38C468.699 373.66 469.429 373.11 470.289 372.73C471.149 372.35 472.129 372.16 473.229 372.16C474.729 372.16 475.949 372.49 476.889 373.15C477.829 373.81 478.519 374.67 478.959 375.73L477.039 376.75C476.759 375.95 476.289 375.33 475.629 374.89C474.989 374.45 474.189 374.23 473.229 374.23C472.529 374.23 471.899 374.35 471.339 374.59C470.799 374.81 470.339 375.13 469.959 375.55C469.579 375.97 469.289 376.47 469.089 377.05C468.909 377.63 468.819 378.26 468.819 378.94V381.58C468.819 382.26 468.909 382.89 469.089 383.47C469.289 384.05 469.579 384.55 469.959 384.97C470.339 385.39 470.809 385.72 471.369 385.96C471.929 386.18 472.569 386.29 473.289 386.29C474.329 386.29 475.189 386.05 475.869 385.57C476.549 385.09 477.089 384.43 477.489 383.59L479.199 384.76C478.739 385.8 478.019 386.66 477.039 387.34C476.079 388.02 474.819 388.36 473.259 388.36ZM496.557 388C495.617 388 494.947 387.76 494.547 387.28C494.147 386.8 493.897 386.2 493.797 385.48H493.647C493.307 386.38 492.757 387.09 491.997 387.61C491.257 388.11 490.257 388.36 488.997 388.36C487.377 388.36 486.087 387.94 485.127 387.1C484.167 386.26 483.687 385.11 483.687 383.65C483.687 382.21 484.207 381.1 485.247 380.32C486.307 379.54 488.007 379.15 490.347 379.15H493.647V377.62C493.647 376.48 493.327 375.63 492.687 375.07C492.047 374.49 491.137 374.2 489.957 374.2C488.917 374.2 488.067 374.41 487.407 374.83C486.747 375.23 486.217 375.78 485.817 376.48L484.197 375.28C484.397 374.88 484.667 374.49 485.007 374.11C485.347 373.73 485.767 373.4 486.267 373.12C486.767 372.82 487.337 372.59 487.977 372.43C488.617 372.25 489.327 372.16 490.107 372.16C491.927 372.16 493.367 372.62 494.427 373.54C495.507 374.46 496.047 375.74 496.047 377.38V385.9H498.207V388H496.557ZM489.417 386.35C490.037 386.35 490.597 386.28 491.097 386.14C491.617 385.98 492.067 385.78 492.447 385.54C492.827 385.28 493.117 384.98 493.317 384.64C493.537 384.28 493.647 383.9 493.647 383.5V380.95H490.347C488.907 380.95 487.857 381.15 487.197 381.55C486.537 381.95 486.207 382.53 486.207 383.29V383.92C486.207 384.72 486.487 385.33 487.047 385.75C487.627 386.15 488.417 386.35 489.417 386.35ZM509.445 388C508.265 388 507.395 387.67 506.835 387.01C506.295 386.35 506.025 385.5 506.025 384.46V374.56H500.865V372.52H504.705C505.225 372.52 505.585 372.42 505.785 372.22C506.005 372 506.115 371.63 506.115 371.11V367.06H508.425V372.52H515.475V374.56H508.425V385.96H515.475V388H509.445ZM527.644 369.1C526.944 369.1 526.454 368.96 526.174 368.68C525.894 368.38 525.754 368.01 525.754 367.57V367.09C525.754 366.65 525.894 366.29 526.174 366.01C526.454 365.71 526.944 365.56 527.644 365.56C528.344 365.56 528.834 365.71 529.114 366.01C529.394 366.29 529.534 366.65 529.534 367.09V367.57C529.534 368.01 529.394 368.38 529.114 368.68C528.834 368.96 528.344 369.1 527.644 369.1ZM520.864 385.96H526.444V374.56H520.864V372.52H528.844V385.96H534.064V388H520.864V385.96ZM544.672 388.36C543.592 388.36 542.612 388.17 541.732 387.79C540.872 387.41 540.132 386.87 539.512 386.17C538.912 385.45 538.452 384.6 538.132 383.62C537.812 382.62 537.652 381.5 537.652 380.26C537.652 379.04 537.812 377.93 538.132 376.93C538.452 375.93 538.912 375.08 539.512 374.38C540.132 373.66 540.872 373.11 541.732 372.73C542.612 372.35 543.592 372.16 544.672 372.16C545.752 372.16 546.722 372.35 547.582 372.73C548.462 373.11 549.202 373.66 549.802 374.38C550.422 375.08 550.892 375.93 551.212 376.93C551.532 377.93 551.692 379.04 551.692 380.26C551.692 381.5 551.532 382.62 551.212 383.62C550.892 384.6 550.422 385.45 549.802 386.17C549.202 386.87 548.462 387.41 547.582 387.79C546.722 388.17 545.752 388.36 544.672 388.36ZM544.672 386.29C546.012 386.29 547.092 385.89 547.912 385.09C548.732 384.29 549.142 383.05 549.142 381.37V379.15C549.142 377.47 548.732 376.23 547.912 375.43C547.092 374.63 546.012 374.23 544.672 374.23C543.332 374.23 542.252 374.63 541.432 375.43C540.612 376.23 540.202 377.47 540.202 379.15V381.37C540.202 383.05 540.612 384.29 541.432 385.09C542.252 385.89 543.332 386.29 544.672 386.29ZM556.6 388V372.52H559V375.04H559.12C559.28 374.66 559.48 374.3 559.72 373.96C559.96 373.6 560.25 373.29 560.59 373.03C560.95 372.77 561.37 372.56 561.85 372.4C562.33 372.24 562.89 372.16 563.53 372.16C565.15 372.16 566.45 372.68 567.43 373.72C568.41 374.74 568.9 376.19 568.9 378.07V388H566.5V378.49C566.5 377.07 566.19 376.02 565.57 375.34C564.95 374.64 564.04 374.29 562.84 374.29C562.36 374.29 561.89 374.35 561.43 374.47C560.97 374.59 560.56 374.77 560.2 375.01C559.84 375.25 559.55 375.56 559.33 375.94C559.11 376.32 559 376.76 559 377.26V388H556.6ZM583.498 378.67C583.498 380.13 583.328 381.54 582.988 382.9C582.668 384.24 582.218 385.49 581.638 386.65C581.078 387.81 580.418 388.86 579.658 389.8C578.898 390.74 578.098 391.52 577.258 392.14H574.828C575.688 391.48 576.508 390.71 577.288 389.83C578.068 388.97 578.748 388.03 579.328 387.01C579.928 385.97 580.398 384.86 580.738 383.68C581.078 382.48 581.248 381.24 581.248 379.96V377.38C581.248 376.1 581.078 374.87 580.738 373.69C580.398 372.49 579.928 371.38 579.328 370.36C578.748 369.32 578.068 368.37 577.288 367.51C576.508 366.63 575.688 365.86 574.828 365.2H577.258C578.098 365.84 578.898 366.63 579.658 367.57C580.418 368.49 581.078 369.53 581.638 370.69C582.218 371.85 582.668 373.11 582.988 374.47C583.328 375.81 583.498 377.21 583.498 378.67Z" fill="black"/>
</svg>
