<svg width="1234" height="777" viewBox="0 0 1234 777" fill="none" xmlns="http://www.w3.org/2000/svg">
<rect width="600" height="776.471" fill="#D9D9D9"/>
<path d="M334.492 751V723.727H336.605V727.989H336.8C337.392 726.592 338.393 725.473 339.801 724.633C341.21 723.781 342.814 723.354 344.613 723.354C344.802 723.354 344.992 723.354 345.181 723.354C345.371 723.354 345.548 723.36 345.714 723.372V725.556C345.572 725.544 345.4 725.527 345.199 725.503C345.009 725.467 344.773 725.45 344.489 725.45C342.973 725.45 341.624 725.775 340.44 726.426C339.268 727.077 338.345 727.977 337.67 729.125C336.996 730.261 336.658 731.563 336.658 733.031V751H334.492ZM361.339 751.568C358.877 751.568 356.734 750.959 354.911 749.739C353.088 748.52 351.68 746.851 350.685 744.732C349.691 742.613 349.194 740.199 349.194 737.488C349.194 734.765 349.691 732.339 350.685 730.208C351.692 728.077 353.071 726.397 354.822 725.165C356.574 723.934 358.575 723.319 360.824 723.319C362.351 723.319 363.795 723.627 365.156 724.242C366.529 724.846 367.737 725.722 368.778 726.87C369.832 728.018 370.655 729.403 371.246 731.025C371.85 732.647 372.152 734.469 372.152 736.494V737.843H350.561V735.872H369.986C369.986 733.895 369.583 732.114 368.778 730.528C367.973 728.942 366.879 727.681 365.494 726.746C364.109 725.811 362.552 725.343 360.824 725.343C359.013 725.343 357.397 725.852 355.977 726.87C354.568 727.876 353.449 729.237 352.621 730.954C351.804 732.67 351.378 734.588 351.342 736.707V737.594C351.342 739.867 351.739 741.909 352.532 743.72C353.337 745.519 354.485 746.946 355.977 747.999C357.468 749.041 359.255 749.562 361.339 749.562C362.83 749.562 364.103 749.313 365.156 748.816C366.222 748.307 367.092 747.692 367.766 746.969C368.441 746.247 368.95 745.549 369.293 744.874L371.264 745.673C370.85 746.585 370.205 747.496 369.329 748.408C368.465 749.307 367.364 750.059 366.026 750.663C364.701 751.266 363.138 751.568 361.339 751.568ZM379.609 761.227V723.727H381.722V729.817H381.989C382.415 728.646 383.013 727.568 383.782 726.586C384.563 725.603 385.528 724.816 386.676 724.224C387.836 723.621 389.197 723.319 390.76 723.319C392.962 723.319 394.879 723.923 396.513 725.13C398.146 726.337 399.413 728.006 400.312 730.137C401.212 732.256 401.662 734.688 401.662 737.435C401.662 740.181 401.206 742.619 400.295 744.75C399.395 746.869 398.129 748.538 396.495 749.757C394.873 750.964 392.973 751.568 390.795 751.568C389.245 751.568 387.884 751.272 386.712 750.68C385.552 750.089 384.575 749.301 383.782 748.319C383.001 747.325 382.403 746.236 381.989 745.052H381.776V761.227H379.609ZM381.74 737.417C381.74 739.737 382.095 741.814 382.805 743.649C383.516 745.472 384.534 746.916 385.859 747.982C387.185 749.035 388.765 749.562 390.6 749.562C392.459 749.562 394.051 749.029 395.376 747.964C396.714 746.887 397.732 745.431 398.43 743.596C399.141 741.761 399.496 739.701 399.496 737.417C399.496 735.132 399.147 733.079 398.448 731.256C397.75 729.433 396.738 727.995 395.412 726.941C394.086 725.876 392.482 725.343 390.6 725.343C388.742 725.343 387.15 725.87 385.824 726.923C384.51 727.965 383.498 729.397 382.788 731.22C382.089 733.031 381.74 735.097 381.74 737.417ZM419.289 751.568C417.04 751.568 415.039 750.964 413.287 749.757C411.536 748.538 410.157 746.863 409.15 744.732C408.144 742.602 407.641 740.175 407.641 737.452C407.641 734.718 408.144 732.291 409.15 730.173C410.157 728.042 411.536 726.367 413.287 725.148C415.039 723.929 417.04 723.319 419.289 723.319C421.538 723.319 423.538 723.929 425.29 725.148C427.042 726.367 428.421 728.042 429.427 730.173C430.434 732.303 430.937 734.73 430.937 737.452C430.937 740.175 430.434 742.602 429.427 744.732C428.421 746.863 427.042 748.538 425.29 749.757C423.538 750.964 421.538 751.568 419.289 751.568ZM419.289 749.562C421.195 749.562 422.858 749.023 424.278 747.946C425.711 746.869 426.817 745.413 427.599 743.578C428.392 741.743 428.788 739.701 428.788 737.452C428.788 735.203 428.392 733.167 427.599 731.344C426.805 729.51 425.699 728.054 424.278 726.977C422.858 725.888 421.195 725.343 419.289 725.343C417.383 725.343 415.72 725.888 414.3 726.977C412.879 728.054 411.772 729.51 410.979 731.344C410.186 733.167 409.79 735.203 409.79 737.452C409.79 739.701 410.18 741.743 410.961 743.578C411.755 745.413 412.861 746.869 414.282 747.946C415.714 749.023 417.383 749.562 419.289 749.562ZM438.398 751V723.727H440.511V727.989H440.707C441.299 726.592 442.299 725.473 443.707 724.633C445.116 723.781 446.72 723.354 448.519 723.354C448.709 723.354 448.898 723.354 449.087 723.354C449.277 723.354 449.454 723.36 449.62 723.372V725.556C449.478 725.544 449.306 725.527 449.105 725.503C448.916 725.467 448.679 725.45 448.395 725.45C446.88 725.45 445.53 725.775 444.347 726.426C443.175 727.077 442.251 727.977 441.577 729.125C440.902 730.261 440.565 731.563 440.565 733.031V751H438.398ZM466.79 723.727V725.663H454.876V723.727H466.79ZM458.906 717.193H461.055V744.555C461.055 745.667 461.268 746.579 461.694 747.289C462.132 747.987 462.7 748.508 463.398 748.852C464.109 749.183 464.866 749.349 465.671 749.349C466.062 749.349 466.399 749.319 466.683 749.26C466.979 749.201 467.257 749.124 467.518 749.029L468.05 751C467.719 751.118 467.352 751.219 466.95 751.302C466.547 751.397 466.074 751.444 465.529 751.444C464.393 751.444 463.316 751.189 462.298 750.68C461.291 750.171 460.475 749.432 459.847 748.461C459.22 747.49 458.906 746.318 458.906 744.945V717.193ZM476.848 751.231C476.316 751.231 475.86 751.047 475.481 750.68C475.114 750.302 474.931 749.846 474.931 749.313C474.931 748.792 475.114 748.343 475.481 747.964C475.86 747.585 476.316 747.396 476.848 747.396C477.369 747.396 477.819 747.585 478.198 747.964C478.577 748.343 478.766 748.792 478.766 749.313C478.766 749.668 478.677 749.994 478.5 750.29C478.334 750.574 478.103 750.805 477.807 750.982C477.523 751.148 477.203 751.231 476.848 751.231ZM506.238 761.227V745.052H506.025C505.611 746.236 505.007 747.325 504.214 748.319C503.421 749.301 502.445 750.089 501.285 750.68C500.125 751.272 498.769 751.568 497.219 751.568C495.041 751.568 493.135 750.964 491.501 749.757C489.88 748.538 488.613 746.869 487.702 744.75C486.802 742.619 486.352 740.181 486.352 737.435C486.352 734.688 486.802 732.256 487.702 730.137C488.601 728.006 489.868 726.337 491.501 725.13C493.135 723.923 495.046 723.319 497.236 723.319C498.811 723.319 500.172 723.621 501.32 724.224C502.468 724.816 503.433 725.603 504.214 726.586C504.996 727.568 505.599 728.646 506.025 729.817H506.292V723.727H508.387V761.227H506.238ZM497.414 749.562C499.249 749.562 500.823 749.035 502.137 747.982C503.463 746.916 504.481 745.472 505.191 743.649C505.901 741.814 506.256 739.737 506.256 737.417C506.256 735.097 505.907 733.031 505.209 731.22C504.51 729.397 503.498 727.965 502.172 726.923C500.847 725.87 499.26 725.343 497.414 725.343C495.532 725.343 493.928 725.876 492.602 726.941C491.276 727.995 490.258 729.433 489.548 731.256C488.85 733.079 488.501 735.132 488.501 737.417C488.501 739.701 488.856 741.761 489.566 743.596C490.276 745.431 491.294 746.887 492.62 747.964C493.946 749.029 495.544 749.562 497.414 749.562ZM517.402 751V723.727H519.515V727.847H519.728C520.249 726.473 521.149 725.384 522.427 724.58C523.706 723.775 525.244 723.372 527.044 723.372C529.02 723.372 530.613 723.846 531.82 724.793C533.039 725.74 533.915 727.024 534.448 728.646H534.643C535.176 727.048 536.129 725.769 537.502 724.81C538.887 723.852 540.591 723.372 542.615 723.372C545.255 723.372 547.267 724.207 548.652 725.876C550.049 727.533 550.748 729.806 550.748 732.694V751H548.581V732.694C548.581 730.421 548.037 728.634 546.948 727.332C545.859 726.03 544.261 725.379 542.154 725.379C539.905 725.379 538.176 726.083 536.969 727.491C535.762 728.9 535.158 730.693 535.158 732.871V751H532.992V732.552C532.992 730.433 532.459 728.711 531.394 727.385C530.328 726.047 528.73 725.379 526.6 725.379C525.156 725.379 523.907 725.71 522.853 726.373C521.812 727.036 521.001 727.947 520.421 729.107C519.853 730.267 519.569 731.599 519.569 733.102V751H517.402ZM569.094 751.568C566.904 751.568 564.992 750.964 563.358 749.757C561.725 748.55 560.458 746.887 559.559 744.768C558.671 742.637 558.227 740.193 558.227 737.435C558.227 734.7 558.677 732.274 559.577 730.155C560.488 728.024 561.76 726.355 563.394 725.148C565.028 723.929 566.933 723.319 569.111 723.319C570.674 723.319 572.029 723.621 573.177 724.224C574.337 724.816 575.308 725.603 576.089 726.586C576.882 727.568 577.486 728.646 577.9 729.817H578.113V714.636H580.262V751H578.167V745.052H577.9C577.462 746.224 576.853 747.307 576.072 748.301C575.29 749.284 574.32 750.077 573.16 750.68C572 751.272 570.644 751.568 569.094 751.568ZM569.289 749.562C571.135 749.562 572.716 749.035 574.03 747.982C575.355 746.916 576.367 745.472 577.066 743.649C577.776 741.814 578.131 739.737 578.131 737.417C578.131 735.097 577.776 733.031 577.066 731.22C576.367 729.397 575.355 727.965 574.03 726.923C572.716 725.87 571.135 725.343 569.289 725.343C567.419 725.343 565.815 725.876 564.477 726.941C563.151 727.995 562.133 729.433 561.423 731.256C560.725 733.079 560.376 735.132 560.376 737.417C560.376 739.701 560.725 741.761 561.423 743.596C562.133 745.431 563.151 746.887 564.477 747.964C565.815 749.029 567.419 749.562 569.289 749.562Z" fill="#404E6B"/>
<path d="M36.6 61.52V60.12H47.4V61.52H36.6ZM60.5844 61.52V60.12H71.3844V61.52H60.5844ZM84.5688 61.52V60.12H95.3688V61.52H84.5688Z" fill="black"/>
<path d="M36.6 174.52V173.12H47.4V174.52H36.6ZM60.5844 174.52V173.12H71.3844V174.52H60.5844ZM84.5688 174.52V173.12H95.3688V174.52H84.5688Z" fill="black"/>
<path d="M37.92 314.08L39.2 313.4L43.4 319.72L42.44 320.24L37.92 314.08ZM61.9044 314.08L63.1844 313.4L67.3844 319.72L66.4244 320.24L61.9044 314.08ZM85.8888 314.08L87.1688 313.4L91.3688 319.72L90.4088 320.24L85.8888 314.08ZM113.953 349.52C112.833 349.52 112.273 348.96 112.273 347.84V344C112.273 343.227 112.34 342.56 112.473 342C112.633 341.44 112.806 340.96 112.993 340.56C113.206 340.133 113.42 339.773 113.633 339.48C113.873 339.187 114.073 338.933 114.233 338.72C114.846 337.973 115.246 337.387 115.433 336.96C115.62 336.533 115.713 336.093 115.713 335.64C115.713 334.44 115.166 333.56 114.073 333C112.98 332.413 111.393 332.12 109.313 332.12H106.473V331H109.313C111.393 331 112.98 330.72 114.073 330.16C115.166 329.573 115.713 328.68 115.713 327.48C115.713 327.027 115.62 326.587 115.433 326.16C115.246 325.733 114.846 325.147 114.233 324.4C114.073 324.187 113.873 323.933 113.633 323.64C113.42 323.347 113.206 323 112.993 322.6C112.806 322.173 112.633 321.68 112.473 321.12C112.34 320.56 112.273 319.893 112.273 319.12V315.28C112.273 314.16 112.833 313.6 113.953 313.6H121.433V314.72H113.553V319.08C113.553 319.8 113.606 320.413 113.713 320.92C113.846 321.427 113.993 321.867 114.153 322.24C114.313 322.587 114.486 322.893 114.673 323.16C114.886 323.4 115.073 323.613 115.233 323.8C115.846 324.573 116.286 325.24 116.553 325.8C116.846 326.333 116.993 326.907 116.993 327.52C116.993 328.72 116.553 329.653 115.673 330.32C114.793 330.987 113.673 331.387 112.313 331.52V331.6C113.673 331.733 114.793 332.133 115.673 332.8C116.553 333.467 116.993 334.4 116.993 335.6C116.993 336.213 116.846 336.8 116.553 337.36C116.286 337.893 115.846 338.547 115.233 339.32C115.073 339.533 114.886 339.76 114.673 340C114.486 340.24 114.313 340.547 114.153 340.92C113.993 341.267 113.846 341.693 113.713 342.2C113.606 342.707 113.553 343.32 113.553 344.04V348.4H121.433V349.52H113.953ZM129.098 342.76H135.978V324.6H129.098V323.36H137.378V327.64H137.498C137.738 327.053 138.018 326.507 138.338 326C138.684 325.467 139.111 325.013 139.618 324.64C140.151 324.24 140.778 323.933 141.498 323.72C142.218 323.48 143.058 323.36 144.018 323.36H148.218V324.68H143.658C142.778 324.68 141.951 324.827 141.178 325.12C140.431 325.387 139.778 325.787 139.218 326.32C138.658 326.853 138.204 327.533 137.858 328.36C137.538 329.16 137.378 330.08 137.378 331.12V342.76H146.178V344H129.098V342.76ZM161.922 313.6C163.042 313.6 163.602 314.16 163.602 315.28V319.12C163.602 319.893 163.522 320.56 163.362 321.12C163.229 321.68 163.055 322.173 162.842 322.6C162.655 323 162.442 323.347 162.202 323.64C161.989 323.933 161.802 324.187 161.642 324.4C161.029 325.147 160.629 325.733 160.442 326.16C160.255 326.587 160.162 327.027 160.162 327.48C160.162 328.68 160.709 329.573 161.802 330.16C162.895 330.72 164.482 331 166.562 331H169.402V332.12H166.562C164.482 332.12 162.895 332.413 161.802 333C160.709 333.56 160.162 334.44 160.162 335.64C160.162 336.093 160.255 336.533 160.442 336.96C160.629 337.387 161.029 337.973 161.642 338.72C161.802 338.933 161.989 339.187 162.202 339.48C162.442 339.773 162.655 340.133 162.842 340.56C163.055 340.96 163.229 341.44 163.362 342C163.522 342.56 163.602 343.227 163.602 344V347.84C163.602 348.96 163.042 349.52 161.922 349.52H154.442V348.4H162.322V344.04C162.322 343.32 162.255 342.707 162.122 342.2C162.015 341.693 161.882 341.267 161.722 340.92C161.562 340.547 161.375 340.24 161.162 340C160.975 339.76 160.802 339.533 160.642 339.32C160.029 338.547 159.575 337.893 159.282 337.36C159.015 336.8 158.882 336.213 158.882 335.6C158.882 334.4 159.322 333.467 160.202 332.8C161.082 332.133 162.202 331.733 163.562 331.6V331.52C162.202 331.387 161.082 330.987 160.202 330.32C159.322 329.653 158.882 328.72 158.882 327.52C158.882 326.907 159.015 326.333 159.282 325.8C159.575 325.24 160.029 324.573 160.642 323.8C160.802 323.613 160.975 323.4 161.162 323.16C161.375 322.893 161.562 322.587 161.722 322.24C161.882 321.867 162.015 321.427 162.122 320.92C162.255 320.413 162.322 319.8 162.322 319.08V314.72H154.442V313.6H161.922ZM37.92 418.08L39.2 417.4L43.4 423.72L42.44 424.24L37.92 418.08ZM61.9044 418.08L63.1844 417.4L67.3844 423.72L66.4244 424.24L61.9044 418.08ZM85.8888 418.08L87.1688 417.4L91.3688 423.72L90.4088 424.24L85.8888 418.08Z" fill="black"/>
<rect x="242" y="117" width="104" height="39" fill="#FF7400"/>
<path d="M35.54 93.52H36.59V95.89H36.68C37.04 95.17 37.62 94.54 38.42 94C39.22 93.44 40.25 93.16 41.51 93.16C43.47 93.16 45 93.84 46.1 95.2C47.2 96.56 47.75 98.58 47.75 101.26C47.75 103.94 47.2 105.96 46.1 107.32C45 108.68 43.47 109.36 41.51 109.36C40.25 109.36 39.22 109.09 38.42 108.55C37.62 107.99 37.04 107.35 36.68 106.63H36.59V115H35.54V93.52ZM41.27 108.43C42.99 108.43 44.31 107.87 45.23 106.75C46.15 105.61 46.61 104.07 46.61 102.13V100.39C46.61 98.45 46.15 96.92 45.23 95.8C44.31 94.66 42.99 94.09 41.27 94.09C40.65 94.09 40.06 94.18 39.5 94.36C38.94 94.54 38.44 94.8 38 95.14C37.58 95.48 37.24 95.89 36.98 96.37C36.72 96.85 36.59 97.38 36.59 97.96V104.56C36.59 105.14 36.72 105.67 36.98 106.15C37.24 106.63 37.58 107.04 38 107.38C38.44 107.72 38.94 107.98 39.5 108.16C40.06 108.34 40.65 108.43 41.27 108.43ZM63.9083 109C63.4483 109 63.1183 108.89 62.9183 108.67C62.7183 108.45 62.6083 108.14 62.5883 107.74V106.63H62.4683C62.1083 107.39 61.5283 108.04 60.7283 108.58C59.9283 109.1 58.8283 109.36 57.4283 109.36C55.7683 109.36 54.4883 108.98 53.5883 108.22C52.6883 107.46 52.2383 106.38 52.2383 104.98C52.2383 104.34 52.3383 103.75 52.5383 103.21C52.7383 102.67 53.0783 102.21 53.5583 101.83C54.0383 101.43 54.6683 101.13 55.4483 100.93C56.2283 100.71 57.1883 100.6 58.3283 100.6H62.5583V98.38C62.5583 96.92 62.1683 95.84 61.3883 95.14C60.6283 94.44 59.5783 94.09 58.2383 94.09C57.1583 94.09 56.2083 94.32 55.3883 94.78C54.5683 95.22 53.9483 95.92 53.5283 96.88L52.7483 96.37C53.1683 95.41 53.8283 94.64 54.7283 94.06C55.6483 93.46 56.8283 93.16 58.2683 93.16C59.9483 93.16 61.2583 93.61 62.1983 94.51C63.1383 95.39 63.6083 96.64 63.6083 98.26V108.07H66.0683V109H63.9083ZM57.5183 108.46C58.1983 108.46 58.8383 108.38 59.4383 108.22C60.0583 108.04 60.5983 107.79 61.0583 107.47C61.5183 107.13 61.8783 106.72 62.1383 106.24C62.4183 105.76 62.5583 105.2 62.5583 104.56V101.44H58.3583C56.5783 101.44 55.2983 101.73 54.5183 102.31C53.7583 102.87 53.3783 103.61 53.3783 104.53V105.43C53.3783 106.41 53.7583 107.16 54.5183 107.68C55.2783 108.2 56.2783 108.46 57.5183 108.46ZM70.3466 108.07H75.5066V94.45H70.3466V93.52H76.5566V96.73H76.6466C76.8266 96.29 77.0366 95.88 77.2766 95.5C77.5366 95.1 77.8566 94.76 78.2366 94.48C78.6366 94.18 79.1066 93.95 79.6466 93.79C80.1866 93.61 80.8166 93.52 81.5366 93.52H84.6866V94.51H81.2666C80.6066 94.51 79.9866 94.62 79.4066 94.84C78.8466 95.04 78.3566 95.34 77.9366 95.74C77.5166 96.14 77.1766 96.65 76.9166 97.27C76.6766 97.87 76.5566 98.56 76.5566 99.34V108.07H83.1566V109H70.3466V108.07ZM99.8848 109C99.4248 109 99.0948 108.89 98.8948 108.67C98.6948 108.45 98.5848 108.14 98.5648 107.74V106.63H98.4448C98.0848 107.39 97.5048 108.04 96.7048 108.58C95.9048 109.1 94.8048 109.36 93.4048 109.36C91.7448 109.36 90.4648 108.98 89.5648 108.22C88.6648 107.46 88.2148 106.38 88.2148 104.98C88.2148 104.34 88.3148 103.75 88.5148 103.21C88.7148 102.67 89.0548 102.21 89.5348 101.83C90.0148 101.43 90.6448 101.13 91.4248 100.93C92.2048 100.71 93.1648 100.6 94.3048 100.6H98.5348V98.38C98.5348 96.92 98.1448 95.84 97.3648 95.14C96.6048 94.44 95.5548 94.09 94.2148 94.09C93.1348 94.09 92.1848 94.32 91.3648 94.78C90.5448 95.22 89.9248 95.92 89.5048 96.88L88.7248 96.37C89.1448 95.41 89.8048 94.64 90.7048 94.06C91.6248 93.46 92.8048 93.16 94.2448 93.16C95.9248 93.16 97.2348 93.61 98.1748 94.51C99.1148 95.39 99.5848 96.64 99.5848 98.26V108.07H102.045V109H99.8848ZM93.4948 108.46C94.1748 108.46 94.8148 108.38 95.4148 108.22C96.0348 108.04 96.5748 107.79 97.0348 107.47C97.4948 107.13 97.8548 106.72 98.1148 106.24C98.3948 105.76 98.5348 105.2 98.5348 104.56V101.44H94.3348C92.5548 101.44 91.2748 101.73 90.4948 102.31C89.7348 102.87 89.3548 103.61 89.3548 104.53V105.43C89.3548 106.41 89.7348 107.16 90.4948 107.68C91.2548 108.2 92.2548 108.46 93.4948 108.46ZM106.023 109V93.52H107.013V95.35H107.103C107.343 94.71 107.703 94.19 108.183 93.79C108.683 93.37 109.373 93.16 110.253 93.16C111.113 93.16 111.793 93.38 112.293 93.82C112.793 94.24 113.123 94.84 113.283 95.62H113.343C113.583 94.92 113.963 94.34 114.483 93.88C115.023 93.4 115.763 93.16 116.703 93.16C117.823 93.16 118.633 93.52 119.133 94.24C119.653 94.94 119.913 95.96 119.913 97.3V109H118.923V97.45C118.923 96.25 118.713 95.39 118.293 94.87C117.893 94.33 117.273 94.06 116.433 94.06C115.613 94.06 114.913 94.35 114.333 94.93C113.753 95.49 113.463 96.35 113.463 97.51V109H112.473V97.45C112.473 96.25 112.263 95.39 111.843 94.87C111.443 94.33 110.823 94.06 109.983 94.06C109.183 94.06 108.483 94.35 107.883 94.93C107.303 95.49 107.013 96.35 107.013 97.51V109H106.023ZM131.391 109.36C129.891 109.36 128.571 109.11 127.431 108.61C126.311 108.09 125.331 107.32 124.491 106.3L125.241 105.67C126.021 106.63 126.901 107.34 127.881 107.8C128.881 108.24 130.051 108.46 131.391 108.46C132.911 108.46 134.131 108.17 135.051 107.59C135.991 106.99 136.461 106.07 136.461 104.83C136.461 104.29 136.371 103.84 136.191 103.48C136.011 103.12 135.751 102.83 135.411 102.61C135.071 102.37 134.661 102.19 134.181 102.07C133.701 101.93 133.171 101.82 132.591 101.74L130.191 101.41C129.531 101.31 128.901 101.19 128.301 101.05C127.701 100.89 127.171 100.66 126.711 100.36C126.271 100.06 125.911 99.68 125.631 99.22C125.371 98.74 125.241 98.14 125.241 97.42C125.241 96.66 125.391 96.01 125.691 95.47C125.991 94.93 126.391 94.49 126.891 94.15C127.411 93.81 128.011 93.56 128.691 93.4C129.391 93.24 130.131 93.16 130.911 93.16C131.651 93.16 132.321 93.23 132.921 93.37C133.541 93.49 134.091 93.67 134.571 93.91C135.071 94.13 135.511 94.39 135.891 94.69C136.291 94.97 136.641 95.27 136.941 95.59L136.221 96.31C135.981 96.03 135.701 95.76 135.381 95.5C135.061 95.22 134.681 94.98 134.241 94.78C133.821 94.56 133.331 94.39 132.771 94.27C132.231 94.13 131.601 94.06 130.881 94.06C129.481 94.06 128.361 94.33 127.521 94.87C126.701 95.39 126.291 96.22 126.291 97.36C126.291 97.9 126.381 98.35 126.561 98.71C126.741 99.05 127.001 99.34 127.341 99.58C127.681 99.8 128.091 99.98 128.571 100.12C129.051 100.24 129.581 100.34 130.161 100.42L132.591 100.78C133.251 100.88 133.871 101.01 134.451 101.17C135.051 101.31 135.571 101.53 136.011 101.83C136.471 102.11 136.831 102.49 137.091 102.97C137.371 103.45 137.511 104.05 137.511 104.77C137.511 105.55 137.351 106.23 137.031 106.81C136.731 107.39 136.311 107.87 135.771 108.25C135.231 108.61 134.581 108.88 133.821 109.06C133.081 109.26 132.271 109.36 131.391 109.36ZM148.93 109.18C148.47 109.18 148.14 109.09 147.94 108.91C147.74 108.71 147.64 108.45 147.64 108.13V107.83C147.64 107.51 147.74 107.26 147.94 107.08C148.14 106.88 148.47 106.78 148.93 106.78C149.39 106.78 149.72 106.88 149.92 107.08C150.12 107.26 150.22 107.51 150.22 107.83V108.13C150.22 108.45 150.12 108.71 149.92 108.91C149.72 109.09 149.39 109.18 148.93 109.18ZM148.93 95.74C148.47 95.74 148.14 95.65 147.94 95.47C147.74 95.27 147.64 95.01 147.64 94.69V94.39C147.64 94.07 147.74 93.82 147.94 93.64C148.14 93.44 148.47 93.34 148.93 93.34C149.39 93.34 149.72 93.44 149.92 93.64C150.12 93.82 150.22 94.07 150.22 94.39V94.69C150.22 95.01 150.12 95.27 149.92 95.47C149.72 95.65 149.39 95.74 148.93 95.74ZM70.6166 147.07H76.4666V126.73H70.6166V125.8H77.5166V147.07H83.3366V148H70.6166V147.07ZM94.9648 148.36C92.9248 148.36 91.3348 147.67 90.1948 146.29C89.0548 144.91 88.4848 142.9 88.4848 140.26C88.4848 137.62 89.0548 135.61 90.1948 134.23C91.3348 132.85 92.9248 132.16 94.9648 132.16C97.0048 132.16 98.5948 132.85 99.7348 134.23C100.875 135.61 101.445 137.62 101.445 140.26C101.445 142.9 100.875 144.91 99.7348 146.29C98.5948 147.67 97.0048 148.36 94.9648 148.36ZM94.9648 147.43C96.6648 147.43 97.9748 146.87 98.8948 145.75C99.8348 144.63 100.305 143.07 100.305 141.07V139.45C100.305 137.45 99.8348 135.89 98.8948 134.77C97.9748 133.65 96.6648 133.09 94.9648 133.09C93.2648 133.09 91.9448 133.65 91.0048 134.77C90.0848 135.89 89.6248 137.45 89.6248 139.45V141.07C89.6248 143.07 90.0848 144.63 91.0048 145.75C91.9448 146.87 93.2648 147.43 94.9648 147.43ZM113.583 148.36C111.523 148.36 109.923 147.67 108.783 146.29C107.643 144.91 107.073 142.9 107.073 140.26C107.073 137.62 107.643 135.61 108.783 134.23C109.923 132.85 111.523 132.16 113.583 132.16C114.963 132.16 116.103 132.48 117.003 133.12C117.903 133.74 118.543 134.56 118.923 135.58L118.023 135.94C117.683 135.02 117.133 134.32 116.373 133.84C115.613 133.34 114.683 133.09 113.583 133.09C111.843 133.09 110.513 133.66 109.593 134.8C108.673 135.92 108.213 137.45 108.213 139.39V141.13C108.213 143.07 108.673 144.61 109.593 145.75C110.513 146.87 111.843 147.43 113.583 147.43C114.763 147.43 115.743 147.16 116.523 146.62C117.303 146.08 117.903 145.35 118.323 144.43L119.133 144.91C118.933 145.39 118.663 145.84 118.323 146.26C117.983 146.66 117.583 147.02 117.123 147.34C116.663 147.66 116.133 147.91 115.533 148.09C114.953 148.27 114.303 148.36 113.583 148.36ZM135.861 148C135.401 148 135.071 147.89 134.871 147.67C134.671 147.45 134.561 147.14 134.541 146.74V145.63H134.421C134.061 146.39 133.481 147.04 132.681 147.58C131.881 148.1 130.781 148.36 129.381 148.36C127.721 148.36 126.441 147.98 125.541 147.22C124.641 146.46 124.191 145.38 124.191 143.98C124.191 143.34 124.291 142.75 124.491 142.21C124.691 141.67 125.031 141.21 125.511 140.83C125.991 140.43 126.621 140.13 127.401 139.93C128.181 139.71 129.141 139.6 130.281 139.6H134.511V137.38C134.511 135.92 134.121 134.84 133.341 134.14C132.581 133.44 131.531 133.09 130.191 133.09C129.111 133.09 128.161 133.32 127.341 133.78C126.521 134.22 125.901 134.92 125.481 135.88L124.701 135.37C125.121 134.41 125.781 133.64 126.681 133.06C127.601 132.46 128.781 132.16 130.221 132.16C131.901 132.16 133.211 132.61 134.151 133.51C135.091 134.39 135.561 135.64 135.561 137.26V147.07H138.021V148H135.861ZM129.471 147.46C130.151 147.46 130.791 147.38 131.391 147.22C132.011 147.04 132.551 146.79 133.011 146.47C133.471 146.13 133.831 145.72 134.091 145.24C134.371 144.76 134.511 144.2 134.511 143.56V140.44H130.311C128.531 140.44 127.251 140.73 126.471 141.31C125.711 141.87 125.331 142.61 125.331 143.53V144.43C125.331 145.41 125.711 146.16 126.471 146.68C127.231 147.2 128.231 147.46 129.471 147.46ZM148.33 148C147.35 148 146.86 147.5 146.86 146.5V133.45H141.04V132.52H145.87C146.55 132.52 146.89 132.19 146.89 131.53V127.06H147.91V132.52H155.62V133.45H147.91V147.07H155.62V148H148.33ZM167.878 127.69C167.478 127.69 167.188 127.61 167.008 127.45C166.848 127.27 166.768 127.05 166.768 126.79V126.52C166.768 126.26 166.848 126.05 167.008 125.89C167.188 125.71 167.478 125.62 167.878 125.62C168.278 125.62 168.558 125.71 168.718 125.89C168.898 126.05 168.988 126.26 168.988 126.52V126.79C168.988 127.05 168.898 127.27 168.718 127.45C168.558 127.61 168.278 127.69 167.878 127.69ZM161.338 147.07H167.368V133.45H161.338V132.52H168.418V147.07H174.058V148H161.338V147.07ZM184.906 148.36C182.866 148.36 181.276 147.67 180.136 146.29C178.996 144.91 178.426 142.9 178.426 140.26C178.426 137.62 178.996 135.61 180.136 134.23C181.276 132.85 182.866 132.16 184.906 132.16C186.946 132.16 188.536 132.85 189.676 134.23C190.816 135.61 191.386 137.62 191.386 140.26C191.386 142.9 190.816 144.91 189.676 146.29C188.536 147.67 186.946 148.36 184.906 148.36ZM184.906 147.43C186.606 147.43 187.916 146.87 188.836 145.75C189.776 144.63 190.246 143.07 190.246 141.07V139.45C190.246 137.45 189.776 135.89 188.836 134.77C187.916 133.65 186.606 133.09 184.906 133.09C183.206 133.09 181.886 133.65 180.946 134.77C180.026 135.89 179.566 137.45 179.566 139.45V141.07C179.566 143.07 180.026 144.63 180.946 145.75C181.886 146.87 183.206 147.43 184.906 147.43ZM197.495 148V132.52H198.545V134.8H198.635C198.775 134.46 198.965 134.13 199.205 133.81C199.465 133.49 199.785 133.21 200.165 132.97C200.545 132.73 200.995 132.54 201.515 132.4C202.035 132.24 202.635 132.16 203.315 132.16C205.015 132.16 206.315 132.66 207.215 133.66C208.115 134.64 208.565 136.07 208.565 137.95V148H207.515V138.13C207.515 136.37 207.135 135.09 206.375 134.29C205.615 133.49 204.515 133.09 203.075 133.09C202.495 133.09 201.925 133.17 201.365 133.33C200.825 133.49 200.345 133.73 199.925 134.05C199.505 134.37 199.165 134.77 198.905 135.25C198.665 135.73 198.545 136.29 198.545 136.93V148H197.495ZM220.883 148.18C220.423 148.18 220.093 148.09 219.893 147.91C219.693 147.71 219.593 147.45 219.593 147.13V146.83C219.593 146.51 219.693 146.26 219.893 146.08C220.093 145.88 220.423 145.78 220.883 145.78C221.343 145.78 221.673 145.88 221.873 146.08C222.073 146.26 222.173 146.51 222.173 146.83V147.13C222.173 147.45 222.073 147.71 221.873 147.91C221.673 148.09 221.343 148.18 220.883 148.18ZM220.883 134.74C220.423 134.74 220.093 134.65 219.893 134.47C219.693 134.27 219.593 134.01 219.593 133.69V133.39C219.593 133.07 219.693 132.82 219.893 132.64C220.093 132.44 220.423 132.34 220.883 132.34C221.343 132.34 221.673 132.44 221.873 132.64C222.073 132.82 222.173 133.07 222.173 133.39V133.69C222.173 134.01 222.073 134.27 221.873 134.47C221.673 134.65 221.343 134.74 220.883 134.74ZM254.729 125.8H255.599L254.009 133.48H252.119L254.729 125.8ZM260.159 125.8H261.029L259.439 133.48H257.549L260.159 125.8ZM270.048 148H268.968V127.06H276.348C278.128 127.06 279.468 127.58 280.368 128.62C281.288 129.64 281.748 131.03 281.748 132.79C281.748 134.51 281.308 135.88 280.428 136.9C279.548 137.92 278.258 138.45 276.558 138.49H275.688L281.688 148H280.428L274.488 138.52H270.048V148ZM276.348 137.56C277.068 137.56 277.688 137.45 278.208 137.23C278.748 137.01 279.188 136.72 279.528 136.36C279.888 135.98 280.148 135.54 280.308 135.04C280.488 134.54 280.578 134.01 280.578 133.45V132.13C280.578 131.59 280.488 131.07 280.308 130.57C280.148 130.07 279.888 129.64 279.528 129.28C279.188 128.9 278.748 128.6 278.208 128.38C277.688 128.16 277.068 128.05 276.348 128.05H270.048V137.56H276.348ZM286.956 148V127.06H299.466V128.05H288.036V136.87H298.596V137.86H288.036V148H286.956ZM313.944 148V143.35H303.144V142.36L313.524 127.06H314.994V142.45H318.414V143.35H314.994V148H313.944ZM304.164 142.45H313.944V128.17H313.854L304.164 142.45ZM326.323 125.8H328.213L325.603 133.48H324.733L326.323 125.8ZM331.753 125.8H333.643L331.033 133.48H330.163L331.753 125.8Z" fill="black"/>
<path d="M34.73 387.07H40.4V373.45H34.43V372.52H40.4V367.3C40.4 366.3 40.89 365.8 41.87 365.8H48.08V366.73H41.42V372.52H48.08V373.45H41.42V387.07H47.39V388H34.73V387.07ZM59.9483 367.69C59.5483 367.69 59.2583 367.61 59.0783 367.45C58.9183 367.27 58.8383 367.05 58.8383 366.79V366.52C58.8383 366.26 58.9183 366.05 59.0783 365.89C59.2583 365.71 59.5483 365.62 59.9483 365.62C60.3483 365.62 60.6283 365.71 60.7883 365.89C60.9683 366.05 61.0583 366.26 61.0583 366.52V366.79C61.0583 367.05 60.9683 367.27 60.7883 367.45C60.6283 367.61 60.3483 367.69 59.9483 367.69ZM53.4083 387.07H59.4383V373.45H53.4083V372.52H60.4883V387.07H66.1283V388H53.4083V387.07ZM70.6166 387.07H76.4666V366.73H70.6166V365.8H77.5166V387.07H83.3366V388H70.6166V387.07ZM94.3648 388C93.3848 388 92.8948 387.5 92.8948 386.5V373.45H87.0748V372.52H91.9048C92.5848 372.52 92.9248 372.19 92.9248 371.53V367.06H93.9448V372.52H101.655V373.45H93.9448V387.07H101.655V388H94.3648ZM113.163 388.36C111.083 388.36 109.453 387.67 108.273 386.29C107.113 384.91 106.533 382.9 106.533 380.26C106.533 377.62 107.113 375.61 108.273 374.23C109.433 372.85 111.013 372.16 113.013 372.16C114.053 372.16 114.973 372.35 115.773 372.73C116.573 373.09 117.243 373.61 117.783 374.29C118.323 374.97 118.733 375.79 119.013 376.75C119.293 377.71 119.433 378.77 119.433 379.93V380.35H107.673V381.13C107.673 383.07 108.143 384.61 109.083 385.75C110.043 386.87 111.403 387.43 113.163 387.43C114.403 387.43 115.453 387.14 116.313 386.56C117.173 385.98 117.833 385.11 118.293 383.95L119.133 384.4C118.673 385.6 117.933 386.56 116.913 387.28C115.913 388 114.663 388.36 113.163 388.36ZM113.013 373.06C111.313 373.06 109.993 373.63 109.053 374.77C108.133 375.91 107.673 377.45 107.673 379.39V379.51H118.323V379.36C118.323 377.42 117.863 375.89 116.943 374.77C116.023 373.63 114.713 373.06 113.013 373.06ZM124.311 387.07H129.471V373.45H124.311V372.52H130.521V375.73H130.611C130.791 375.29 131.001 374.88 131.241 374.5C131.501 374.1 131.821 373.76 132.201 373.48C132.601 373.18 133.071 372.95 133.611 372.79C134.151 372.61 134.781 372.52 135.501 372.52H138.651V373.51H135.231C134.571 373.51 133.951 373.62 133.371 373.84C132.811 374.04 132.321 374.34 131.901 374.74C131.481 375.14 131.141 375.65 130.881 376.27C130.641 376.87 130.521 377.56 130.521 378.34V387.07H137.121V388H124.311V387.07ZM146.83 378.67C146.83 377.15 146.99 375.72 147.31 374.38C147.63 373.04 148.06 371.8 148.6 370.66C149.16 369.52 149.81 368.49 150.55 367.57C151.29 366.65 152.08 365.86 152.92 365.2H154.09C153.21 365.88 152.39 366.68 151.63 367.6C150.87 368.5 150.21 369.5 149.65 370.6C149.09 371.68 148.65 372.85 148.33 374.11C148.01 375.35 147.85 376.64 147.85 377.98V379.36C147.85 380.72 148.01 382.02 148.33 383.26C148.65 384.5 149.09 385.67 149.65 386.77C150.21 387.85 150.87 388.84 151.63 389.74C152.39 390.66 153.21 391.46 154.09 392.14H152.92C152.08 391.48 151.29 390.69 150.55 389.77C149.81 388.85 149.16 387.82 148.6 386.68C148.06 385.54 147.63 384.3 147.31 382.96C146.99 381.62 146.83 380.19 146.83 378.67ZM171.328 385.63H171.238C170.878 386.35 170.298 386.99 169.498 387.55C168.698 388.09 167.668 388.36 166.408 388.36C164.448 388.36 162.918 387.68 161.818 386.32C160.718 384.96 160.168 382.94 160.168 380.26C160.168 377.58 160.718 375.56 161.818 374.2C162.918 372.84 164.448 372.16 166.408 372.16C167.668 372.16 168.698 372.44 169.498 373C170.298 373.54 170.878 374.17 171.238 374.89H171.328V365.8H172.378V388H171.328V385.63ZM166.648 387.43C167.268 387.43 167.858 387.34 168.418 387.16C168.978 386.98 169.468 386.72 169.888 386.38C170.328 386.04 170.678 385.63 170.938 385.15C171.198 384.67 171.328 384.14 171.328 383.56V376.96C171.328 376.38 171.198 375.85 170.938 375.37C170.678 374.89 170.328 374.48 169.888 374.14C169.468 373.8 168.978 373.54 168.418 373.36C167.858 373.18 167.268 373.09 166.648 373.09C164.928 373.09 163.608 373.66 162.688 374.8C161.768 375.92 161.308 377.45 161.308 379.39V381.13C161.308 383.07 161.768 384.61 162.688 385.75C163.608 386.87 164.928 387.43 166.648 387.43ZM189.826 388C189.366 388 189.036 387.89 188.836 387.67C188.636 387.45 188.526 387.14 188.506 386.74V385.63H188.386C188.026 386.39 187.446 387.04 186.646 387.58C185.846 388.1 184.746 388.36 183.346 388.36C181.686 388.36 180.406 387.98 179.506 387.22C178.606 386.46 178.156 385.38 178.156 383.98C178.156 383.34 178.256 382.75 178.456 382.21C178.656 381.67 178.996 381.21 179.476 380.83C179.956 380.43 180.586 380.13 181.366 379.93C182.146 379.71 183.106 379.6 184.246 379.6H188.476V377.38C188.476 375.92 188.086 374.84 187.306 374.14C186.546 373.44 185.496 373.09 184.156 373.09C183.076 373.09 182.126 373.32 181.306 373.78C180.486 374.22 179.866 374.92 179.446 375.88L178.666 375.37C179.086 374.41 179.746 373.64 180.646 373.06C181.566 372.46 182.746 372.16 184.186 372.16C185.866 372.16 187.176 372.61 188.116 373.51C189.056 374.39 189.526 375.64 189.526 377.26V387.07H191.986V388H189.826ZM183.436 387.46C184.116 387.46 184.756 387.38 185.356 387.22C185.976 387.04 186.516 386.79 186.976 386.47C187.436 386.13 187.796 385.72 188.056 385.24C188.336 384.76 188.476 384.2 188.476 383.56V380.44H184.276C182.496 380.44 181.216 380.73 180.436 381.31C179.676 381.87 179.296 382.61 179.296 383.53V384.43C179.296 385.41 179.676 386.16 180.436 386.68C181.196 387.2 182.196 387.46 183.436 387.46ZM202.295 388C201.315 388 200.825 387.5 200.825 386.5V373.45H195.005V372.52H199.835C200.515 372.52 200.855 372.19 200.855 371.53V367.06H201.875V372.52H209.585V373.45H201.875V387.07H209.585V388H202.295ZM225.803 388C225.343 388 225.013 387.89 224.813 387.67C224.613 387.45 224.503 387.14 224.483 386.74V385.63H224.363C224.003 386.39 223.423 387.04 222.623 387.58C221.823 388.1 220.723 388.36 219.323 388.36C217.663 388.36 216.383 387.98 215.483 387.22C214.583 386.46 214.133 385.38 214.133 383.98C214.133 383.34 214.233 382.75 214.433 382.21C214.633 381.67 214.973 381.21 215.453 380.83C215.933 380.43 216.563 380.13 217.343 379.93C218.123 379.71 219.083 379.6 220.223 379.6H224.453V377.38C224.453 375.92 224.063 374.84 223.283 374.14C222.523 373.44 221.473 373.09 220.133 373.09C219.053 373.09 218.103 373.32 217.283 373.78C216.463 374.22 215.843 374.92 215.423 375.88L214.643 375.37C215.063 374.41 215.723 373.64 216.623 373.06C217.543 372.46 218.723 372.16 220.163 372.16C221.843 372.16 223.153 372.61 224.093 373.51C225.033 374.39 225.503 375.64 225.503 377.26V387.07H227.963V388H225.803ZM219.413 387.46C220.093 387.46 220.733 387.38 221.333 387.22C221.953 387.04 222.493 386.79 222.953 386.47C223.413 386.13 223.773 385.72 224.033 385.24C224.313 384.76 224.453 384.2 224.453 383.56V380.44H220.253C218.473 380.44 217.193 380.73 216.413 381.31C215.653 381.87 215.273 382.61 215.273 383.53V384.43C215.273 385.41 215.653 386.16 216.413 386.68C217.173 387.2 218.173 387.46 219.413 387.46ZM249.719 376.54V375.61H263.999V376.54H249.719ZM249.719 382.03V381.1H263.999V382.03H249.719ZM267.708 376.54V375.61H281.988V376.54H267.708ZM267.708 382.03V381.1H281.988V382.03H267.708ZM305.364 372.52H306.414V374.89H306.504C306.864 374.17 307.444 373.54 308.244 373C309.044 372.44 310.074 372.16 311.334 372.16C313.294 372.16 314.824 372.84 315.924 374.2C317.024 375.56 317.574 377.58 317.574 380.26C317.574 382.94 317.024 384.96 315.924 386.32C314.824 387.68 313.294 388.36 311.334 388.36C310.074 388.36 309.044 388.09 308.244 387.55C307.444 386.99 306.864 386.35 306.504 385.63H306.414V394H305.364V372.52ZM311.094 387.43C312.814 387.43 314.134 386.87 315.054 385.75C315.974 384.61 316.434 383.07 316.434 381.13V379.39C316.434 377.45 315.974 375.92 315.054 374.8C314.134 373.66 312.814 373.09 311.094 373.09C310.474 373.09 309.884 373.18 309.324 373.36C308.764 373.54 308.264 373.8 307.824 374.14C307.404 374.48 307.064 374.89 306.804 375.37C306.544 375.85 306.414 376.38 306.414 376.96V383.56C306.414 384.14 306.544 384.67 306.804 385.15C307.064 385.63 307.404 386.04 307.824 386.38C308.264 386.72 308.764 386.98 309.324 387.16C309.884 387.34 310.474 387.43 311.094 387.43ZM333.733 388C333.273 388 332.943 387.89 332.743 387.67C332.543 387.45 332.433 387.14 332.413 386.74V385.63H332.293C331.933 386.39 331.353 387.04 330.553 387.58C329.753 388.1 328.653 388.36 327.253 388.36C325.593 388.36 324.313 387.98 323.413 387.22C322.513 386.46 322.063 385.38 322.063 383.98C322.063 383.34 322.163 382.75 322.363 382.21C322.563 381.67 322.903 381.21 323.383 380.83C323.863 380.43 324.493 380.13 325.273 379.93C326.053 379.71 327.013 379.6 328.153 379.6H332.383V377.38C332.383 375.92 331.993 374.84 331.213 374.14C330.453 373.44 329.403 373.09 328.063 373.09C326.983 373.09 326.033 373.32 325.213 373.78C324.393 374.22 323.773 374.92 323.353 375.88L322.573 375.37C322.993 374.41 323.653 373.64 324.553 373.06C325.473 372.46 326.653 372.16 328.093 372.16C329.773 372.16 331.083 372.61 332.023 373.51C332.963 374.39 333.433 375.64 333.433 377.26V387.07H335.893V388H333.733ZM327.343 387.46C328.023 387.46 328.663 387.38 329.263 387.22C329.883 387.04 330.423 386.79 330.883 386.47C331.343 386.13 331.703 385.72 331.963 385.24C332.243 384.76 332.383 384.2 332.383 383.56V380.44H328.183C326.403 380.44 325.123 380.73 324.343 381.31C323.583 381.87 323.203 382.61 323.203 383.53V384.43C323.203 385.41 323.583 386.16 324.343 386.68C325.103 387.2 326.103 387.46 327.343 387.46ZM340.171 387.07H345.331V373.45H340.171V372.52H346.381V375.73H346.471C346.651 375.29 346.861 374.88 347.101 374.5C347.361 374.1 347.681 373.76 348.061 373.48C348.461 373.18 348.931 372.95 349.471 372.79C350.011 372.61 350.641 372.52 351.361 372.52H354.511V373.51H351.091C350.431 373.51 349.811 373.62 349.231 373.84C348.671 374.04 348.181 374.34 347.761 374.74C347.341 375.14 347.001 375.65 346.741 376.27C346.501 376.87 346.381 377.56 346.381 378.34V387.07H352.981V388H340.171V387.07ZM369.709 388C369.249 388 368.919 387.89 368.719 387.67C368.519 387.45 368.409 387.14 368.389 386.74V385.63H368.269C367.909 386.39 367.329 387.04 366.529 387.58C365.729 388.1 364.629 388.36 363.229 388.36C361.569 388.36 360.289 387.98 359.389 387.22C358.489 386.46 358.039 385.38 358.039 383.98C358.039 383.34 358.139 382.75 358.339 382.21C358.539 381.67 358.879 381.21 359.359 380.83C359.839 380.43 360.469 380.13 361.249 379.93C362.029 379.71 362.989 379.6 364.129 379.6H368.359V377.38C368.359 375.92 367.969 374.84 367.189 374.14C366.429 373.44 365.379 373.09 364.039 373.09C362.959 373.09 362.009 373.32 361.189 373.78C360.369 374.22 359.749 374.92 359.329 375.88L358.549 375.37C358.969 374.41 359.629 373.64 360.529 373.06C361.449 372.46 362.629 372.16 364.069 372.16C365.749 372.16 367.059 372.61 367.999 373.51C368.939 374.39 369.409 375.64 369.409 377.26V387.07H371.869V388H369.709ZM363.319 387.46C363.999 387.46 364.639 387.38 365.239 387.22C365.859 387.04 366.399 386.79 366.859 386.47C367.319 386.13 367.679 385.72 367.939 385.24C368.219 384.76 368.359 384.2 368.359 383.56V380.44H364.159C362.379 380.44 361.099 380.73 360.319 381.31C359.559 381.87 359.179 382.61 359.179 383.53V384.43C359.179 385.41 359.559 386.16 360.319 386.68C361.079 387.2 362.079 387.46 363.319 387.46ZM375.847 388V372.52H376.837V374.35H376.927C377.167 373.71 377.527 373.19 378.007 372.79C378.507 372.37 379.197 372.16 380.077 372.16C380.937 372.16 381.617 372.38 382.117 372.82C382.617 373.24 382.947 373.84 383.107 374.62H383.167C383.407 373.92 383.787 373.34 384.307 372.88C384.847 372.4 385.587 372.16 386.527 372.16C387.647 372.16 388.457 372.52 388.957 373.24C389.477 373.94 389.737 374.96 389.737 376.3V388H388.747V376.45C388.747 375.25 388.537 374.39 388.117 373.87C387.717 373.33 387.097 373.06 386.257 373.06C385.437 373.06 384.737 373.35 384.157 373.93C383.577 374.49 383.287 375.35 383.287 376.51V388H382.297V376.45C382.297 375.25 382.087 374.39 381.667 373.87C381.267 373.33 380.647 373.06 379.807 373.06C379.007 373.06 378.307 373.35 377.707 373.93C377.127 374.49 376.837 375.35 376.837 376.51V388H375.847ZM401.216 388.36C399.716 388.36 398.396 388.11 397.256 387.61C396.136 387.09 395.156 386.32 394.316 385.3L395.066 384.67C395.846 385.63 396.726 386.34 397.706 386.8C398.706 387.24 399.876 387.46 401.216 387.46C402.736 387.46 403.956 387.17 404.876 386.59C405.816 385.99 406.286 385.07 406.286 383.83C406.286 383.29 406.196 382.84 406.016 382.48C405.836 382.12 405.576 381.83 405.236 381.61C404.896 381.37 404.486 381.19 404.006 381.07C403.526 380.93 402.996 380.82 402.416 380.74L400.016 380.41C399.356 380.31 398.726 380.19 398.126 380.05C397.526 379.89 396.996 379.66 396.536 379.36C396.096 379.06 395.736 378.68 395.456 378.22C395.196 377.74 395.066 377.14 395.066 376.42C395.066 375.66 395.216 375.01 395.516 374.47C395.816 373.93 396.216 373.49 396.716 373.15C397.236 372.81 397.836 372.56 398.516 372.4C399.216 372.24 399.956 372.16 400.736 372.16C401.476 372.16 402.146 372.23 402.746 372.37C403.366 372.49 403.916 372.67 404.396 372.91C404.896 373.13 405.336 373.39 405.716 373.69C406.116 373.97 406.466 374.27 406.766 374.59L406.046 375.31C405.806 375.03 405.526 374.76 405.206 374.5C404.886 374.22 404.506 373.98 404.066 373.78C403.646 373.56 403.156 373.39 402.596 373.27C402.056 373.13 401.426 373.06 400.706 373.06C399.306 373.06 398.186 373.33 397.346 373.87C396.526 374.39 396.116 375.22 396.116 376.36C396.116 376.9 396.206 377.35 396.386 377.71C396.566 378.05 396.826 378.34 397.166 378.58C397.506 378.8 397.916 378.98 398.396 379.12C398.876 379.24 399.406 379.34 399.986 379.42L402.416 379.78C403.076 379.88 403.696 380.01 404.276 380.17C404.876 380.31 405.396 380.53 405.836 380.83C406.296 381.11 406.656 381.49 406.916 381.97C407.196 382.45 407.336 383.05 407.336 383.77C407.336 384.55 407.176 385.23 406.856 385.81C406.556 386.39 406.136 386.87 405.596 387.25C405.056 387.61 404.406 387.88 403.646 388.06C402.906 388.26 402.096 388.36 401.216 388.36ZM418.514 388.36C417.634 388.34 416.854 388.24 416.174 388.06C415.494 387.88 414.874 387.64 414.314 387.34C413.754 387.02 413.254 386.65 412.814 386.23C412.374 385.81 411.974 385.36 411.614 384.88L412.454 384.22C412.814 384.68 413.184 385.1 413.564 385.48C413.964 385.86 414.404 386.19 414.884 386.47C415.364 386.73 415.894 386.94 416.474 387.1C417.074 387.26 417.754 387.35 418.514 387.37V377.74L417.524 377.59C416.464 377.41 415.584 377.14 414.884 376.78C414.204 376.42 413.664 376 413.264 375.52C412.864 375.02 412.574 374.48 412.394 373.9C412.234 373.32 412.154 372.71 412.154 372.07C412.154 370.33 412.724 369.01 413.864 368.11C415.024 367.21 416.574 366.74 418.514 366.7V363.67H419.414V366.7C420.914 366.78 422.144 367.09 423.104 367.63C424.084 368.17 424.874 368.87 425.474 369.73L424.634 370.36C424.054 369.54 423.354 368.91 422.534 368.47C421.714 368.03 420.674 367.77 419.414 367.69V376.81L420.314 376.96C421.394 377.14 422.284 377.42 422.984 377.8C423.684 378.18 424.234 378.62 424.634 379.12C425.054 379.6 425.344 380.14 425.504 380.74C425.664 381.34 425.744 381.96 425.744 382.6C425.744 384.42 425.174 385.81 424.034 386.77C422.914 387.73 421.374 388.26 419.414 388.36V391.39H418.514V388.36ZM413.234 372.07C413.234 372.81 413.344 373.44 413.564 373.96C413.804 374.48 414.124 374.92 414.524 375.28C414.944 375.62 415.434 375.89 415.994 376.09C416.554 376.29 417.164 376.45 417.824 376.57L418.514 376.69V367.69C416.854 367.73 415.554 368.11 414.614 368.83C413.694 369.55 413.234 370.63 413.234 372.07ZM424.664 382.63C424.664 381.83 424.544 381.16 424.304 380.62C424.064 380.08 423.734 379.63 423.314 379.27C422.894 378.91 422.394 378.63 421.814 378.43C421.254 378.23 420.644 378.08 419.984 377.98L419.414 377.89V387.37C421.074 387.31 422.364 386.88 423.284 386.08C424.204 385.28 424.664 384.13 424.664 382.63ZM430.382 387.07H436.232V366.73H430.382V365.8H437.282V387.07H443.102V388H430.382V387.07ZM454.73 388.36C452.69 388.36 451.1 387.67 449.96 386.29C448.82 384.91 448.25 382.9 448.25 380.26C448.25 377.62 448.82 375.61 449.96 374.23C451.1 372.85 452.69 372.16 454.73 372.16C456.77 372.16 458.36 372.85 459.5 374.23C460.64 375.61 461.21 377.62 461.21 380.26C461.21 382.9 460.64 384.91 459.5 386.29C458.36 387.67 456.77 388.36 454.73 388.36ZM454.73 387.43C456.43 387.43 457.74 386.87 458.66 385.75C459.6 384.63 460.07 383.07 460.07 381.07V379.45C460.07 377.45 459.6 375.89 458.66 374.77C457.74 373.65 456.43 373.09 454.73 373.09C453.03 373.09 451.71 373.65 450.77 374.77C449.85 375.89 449.39 377.45 449.39 379.45V381.07C449.39 383.07 449.85 384.63 450.77 385.75C451.71 386.87 453.03 387.43 454.73 387.43ZM473.349 388.36C471.289 388.36 469.689 387.67 468.549 386.29C467.409 384.91 466.839 382.9 466.839 380.26C466.839 377.62 467.409 375.61 468.549 374.23C469.689 372.85 471.289 372.16 473.349 372.16C474.729 372.16 475.869 372.48 476.769 373.12C477.669 373.74 478.309 374.56 478.689 375.58L477.789 375.94C477.449 375.02 476.899 374.32 476.139 373.84C475.379 373.34 474.449 373.09 473.349 373.09C471.609 373.09 470.279 373.66 469.359 374.8C468.439 375.92 467.979 377.45 467.979 379.39V381.13C467.979 383.07 468.439 384.61 469.359 385.75C470.279 386.87 471.609 387.43 473.349 387.43C474.529 387.43 475.509 387.16 476.289 386.62C477.069 386.08 477.669 385.35 478.089 384.43L478.899 384.91C478.699 385.39 478.429 385.84 478.089 386.26C477.749 386.66 477.349 387.02 476.889 387.34C476.429 387.66 475.899 387.91 475.299 388.09C474.719 388.27 474.069 388.36 473.349 388.36ZM495.627 388C495.167 388 494.837 387.89 494.637 387.67C494.437 387.45 494.327 387.14 494.307 386.74V385.63H494.187C493.827 386.39 493.247 387.04 492.447 387.58C491.647 388.1 490.547 388.36 489.147 388.36C487.487 388.36 486.207 387.98 485.307 387.22C484.407 386.46 483.957 385.38 483.957 383.98C483.957 383.34 484.057 382.75 484.257 382.21C484.457 381.67 484.797 381.21 485.277 380.83C485.757 380.43 486.387 380.13 487.167 379.93C487.947 379.71 488.907 379.6 490.047 379.6H494.277V377.38C494.277 375.92 493.887 374.84 493.107 374.14C492.347 373.44 491.297 373.09 489.957 373.09C488.877 373.09 487.927 373.32 487.107 373.78C486.287 374.22 485.667 374.92 485.247 375.88L484.467 375.37C484.887 374.41 485.547 373.64 486.447 373.06C487.367 372.46 488.547 372.16 489.987 372.16C491.667 372.16 492.977 372.61 493.917 373.51C494.857 374.39 495.327 375.64 495.327 377.26V387.07H497.787V388H495.627ZM489.237 387.46C489.917 387.46 490.557 387.38 491.157 387.22C491.777 387.04 492.317 386.79 492.777 386.47C493.237 386.13 493.597 385.72 493.857 385.24C494.137 384.76 494.277 384.2 494.277 383.56V380.44H490.077C488.297 380.44 487.017 380.73 486.237 381.31C485.477 381.87 485.097 382.61 485.097 383.53V384.43C485.097 385.41 485.477 386.16 486.237 386.68C486.997 387.2 487.997 387.46 489.237 387.46ZM508.095 388C507.115 388 506.625 387.5 506.625 386.5V373.45H500.805V372.52H505.635C506.315 372.52 506.655 372.19 506.655 371.53V367.06H507.675V372.52H515.385V373.45H507.675V387.07H515.385V388H508.095ZM527.644 367.69C527.244 367.69 526.954 367.61 526.774 367.45C526.614 367.27 526.534 367.05 526.534 366.79V366.52C526.534 366.26 526.614 366.05 526.774 365.89C526.954 365.71 527.244 365.62 527.644 365.62C528.044 365.62 528.324 365.71 528.484 365.89C528.664 366.05 528.754 366.26 528.754 366.52V366.79C528.754 367.05 528.664 367.27 528.484 367.45C528.324 367.61 528.044 367.69 527.644 367.69ZM521.104 387.07H527.134V373.45H521.104V372.52H528.184V387.07H533.824V388H521.104V387.07ZM544.672 388.36C542.632 388.36 541.042 387.67 539.902 386.29C538.762 384.91 538.192 382.9 538.192 380.26C538.192 377.62 538.762 375.61 539.902 374.23C541.042 372.85 542.632 372.16 544.672 372.16C546.712 372.16 548.302 372.85 549.442 374.23C550.582 375.61 551.152 377.62 551.152 380.26C551.152 382.9 550.582 384.91 549.442 386.29C548.302 387.67 546.712 388.36 544.672 388.36ZM544.672 387.43C546.372 387.43 547.682 386.87 548.602 385.75C549.542 384.63 550.012 383.07 550.012 381.07V379.45C550.012 377.45 549.542 375.89 548.602 374.77C547.682 373.65 546.372 373.09 544.672 373.09C542.972 373.09 541.652 373.65 540.712 374.77C539.792 375.89 539.332 377.45 539.332 379.45V381.07C539.332 383.07 539.792 384.63 540.712 385.75C541.652 386.87 542.972 387.43 544.672 387.43ZM557.26 388V372.52H558.31V374.8H558.4C558.54 374.46 558.73 374.13 558.97 373.81C559.23 373.49 559.55 373.21 559.93 372.97C560.31 372.73 560.76 372.54 561.28 372.4C561.8 372.24 562.4 372.16 563.08 372.16C564.78 372.16 566.08 372.66 566.98 373.66C567.88 374.64 568.33 376.07 568.33 377.95V388H567.28V378.13C567.28 376.37 566.9 375.09 566.14 374.29C565.38 373.49 564.28 373.09 562.84 373.09C562.26 373.09 561.69 373.17 561.13 373.33C560.59 373.49 560.11 373.73 559.69 374.05C559.27 374.37 558.93 374.77 558.67 375.25C558.43 375.73 558.31 376.29 558.31 376.93V388H557.26ZM582.748 378.67C582.748 380.19 582.588 381.62 582.268 382.96C581.948 384.3 581.508 385.54 580.948 386.68C580.408 387.82 579.768 388.85 579.028 389.77C578.288 390.69 577.498 391.48 576.658 392.14H575.488C576.368 391.46 577.188 390.66 577.948 389.74C578.708 388.84 579.368 387.85 579.928 386.77C580.488 385.67 580.928 384.5 581.248 383.26C581.568 382.02 581.728 380.72 581.728 379.36V377.98C581.728 376.64 581.568 375.35 581.248 374.11C580.928 372.85 580.488 371.68 579.928 370.6C579.368 369.5 578.708 368.5 577.948 367.6C577.188 366.68 576.368 365.88 575.488 365.2H576.658C577.498 365.86 578.288 366.65 579.028 367.57C579.768 368.49 580.408 369.52 580.948 370.66C581.508 371.8 581.948 373.04 582.268 374.38C582.588 375.72 582.748 377.15 582.748 378.67Z" fill="black"/>
<rect x="634" width="600" height="776.471" fill="#D9D9D9"/>
<path d="M968.492 751V723.727H970.605V727.989H970.8C971.392 726.592 972.393 725.473 973.801 724.633C975.21 723.781 976.814 723.354 978.613 723.354C978.802 723.354 978.992 723.354 979.181 723.354C979.371 723.354 979.548 723.36 979.714 723.372V725.556C979.572 725.544 979.4 725.527 979.199 725.503C979.009 725.467 978.773 725.45 978.489 725.45C976.973 725.45 975.624 725.775 974.44 726.426C973.268 727.077 972.345 727.977 971.67 729.125C970.996 730.261 970.658 731.563 970.658 733.031V751H968.492ZM995.339 751.568C992.877 751.568 990.734 750.959 988.911 749.739C987.088 748.52 985.68 746.851 984.685 744.732C983.691 742.613 983.194 740.199 983.194 737.488C983.194 734.765 983.691 732.339 984.685 730.208C985.692 728.077 987.071 726.397 988.822 725.165C990.574 723.934 992.575 723.319 994.824 723.319C996.351 723.319 997.795 723.627 999.156 724.242C1000.53 724.846 1001.74 725.722 1002.78 726.87C1003.83 728.018 1004.65 729.403 1005.25 731.025C1005.85 732.647 1006.15 734.469 1006.15 736.494V737.843H984.561V735.872H1003.99C1003.99 733.895 1003.58 732.114 1002.78 730.528C1001.97 728.942 1000.88 727.681 999.494 726.746C998.109 725.811 996.552 725.343 994.824 725.343C993.013 725.343 991.397 725.852 989.977 726.87C988.568 727.876 987.449 729.237 986.621 730.954C985.804 732.67 985.378 734.588 985.342 736.707V737.594C985.342 739.867 985.739 741.909 986.532 743.72C987.337 745.519 988.485 746.946 989.977 747.999C991.468 749.041 993.255 749.562 995.339 749.562C996.83 749.562 998.103 749.313 999.156 748.816C1000.22 748.307 1001.09 747.692 1001.77 746.969C1002.44 746.247 1002.95 745.549 1003.29 744.874L1005.26 745.673C1004.85 746.585 1004.2 747.496 1003.33 748.408C1002.46 749.307 1001.36 750.059 1000.03 750.663C998.701 751.266 997.138 751.568 995.339 751.568ZM1013.61 761.227V723.727H1015.72V729.817H1015.99C1016.41 728.646 1017.01 727.568 1017.78 726.586C1018.56 725.603 1019.53 724.816 1020.68 724.224C1021.84 723.621 1023.2 723.319 1024.76 723.319C1026.96 723.319 1028.88 723.923 1030.51 725.13C1032.15 726.337 1033.41 728.006 1034.31 730.137C1035.21 732.256 1035.66 734.688 1035.66 737.435C1035.66 740.181 1035.21 742.619 1034.29 744.75C1033.4 746.869 1032.13 748.538 1030.5 749.757C1028.87 750.964 1026.97 751.568 1024.8 751.568C1023.24 751.568 1021.88 751.272 1020.71 750.68C1019.55 750.089 1018.58 749.301 1017.78 748.319C1017 747.325 1016.4 746.236 1015.99 745.052H1015.78V761.227H1013.61ZM1015.74 737.417C1015.74 739.737 1016.1 741.814 1016.81 743.649C1017.52 745.472 1018.53 746.916 1019.86 747.982C1021.19 749.035 1022.77 749.562 1024.6 749.562C1026.46 749.562 1028.05 749.029 1029.38 747.964C1030.71 746.887 1031.73 745.431 1032.43 743.596C1033.14 741.761 1033.5 739.701 1033.5 737.417C1033.5 735.132 1033.15 733.079 1032.45 731.256C1031.75 729.433 1030.74 727.995 1029.41 726.941C1028.09 725.876 1026.48 725.343 1024.6 725.343C1022.74 725.343 1021.15 725.87 1019.82 726.923C1018.51 727.965 1017.5 729.397 1016.79 731.22C1016.09 733.031 1015.74 735.097 1015.74 737.417ZM1053.29 751.568C1051.04 751.568 1049.04 750.964 1047.29 749.757C1045.54 748.538 1044.16 746.863 1043.15 744.732C1042.14 742.602 1041.64 740.175 1041.64 737.452C1041.64 734.718 1042.14 732.291 1043.15 730.173C1044.16 728.042 1045.54 726.367 1047.29 725.148C1049.04 723.929 1051.04 723.319 1053.29 723.319C1055.54 723.319 1057.54 723.929 1059.29 725.148C1061.04 726.367 1062.42 728.042 1063.43 730.173C1064.43 732.303 1064.94 734.73 1064.94 737.452C1064.94 740.175 1064.43 742.602 1063.43 744.732C1062.42 746.863 1061.04 748.538 1059.29 749.757C1057.54 750.964 1055.54 751.568 1053.29 751.568ZM1053.29 749.562C1055.19 749.562 1056.86 749.023 1058.28 747.946C1059.71 746.869 1060.82 745.413 1061.6 743.578C1062.39 741.743 1062.79 739.701 1062.79 737.452C1062.79 735.203 1062.39 733.167 1061.6 731.344C1060.81 729.51 1059.7 728.054 1058.28 726.977C1056.86 725.888 1055.19 725.343 1053.29 725.343C1051.38 725.343 1049.72 725.888 1048.3 726.977C1046.88 728.054 1045.77 729.51 1044.98 731.344C1044.19 733.167 1043.79 735.203 1043.79 737.452C1043.79 739.701 1044.18 741.743 1044.96 743.578C1045.75 745.413 1046.86 746.869 1048.28 747.946C1049.71 749.023 1051.38 749.562 1053.29 749.562ZM1072.4 751V723.727H1074.51V727.989H1074.71C1075.3 726.592 1076.3 725.473 1077.71 724.633C1079.12 723.781 1080.72 723.354 1082.52 723.354C1082.71 723.354 1082.9 723.354 1083.09 723.354C1083.28 723.354 1083.45 723.36 1083.62 723.372V725.556C1083.48 725.544 1083.31 725.527 1083.11 725.503C1082.92 725.467 1082.68 725.45 1082.39 725.45C1080.88 725.45 1079.53 725.775 1078.35 726.426C1077.17 727.077 1076.25 727.977 1075.58 729.125C1074.9 730.261 1074.56 731.563 1074.56 733.031V751H1072.4ZM1100.79 723.727V725.663H1088.88V723.727H1100.79ZM1092.91 717.193H1095.05V744.555C1095.05 745.667 1095.27 746.579 1095.69 747.289C1096.13 747.987 1096.7 748.508 1097.4 748.852C1098.11 749.183 1098.87 749.349 1099.67 749.349C1100.06 749.349 1100.4 749.319 1100.68 749.26C1100.98 749.201 1101.26 749.124 1101.52 749.029L1102.05 751C1101.72 751.118 1101.35 751.219 1100.95 751.302C1100.55 751.397 1100.07 751.444 1099.53 751.444C1098.39 751.444 1097.32 751.189 1096.3 750.68C1095.29 750.171 1094.47 749.432 1093.85 748.461C1093.22 747.49 1092.91 746.318 1092.91 744.945V717.193ZM1110.85 751.231C1110.32 751.231 1109.86 751.047 1109.48 750.68C1109.11 750.302 1108.93 749.846 1108.93 749.313C1108.93 748.792 1109.11 748.343 1109.48 747.964C1109.86 747.585 1110.32 747.396 1110.85 747.396C1111.37 747.396 1111.82 747.585 1112.2 747.964C1112.58 748.343 1112.77 748.792 1112.77 749.313C1112.77 749.668 1112.68 749.994 1112.5 750.29C1112.33 750.574 1112.1 750.805 1111.81 750.982C1111.52 751.148 1111.2 751.231 1110.85 751.231ZM1140.24 761.227V745.052H1140.03C1139.61 746.236 1139.01 747.325 1138.21 748.319C1137.42 749.301 1136.44 750.089 1135.28 750.68C1134.12 751.272 1132.77 751.568 1131.22 751.568C1129.04 751.568 1127.13 750.964 1125.5 749.757C1123.88 748.538 1122.61 746.869 1121.7 744.75C1120.8 742.619 1120.35 740.181 1120.35 737.435C1120.35 734.688 1120.8 732.256 1121.7 730.137C1122.6 728.006 1123.87 726.337 1125.5 725.13C1127.13 723.923 1129.05 723.319 1131.24 723.319C1132.81 723.319 1134.17 723.621 1135.32 724.224C1136.47 724.816 1137.43 725.603 1138.21 726.586C1139 727.568 1139.6 728.646 1140.03 729.817H1140.29V723.727H1142.39V761.227H1140.24ZM1131.41 749.562C1133.25 749.562 1134.82 749.035 1136.14 747.982C1137.46 746.916 1138.48 745.472 1139.19 743.649C1139.9 741.814 1140.26 739.737 1140.26 737.417C1140.26 735.097 1139.91 733.031 1139.21 731.22C1138.51 729.397 1137.5 727.965 1136.17 726.923C1134.85 725.87 1133.26 725.343 1131.41 725.343C1129.53 725.343 1127.93 725.876 1126.6 726.941C1125.28 727.995 1124.26 729.433 1123.55 731.256C1122.85 733.079 1122.5 735.132 1122.5 737.417C1122.5 739.701 1122.86 741.761 1123.57 743.596C1124.28 745.431 1125.29 746.887 1126.62 747.964C1127.95 749.029 1129.54 749.562 1131.41 749.562ZM1151.4 751V723.727H1153.52V727.847H1153.73C1154.25 726.473 1155.15 725.384 1156.43 724.58C1157.71 723.775 1159.24 723.372 1161.04 723.372C1163.02 723.372 1164.61 723.846 1165.82 724.793C1167.04 725.74 1167.92 727.024 1168.45 728.646H1168.64C1169.18 727.048 1170.13 725.769 1171.5 724.81C1172.89 723.852 1174.59 723.372 1176.62 723.372C1179.26 723.372 1181.27 724.207 1182.65 725.876C1184.05 727.533 1184.75 729.806 1184.75 732.694V751H1182.58V732.694C1182.58 730.421 1182.04 728.634 1180.95 727.332C1179.86 726.03 1178.26 725.379 1176.15 725.379C1173.9 725.379 1172.18 726.083 1170.97 727.491C1169.76 728.9 1169.16 730.693 1169.16 732.871V751H1166.99V732.552C1166.99 730.433 1166.46 728.711 1165.39 727.385C1164.33 726.047 1162.73 725.379 1160.6 725.379C1159.16 725.379 1157.91 725.71 1156.85 726.373C1155.81 727.036 1155 727.947 1154.42 729.107C1153.85 730.267 1153.57 731.599 1153.57 733.102V751H1151.4ZM1203.09 751.568C1200.9 751.568 1198.99 750.964 1197.36 749.757C1195.72 748.55 1194.46 746.887 1193.56 744.768C1192.67 742.637 1192.23 740.193 1192.23 737.435C1192.23 734.7 1192.68 732.274 1193.58 730.155C1194.49 728.024 1195.76 726.355 1197.39 725.148C1199.03 723.929 1200.93 723.319 1203.11 723.319C1204.67 723.319 1206.03 723.621 1207.18 724.224C1208.34 724.816 1209.31 725.603 1210.09 726.586C1210.88 727.568 1211.49 728.646 1211.9 729.817H1212.11V714.636H1214.26V751H1212.17V745.052H1211.9C1211.46 746.224 1210.85 747.307 1210.07 748.301C1209.29 749.284 1208.32 750.077 1207.16 750.68C1206 751.272 1204.64 751.568 1203.09 751.568ZM1203.29 749.562C1205.14 749.562 1206.72 749.035 1208.03 747.982C1209.36 746.916 1210.37 745.472 1211.07 743.649C1211.78 741.814 1212.13 739.737 1212.13 737.417C1212.13 735.097 1211.78 733.031 1211.07 731.22C1210.37 729.397 1209.36 727.965 1208.03 726.923C1206.72 725.87 1205.14 725.343 1203.29 725.343C1201.42 725.343 1199.81 725.876 1198.48 726.941C1197.15 727.995 1196.13 729.433 1195.42 731.256C1194.72 733.079 1194.38 735.132 1194.38 737.417C1194.38 739.701 1194.72 741.761 1195.42 743.596C1196.13 745.431 1197.15 746.887 1198.48 747.964C1199.81 749.029 1201.42 749.562 1203.29 749.562Z" fill="#404E6B"/>
<path d="M670.6 61.52V60.12H681.4V61.52H670.6ZM694.584 61.52V60.12H705.384V61.52H694.584ZM718.569 61.52V60.12H729.369V61.52H718.569Z" fill="black"/>
<path d="M670.6 174.52V173.12H681.4V174.52H670.6ZM694.584 174.52V173.12H705.384V174.52H694.584ZM718.569 174.52V173.12H729.369V174.52H718.569Z" fill="black"/>
<path d="M671.92 314.08L673.2 313.4L677.4 319.72L676.44 320.24L671.92 314.08ZM695.904 314.08L697.184 313.4L701.384 319.72L700.424 320.24L695.904 314.08ZM719.889 314.08L721.169 313.4L725.369 319.72L724.409 320.24L719.889 314.08ZM747.953 349.52C746.833 349.52 746.273 348.96 746.273 347.84V344C746.273 343.227 746.34 342.56 746.473 342C746.633 341.44 746.806 340.96 746.993 340.56C747.206 340.133 747.42 339.773 747.633 339.48C747.873 339.187 748.073 338.933 748.233 338.72C748.846 337.973 749.246 337.387 749.433 336.96C749.62 336.533 749.713 336.093 749.713 335.64C749.713 334.44 749.166 333.56 748.073 333C746.98 332.413 745.393 332.12 743.313 332.12H740.473V331H743.313C745.393 331 746.98 330.72 748.073 330.16C749.166 329.573 749.713 328.68 749.713 327.48C749.713 327.027 749.62 326.587 749.433 326.16C749.246 325.733 748.846 325.147 748.233 324.4C748.073 324.187 747.873 323.933 747.633 323.64C747.42 323.347 747.206 323 746.993 322.6C746.806 322.173 746.633 321.68 746.473 321.12C746.34 320.56 746.273 319.893 746.273 319.12V315.28C746.273 314.16 746.833 313.6 747.953 313.6H755.433V314.72H747.553V319.08C747.553 319.8 747.606 320.413 747.713 320.92C747.846 321.427 747.993 321.867 748.153 322.24C748.313 322.587 748.486 322.893 748.673 323.16C748.886 323.4 749.073 323.613 749.233 323.8C749.846 324.573 750.286 325.24 750.553 325.8C750.846 326.333 750.993 326.907 750.993 327.52C750.993 328.72 750.553 329.653 749.673 330.32C748.793 330.987 747.673 331.387 746.313 331.52V331.6C747.673 331.733 748.793 332.133 749.673 332.8C750.553 333.467 750.993 334.4 750.993 335.6C750.993 336.213 750.846 336.8 750.553 337.36C750.286 337.893 749.846 338.547 749.233 339.32C749.073 339.533 748.886 339.76 748.673 340C748.486 340.24 748.313 340.547 748.153 340.92C747.993 341.267 747.846 341.693 747.713 342.2C747.606 342.707 747.553 343.32 747.553 344.04V348.4H755.433V349.52H747.953ZM763.098 342.76H769.978V324.6H763.098V323.36H771.378V327.64H771.498C771.738 327.053 772.018 326.507 772.338 326C772.684 325.467 773.111 325.013 773.618 324.64C774.151 324.24 774.778 323.933 775.498 323.72C776.218 323.48 777.058 323.36 778.018 323.36H782.218V324.68H777.658C776.778 324.68 775.951 324.827 775.178 325.12C774.431 325.387 773.778 325.787 773.218 326.32C772.658 326.853 772.204 327.533 771.858 328.36C771.538 329.16 771.378 330.08 771.378 331.12V342.76H780.178V344H763.098V342.76ZM795.922 313.6C797.042 313.6 797.602 314.16 797.602 315.28V319.12C797.602 319.893 797.522 320.56 797.362 321.12C797.229 321.68 797.055 322.173 796.842 322.6C796.655 323 796.442 323.347 796.202 323.64C795.989 323.933 795.802 324.187 795.642 324.4C795.029 325.147 794.629 325.733 794.442 326.16C794.255 326.587 794.162 327.027 794.162 327.48C794.162 328.68 794.709 329.573 795.802 330.16C796.895 330.72 798.482 331 800.562 331H803.402V332.12H800.562C798.482 332.12 796.895 332.413 795.802 333C794.709 333.56 794.162 334.44 794.162 335.64C794.162 336.093 794.255 336.533 794.442 336.96C794.629 337.387 795.029 337.973 795.642 338.72C795.802 338.933 795.989 339.187 796.202 339.48C796.442 339.773 796.655 340.133 796.842 340.56C797.055 340.96 797.229 341.44 797.362 342C797.522 342.56 797.602 343.227 797.602 344V347.84C797.602 348.96 797.042 349.52 795.922 349.52H788.442V348.4H796.322V344.04C796.322 343.32 796.255 342.707 796.122 342.2C796.015 341.693 795.882 341.267 795.722 340.92C795.562 340.547 795.375 340.24 795.162 340C794.975 339.76 794.802 339.533 794.642 339.32C794.029 338.547 793.575 337.893 793.282 337.36C793.015 336.8 792.882 336.213 792.882 335.6C792.882 334.4 793.322 333.467 794.202 332.8C795.082 332.133 796.202 331.733 797.562 331.6V331.52C796.202 331.387 795.082 330.987 794.202 330.32C793.322 329.653 792.882 328.72 792.882 327.52C792.882 326.907 793.015 326.333 793.282 325.8C793.575 325.24 794.029 324.573 794.642 323.8C794.802 323.613 794.975 323.4 795.162 323.16C795.375 322.893 795.562 322.587 795.722 322.24C795.882 321.867 796.015 321.427 796.122 320.92C796.255 320.413 796.322 319.8 796.322 319.08V314.72H788.442V313.6H795.922ZM671.92 418.08L673.2 417.4L677.4 423.72L676.44 424.24L671.92 418.08ZM695.904 418.08L697.184 417.4L701.384 423.72L700.424 424.24L695.904 418.08ZM719.889 418.08L721.169 417.4L725.369 423.72L724.409 424.24L719.889 418.08Z" fill="black"/>
<rect x="876" y="117" width="104" height="39" fill="#FF7400"/>
<path d="M669.54 93.52H670.59V95.89H670.68C671.04 95.17 671.62 94.54 672.42 94C673.22 93.44 674.25 93.16 675.51 93.16C677.47 93.16 679 93.84 680.1 95.2C681.2 96.56 681.75 98.58 681.75 101.26C681.75 103.94 681.2 105.96 680.1 107.32C679 108.68 677.47 109.36 675.51 109.36C674.25 109.36 673.22 109.09 672.42 108.55C671.62 107.99 671.04 107.35 670.68 106.63H670.59V115H669.54V93.52ZM675.27 108.43C676.99 108.43 678.31 107.87 679.23 106.75C680.15 105.61 680.61 104.07 680.61 102.13V100.39C680.61 98.45 680.15 96.92 679.23 95.8C678.31 94.66 676.99 94.09 675.27 94.09C674.65 94.09 674.06 94.18 673.5 94.36C672.94 94.54 672.44 94.8 672 95.14C671.58 95.48 671.24 95.89 670.98 96.37C670.72 96.85 670.59 97.38 670.59 97.96V104.56C670.59 105.14 670.72 105.67 670.98 106.15C671.24 106.63 671.58 107.04 672 107.38C672.44 107.72 672.94 107.98 673.5 108.16C674.06 108.34 674.65 108.43 675.27 108.43ZM697.908 109C697.448 109 697.118 108.89 696.918 108.67C696.718 108.45 696.608 108.14 696.588 107.74V106.63H696.468C696.108 107.39 695.528 108.04 694.728 108.58C693.928 109.1 692.828 109.36 691.428 109.36C689.768 109.36 688.488 108.98 687.588 108.22C686.688 107.46 686.238 106.38 686.238 104.98C686.238 104.34 686.338 103.75 686.538 103.21C686.738 102.67 687.078 102.21 687.558 101.83C688.038 101.43 688.668 101.13 689.448 100.93C690.228 100.71 691.188 100.6 692.328 100.6H696.558V98.38C696.558 96.92 696.168 95.84 695.388 95.14C694.628 94.44 693.578 94.09 692.238 94.09C691.158 94.09 690.208 94.32 689.388 94.78C688.568 95.22 687.948 95.92 687.528 96.88L686.748 96.37C687.168 95.41 687.828 94.64 688.728 94.06C689.648 93.46 690.828 93.16 692.268 93.16C693.948 93.16 695.258 93.61 696.198 94.51C697.138 95.39 697.608 96.64 697.608 98.26V108.07H700.068V109H697.908ZM691.518 108.46C692.198 108.46 692.838 108.38 693.438 108.22C694.058 108.04 694.598 107.79 695.058 107.47C695.518 107.13 695.878 106.72 696.138 106.24C696.418 105.76 696.558 105.2 696.558 104.56V101.44H692.358C690.578 101.44 689.298 101.73 688.518 102.31C687.758 102.87 687.378 103.61 687.378 104.53V105.43C687.378 106.41 687.758 107.16 688.518 107.68C689.278 108.2 690.278 108.46 691.518 108.46ZM704.347 108.07H709.507V94.45H704.347V93.52H710.557V96.73H710.647C710.827 96.29 711.037 95.88 711.277 95.5C711.537 95.1 711.857 94.76 712.237 94.48C712.637 94.18 713.107 93.95 713.647 93.79C714.187 93.61 714.817 93.52 715.537 93.52H718.687V94.51H715.267C714.607 94.51 713.987 94.62 713.407 94.84C712.847 95.04 712.357 95.34 711.937 95.74C711.517 96.14 711.177 96.65 710.917 97.27C710.677 97.87 710.557 98.56 710.557 99.34V108.07H717.157V109H704.347V108.07ZM733.885 109C733.425 109 733.095 108.89 732.895 108.67C732.695 108.45 732.585 108.14 732.565 107.74V106.63H732.445C732.085 107.39 731.505 108.04 730.705 108.58C729.905 109.1 728.805 109.36 727.405 109.36C725.745 109.36 724.465 108.98 723.565 108.22C722.665 107.46 722.215 106.38 722.215 104.98C722.215 104.34 722.315 103.75 722.515 103.21C722.715 102.67 723.055 102.21 723.535 101.83C724.015 101.43 724.645 101.13 725.425 100.93C726.205 100.71 727.165 100.6 728.305 100.6H732.535V98.38C732.535 96.92 732.145 95.84 731.365 95.14C730.605 94.44 729.555 94.09 728.215 94.09C727.135 94.09 726.185 94.32 725.365 94.78C724.545 95.22 723.925 95.92 723.505 96.88L722.725 96.37C723.145 95.41 723.805 94.64 724.705 94.06C725.625 93.46 726.805 93.16 728.245 93.16C729.925 93.16 731.235 93.61 732.175 94.51C733.115 95.39 733.585 96.64 733.585 98.26V108.07H736.045V109H733.885ZM727.495 108.46C728.175 108.46 728.815 108.38 729.415 108.22C730.035 108.04 730.575 107.79 731.035 107.47C731.495 107.13 731.855 106.72 732.115 106.24C732.395 105.76 732.535 105.2 732.535 104.56V101.44H728.335C726.555 101.44 725.275 101.73 724.495 102.31C723.735 102.87 723.355 103.61 723.355 104.53V105.43C723.355 106.41 723.735 107.16 724.495 107.68C725.255 108.2 726.255 108.46 727.495 108.46ZM740.023 109V93.52H741.013V95.35H741.103C741.343 94.71 741.703 94.19 742.183 93.79C742.683 93.37 743.373 93.16 744.253 93.16C745.113 93.16 745.793 93.38 746.293 93.82C746.793 94.24 747.123 94.84 747.283 95.62H747.343C747.583 94.92 747.963 94.34 748.483 93.88C749.023 93.4 749.763 93.16 750.703 93.16C751.823 93.16 752.633 93.52 753.133 94.24C753.653 94.94 753.913 95.96 753.913 97.3V109H752.923V97.45C752.923 96.25 752.713 95.39 752.293 94.87C751.893 94.33 751.273 94.06 750.433 94.06C749.613 94.06 748.913 94.35 748.333 94.93C747.753 95.49 747.463 96.35 747.463 97.51V109H746.473V97.45C746.473 96.25 746.263 95.39 745.843 94.87C745.443 94.33 744.823 94.06 743.983 94.06C743.183 94.06 742.483 94.35 741.883 94.93C741.303 95.49 741.013 96.35 741.013 97.51V109H740.023ZM765.391 109.36C763.891 109.36 762.571 109.11 761.431 108.61C760.311 108.09 759.331 107.32 758.491 106.3L759.241 105.67C760.021 106.63 760.901 107.34 761.881 107.8C762.881 108.24 764.051 108.46 765.391 108.46C766.911 108.46 768.131 108.17 769.051 107.59C769.991 106.99 770.461 106.07 770.461 104.83C770.461 104.29 770.371 103.84 770.191 103.48C770.011 103.12 769.751 102.83 769.411 102.61C769.071 102.37 768.661 102.19 768.181 102.07C767.701 101.93 767.171 101.82 766.591 101.74L764.191 101.41C763.531 101.31 762.901 101.19 762.301 101.05C761.701 100.89 761.171 100.66 760.711 100.36C760.271 100.06 759.911 99.68 759.631 99.22C759.371 98.74 759.241 98.14 759.241 97.42C759.241 96.66 759.391 96.01 759.691 95.47C759.991 94.93 760.391 94.49 760.891 94.15C761.411 93.81 762.011 93.56 762.691 93.4C763.391 93.24 764.131 93.16 764.911 93.16C765.651 93.16 766.321 93.23 766.921 93.37C767.541 93.49 768.091 93.67 768.571 93.91C769.071 94.13 769.511 94.39 769.891 94.69C770.291 94.97 770.641 95.27 770.941 95.59L770.221 96.31C769.981 96.03 769.701 95.76 769.381 95.5C769.061 95.22 768.681 94.98 768.241 94.78C767.821 94.56 767.331 94.39 766.771 94.27C766.231 94.13 765.601 94.06 764.881 94.06C763.481 94.06 762.361 94.33 761.521 94.87C760.701 95.39 760.291 96.22 760.291 97.36C760.291 97.9 760.381 98.35 760.561 98.71C760.741 99.05 761.001 99.34 761.341 99.58C761.681 99.8 762.091 99.98 762.571 100.12C763.051 100.24 763.581 100.34 764.161 100.42L766.591 100.78C767.251 100.88 767.871 101.01 768.451 101.17C769.051 101.31 769.571 101.53 770.011 101.83C770.471 102.11 770.831 102.49 771.091 102.97C771.371 103.45 771.511 104.05 771.511 104.77C771.511 105.55 771.351 106.23 771.031 106.81C770.731 107.39 770.311 107.87 769.771 108.25C769.231 108.61 768.581 108.88 767.821 109.06C767.081 109.26 766.271 109.36 765.391 109.36ZM782.93 109.18C782.47 109.18 782.14 109.09 781.94 108.91C781.74 108.71 781.64 108.45 781.64 108.13V107.83C781.64 107.51 781.74 107.26 781.94 107.08C782.14 106.88 782.47 106.78 782.93 106.78C783.39 106.78 783.72 106.88 783.92 107.08C784.12 107.26 784.22 107.51 784.22 107.83V108.13C784.22 108.45 784.12 108.71 783.92 108.91C783.72 109.09 783.39 109.18 782.93 109.18ZM782.93 95.74C782.47 95.74 782.14 95.65 781.94 95.47C781.74 95.27 781.64 95.01 781.64 94.69V94.39C781.64 94.07 781.74 93.82 781.94 93.64C782.14 93.44 782.47 93.34 782.93 93.34C783.39 93.34 783.72 93.44 783.92 93.64C784.12 93.82 784.22 94.07 784.22 94.39V94.69C784.22 95.01 784.12 95.27 783.92 95.47C783.72 95.65 783.39 95.74 782.93 95.74ZM704.617 147.07H710.467V126.73H704.617V125.8H711.517V147.07H717.337V148H704.617V147.07ZM728.965 148.36C726.925 148.36 725.335 147.67 724.195 146.29C723.055 144.91 722.485 142.9 722.485 140.26C722.485 137.62 723.055 135.61 724.195 134.23C725.335 132.85 726.925 132.16 728.965 132.16C731.005 132.16 732.595 132.85 733.735 134.23C734.875 135.61 735.445 137.62 735.445 140.26C735.445 142.9 734.875 144.91 733.735 146.29C732.595 147.67 731.005 148.36 728.965 148.36ZM728.965 147.43C730.665 147.43 731.975 146.87 732.895 145.75C733.835 144.63 734.305 143.07 734.305 141.07V139.45C734.305 137.45 733.835 135.89 732.895 134.77C731.975 133.65 730.665 133.09 728.965 133.09C727.265 133.09 725.945 133.65 725.005 134.77C724.085 135.89 723.625 137.45 723.625 139.45V141.07C723.625 143.07 724.085 144.63 725.005 145.75C725.945 146.87 727.265 147.43 728.965 147.43ZM747.583 148.36C745.523 148.36 743.923 147.67 742.783 146.29C741.643 144.91 741.073 142.9 741.073 140.26C741.073 137.62 741.643 135.61 742.783 134.23C743.923 132.85 745.523 132.16 747.583 132.16C748.963 132.16 750.103 132.48 751.003 133.12C751.903 133.74 752.543 134.56 752.923 135.58L752.023 135.94C751.683 135.02 751.133 134.32 750.373 133.84C749.613 133.34 748.683 133.09 747.583 133.09C745.843 133.09 744.513 133.66 743.593 134.8C742.673 135.92 742.213 137.45 742.213 139.39V141.13C742.213 143.07 742.673 144.61 743.593 145.75C744.513 146.87 745.843 147.43 747.583 147.43C748.763 147.43 749.743 147.16 750.523 146.62C751.303 146.08 751.903 145.35 752.323 144.43L753.133 144.91C752.933 145.39 752.663 145.84 752.323 146.26C751.983 146.66 751.583 147.02 751.123 147.34C750.663 147.66 750.133 147.91 749.533 148.09C748.953 148.27 748.303 148.36 747.583 148.36ZM769.861 148C769.401 148 769.071 147.89 768.871 147.67C768.671 147.45 768.561 147.14 768.541 146.74V145.63H768.421C768.061 146.39 767.481 147.04 766.681 147.58C765.881 148.1 764.781 148.36 763.381 148.36C761.721 148.36 760.441 147.98 759.541 147.22C758.641 146.46 758.191 145.38 758.191 143.98C758.191 143.34 758.291 142.75 758.491 142.21C758.691 141.67 759.031 141.21 759.511 140.83C759.991 140.43 760.621 140.13 761.401 139.93C762.181 139.71 763.141 139.6 764.281 139.6H768.511V137.38C768.511 135.92 768.121 134.84 767.341 134.14C766.581 133.44 765.531 133.09 764.191 133.09C763.111 133.09 762.161 133.32 761.341 133.78C760.521 134.22 759.901 134.92 759.481 135.88L758.701 135.37C759.121 134.41 759.781 133.64 760.681 133.06C761.601 132.46 762.781 132.16 764.221 132.16C765.901 132.16 767.211 132.61 768.151 133.51C769.091 134.39 769.561 135.64 769.561 137.26V147.07H772.021V148H769.861ZM763.471 147.46C764.151 147.46 764.791 147.38 765.391 147.22C766.011 147.04 766.551 146.79 767.011 146.47C767.471 146.13 767.831 145.72 768.091 145.24C768.371 144.76 768.511 144.2 768.511 143.56V140.44H764.311C762.531 140.44 761.251 140.73 760.471 141.31C759.711 141.87 759.331 142.61 759.331 143.53V144.43C759.331 145.41 759.711 146.16 760.471 146.68C761.231 147.2 762.231 147.46 763.471 147.46ZM782.33 148C781.35 148 780.86 147.5 780.86 146.5V133.45H775.04V132.52H779.87C780.55 132.52 780.89 132.19 780.89 131.53V127.06H781.91V132.52H789.62V133.45H781.91V147.07H789.62V148H782.33ZM801.878 127.69C801.478 127.69 801.188 127.61 801.008 127.45C800.848 127.27 800.768 127.05 800.768 126.79V126.52C800.768 126.26 800.848 126.05 801.008 125.89C801.188 125.71 801.478 125.62 801.878 125.62C802.278 125.62 802.558 125.71 802.718 125.89C802.898 126.05 802.988 126.26 802.988 126.52V126.79C802.988 127.05 802.898 127.27 802.718 127.45C802.558 127.61 802.278 127.69 801.878 127.69ZM795.338 147.07H801.368V133.45H795.338V132.52H802.418V147.07H808.058V148H795.338V147.07ZM818.906 148.36C816.866 148.36 815.276 147.67 814.136 146.29C812.996 144.91 812.426 142.9 812.426 140.26C812.426 137.62 812.996 135.61 814.136 134.23C815.276 132.85 816.866 132.16 818.906 132.16C820.946 132.16 822.536 132.85 823.676 134.23C824.816 135.61 825.386 137.62 825.386 140.26C825.386 142.9 824.816 144.91 823.676 146.29C822.536 147.67 820.946 148.36 818.906 148.36ZM818.906 147.43C820.606 147.43 821.916 146.87 822.836 145.75C823.776 144.63 824.246 143.07 824.246 141.07V139.45C824.246 137.45 823.776 135.89 822.836 134.77C821.916 133.65 820.606 133.09 818.906 133.09C817.206 133.09 815.886 133.65 814.946 134.77C814.026 135.89 813.566 137.45 813.566 139.45V141.07C813.566 143.07 814.026 144.63 814.946 145.75C815.886 146.87 817.206 147.43 818.906 147.43ZM831.495 148V132.52H832.545V134.8H832.635C832.775 134.46 832.965 134.13 833.205 133.81C833.465 133.49 833.785 133.21 834.165 132.97C834.545 132.73 834.995 132.54 835.515 132.4C836.035 132.24 836.635 132.16 837.315 132.16C839.015 132.16 840.315 132.66 841.215 133.66C842.115 134.64 842.565 136.07 842.565 137.95V148H841.515V138.13C841.515 136.37 841.135 135.09 840.375 134.29C839.615 133.49 838.515 133.09 837.075 133.09C836.495 133.09 835.925 133.17 835.365 133.33C834.825 133.49 834.345 133.73 833.925 134.05C833.505 134.37 833.165 134.77 832.905 135.25C832.665 135.73 832.545 136.29 832.545 136.93V148H831.495ZM854.883 148.18C854.423 148.18 854.093 148.09 853.893 147.91C853.693 147.71 853.593 147.45 853.593 147.13V146.83C853.593 146.51 853.693 146.26 853.893 146.08C854.093 145.88 854.423 145.78 854.883 145.78C855.343 145.78 855.673 145.88 855.873 146.08C856.073 146.26 856.173 146.51 856.173 146.83V147.13C856.173 147.45 856.073 147.71 855.873 147.91C855.673 148.09 855.343 148.18 854.883 148.18ZM854.883 134.74C854.423 134.74 854.093 134.65 853.893 134.47C853.693 134.27 853.593 134.01 853.593 133.69V133.39C853.593 133.07 853.693 132.82 853.893 132.64C854.093 132.44 854.423 132.34 854.883 132.34C855.343 132.34 855.673 132.44 855.873 132.64C856.073 132.82 856.173 133.07 856.173 133.39V133.69C856.173 134.01 856.073 134.27 855.873 134.47C855.673 134.65 855.343 134.74 854.883 134.74ZM888.729 125.8H889.599L888.009 133.48H886.119L888.729 125.8ZM894.159 125.8H895.029L893.439 133.48H891.549L894.159 125.8ZM904.048 148H902.968V127.06H910.348C912.128 127.06 913.468 127.58 914.368 128.62C915.288 129.64 915.748 131.03 915.748 132.79C915.748 134.51 915.308 135.88 914.428 136.9C913.548 137.92 912.258 138.45 910.558 138.49H909.688L915.688 148H914.428L908.488 138.52H904.048V148ZM910.348 137.56C911.068 137.56 911.688 137.45 912.208 137.23C912.748 137.01 913.188 136.72 913.528 136.36C913.888 135.98 914.148 135.54 914.308 135.04C914.488 134.54 914.578 134.01 914.578 133.45V132.13C914.578 131.59 914.488 131.07 914.308 130.57C914.148 130.07 913.888 129.64 913.528 129.28C913.188 128.9 912.748 128.6 912.208 128.38C911.688 128.16 911.068 128.05 910.348 128.05H904.048V137.56H910.348ZM920.686 148V147.01H927.136V127.87H927.016L920.836 133.18L920.176 132.43L926.446 127.06H928.216V147.01H934.366V148H920.686ZM949.924 137.86H939.724V148H938.644V127.06H939.724V136.9H949.924V127.06H951.004V148H949.924V137.86ZM960.323 125.8H962.213L959.603 133.48H958.733L960.323 125.8ZM965.753 125.8H967.643L965.033 133.48H964.163L965.753 125.8Z" fill="black"/>
<path d="M668.73 387.07H674.4V373.45H668.43V372.52H674.4V367.3C674.4 366.3 674.89 365.8 675.87 365.8H682.08V366.73H675.42V372.52H682.08V373.45H675.42V387.07H681.39V388H668.73V387.07ZM693.948 367.69C693.548 367.69 693.258 367.61 693.078 367.45C692.918 367.27 692.838 367.05 692.838 366.79V366.52C692.838 366.26 692.918 366.05 693.078 365.89C693.258 365.71 693.548 365.62 693.948 365.62C694.348 365.62 694.628 365.71 694.788 365.89C694.968 366.05 695.058 366.26 695.058 366.52V366.79C695.058 367.05 694.968 367.27 694.788 367.45C694.628 367.61 694.348 367.69 693.948 367.69ZM687.408 387.07H693.438V373.45H687.408V372.52H694.488V387.07H700.128V388H687.408V387.07ZM704.617 387.07H710.467V366.73H704.617V365.8H711.517V387.07H717.337V388H704.617V387.07ZM728.365 388C727.385 388 726.895 387.5 726.895 386.5V373.45H721.075V372.52H725.905C726.585 372.52 726.925 372.19 726.925 371.53V367.06H727.945V372.52H735.655V373.45H727.945V387.07H735.655V388H728.365ZM747.163 388.36C745.083 388.36 743.453 387.67 742.273 386.29C741.113 384.91 740.533 382.9 740.533 380.26C740.533 377.62 741.113 375.61 742.273 374.23C743.433 372.85 745.013 372.16 747.013 372.16C748.053 372.16 748.973 372.35 749.773 372.73C750.573 373.09 751.243 373.61 751.783 374.29C752.323 374.97 752.733 375.79 753.013 376.75C753.293 377.71 753.433 378.77 753.433 379.93V380.35H741.673V381.13C741.673 383.07 742.143 384.61 743.083 385.75C744.043 386.87 745.403 387.43 747.163 387.43C748.403 387.43 749.453 387.14 750.313 386.56C751.173 385.98 751.833 385.11 752.293 383.95L753.133 384.4C752.673 385.6 751.933 386.56 750.913 387.28C749.913 388 748.663 388.36 747.163 388.36ZM747.013 373.06C745.313 373.06 743.993 373.63 743.053 374.77C742.133 375.91 741.673 377.45 741.673 379.39V379.51H752.323V379.36C752.323 377.42 751.863 375.89 750.943 374.77C750.023 373.63 748.713 373.06 747.013 373.06ZM758.311 387.07H763.471V373.45H758.311V372.52H764.521V375.73H764.611C764.791 375.29 765.001 374.88 765.241 374.5C765.501 374.1 765.821 373.76 766.201 373.48C766.601 373.18 767.071 372.95 767.611 372.79C768.151 372.61 768.781 372.52 769.501 372.52H772.651V373.51H769.231C768.571 373.51 767.951 373.62 767.371 373.84C766.811 374.04 766.321 374.34 765.901 374.74C765.481 375.14 765.141 375.65 764.881 376.27C764.641 376.87 764.521 377.56 764.521 378.34V387.07H771.121V388H758.311V387.07ZM780.83 378.67C780.83 377.15 780.99 375.72 781.31 374.38C781.63 373.04 782.06 371.8 782.6 370.66C783.16 369.52 783.81 368.49 784.55 367.57C785.29 366.65 786.08 365.86 786.92 365.2H788.09C787.21 365.88 786.39 366.68 785.63 367.6C784.87 368.5 784.21 369.5 783.65 370.6C783.09 371.68 782.65 372.85 782.33 374.11C782.01 375.35 781.85 376.64 781.85 377.98V379.36C781.85 380.72 782.01 382.02 782.33 383.26C782.65 384.5 783.09 385.67 783.65 386.77C784.21 387.85 784.87 388.84 785.63 389.74C786.39 390.66 787.21 391.46 788.09 392.14H786.92C786.08 391.48 785.29 390.69 784.55 389.77C783.81 388.85 783.16 387.82 782.6 386.68C782.06 385.54 781.63 384.3 781.31 382.96C780.99 381.62 780.83 380.19 780.83 378.67ZM805.328 385.63H805.238C804.878 386.35 804.298 386.99 803.498 387.55C802.698 388.09 801.668 388.36 800.408 388.36C798.448 388.36 796.918 387.68 795.818 386.32C794.718 384.96 794.168 382.94 794.168 380.26C794.168 377.58 794.718 375.56 795.818 374.2C796.918 372.84 798.448 372.16 800.408 372.16C801.668 372.16 802.698 372.44 803.498 373C804.298 373.54 804.878 374.17 805.238 374.89H805.328V365.8H806.378V388H805.328V385.63ZM800.648 387.43C801.268 387.43 801.858 387.34 802.418 387.16C802.978 386.98 803.468 386.72 803.888 386.38C804.328 386.04 804.678 385.63 804.938 385.15C805.198 384.67 805.328 384.14 805.328 383.56V376.96C805.328 376.38 805.198 375.85 804.938 375.37C804.678 374.89 804.328 374.48 803.888 374.14C803.468 373.8 802.978 373.54 802.418 373.36C801.858 373.18 801.268 373.09 800.648 373.09C798.928 373.09 797.608 373.66 796.688 374.8C795.768 375.92 795.308 377.45 795.308 379.39V381.13C795.308 383.07 795.768 384.61 796.688 385.75C797.608 386.87 798.928 387.43 800.648 387.43ZM823.826 388C823.366 388 823.036 387.89 822.836 387.67C822.636 387.45 822.526 387.14 822.506 386.74V385.63H822.386C822.026 386.39 821.446 387.04 820.646 387.58C819.846 388.1 818.746 388.36 817.346 388.36C815.686 388.36 814.406 387.98 813.506 387.22C812.606 386.46 812.156 385.38 812.156 383.98C812.156 383.34 812.256 382.75 812.456 382.21C812.656 381.67 812.996 381.21 813.476 380.83C813.956 380.43 814.586 380.13 815.366 379.93C816.146 379.71 817.106 379.6 818.246 379.6H822.476V377.38C822.476 375.92 822.086 374.84 821.306 374.14C820.546 373.44 819.496 373.09 818.156 373.09C817.076 373.09 816.126 373.32 815.306 373.78C814.486 374.22 813.866 374.92 813.446 375.88L812.666 375.37C813.086 374.41 813.746 373.64 814.646 373.06C815.566 372.46 816.746 372.16 818.186 372.16C819.866 372.16 821.176 372.61 822.116 373.51C823.056 374.39 823.526 375.64 823.526 377.26V387.07H825.986V388H823.826ZM817.436 387.46C818.116 387.46 818.756 387.38 819.356 387.22C819.976 387.04 820.516 386.79 820.976 386.47C821.436 386.13 821.796 385.72 822.056 385.24C822.336 384.76 822.476 384.2 822.476 383.56V380.44H818.276C816.496 380.44 815.216 380.73 814.436 381.31C813.676 381.87 813.296 382.61 813.296 383.53V384.43C813.296 385.41 813.676 386.16 814.436 386.68C815.196 387.2 816.196 387.46 817.436 387.46ZM836.295 388C835.315 388 834.825 387.5 834.825 386.5V373.45H829.005V372.52H833.835C834.515 372.52 834.855 372.19 834.855 371.53V367.06H835.875V372.52H843.585V373.45H835.875V387.07H843.585V388H836.295ZM859.803 388C859.343 388 859.013 387.89 858.813 387.67C858.613 387.45 858.503 387.14 858.483 386.74V385.63H858.363C858.003 386.39 857.423 387.04 856.623 387.58C855.823 388.1 854.723 388.36 853.323 388.36C851.663 388.36 850.383 387.98 849.483 387.22C848.583 386.46 848.133 385.38 848.133 383.98C848.133 383.34 848.233 382.75 848.433 382.21C848.633 381.67 848.973 381.21 849.453 380.83C849.933 380.43 850.563 380.13 851.343 379.93C852.123 379.71 853.083 379.6 854.223 379.6H858.453V377.38C858.453 375.92 858.063 374.84 857.283 374.14C856.523 373.44 855.473 373.09 854.133 373.09C853.053 373.09 852.103 373.32 851.283 373.78C850.463 374.22 849.843 374.92 849.423 375.88L848.643 375.37C849.063 374.41 849.723 373.64 850.623 373.06C851.543 372.46 852.723 372.16 854.163 372.16C855.843 372.16 857.153 372.61 858.093 373.51C859.033 374.39 859.503 375.64 859.503 377.26V387.07H861.963V388H859.803ZM853.413 387.46C854.093 387.46 854.733 387.38 855.333 387.22C855.953 387.04 856.493 386.79 856.953 386.47C857.413 386.13 857.773 385.72 858.033 385.24C858.313 384.76 858.453 384.2 858.453 383.56V380.44H854.253C852.473 380.44 851.193 380.73 850.413 381.31C849.653 381.87 849.273 382.61 849.273 383.53V384.43C849.273 385.41 849.653 386.16 850.413 386.68C851.173 387.2 852.173 387.46 853.413 387.46ZM883.719 376.54V375.61H897.999V376.54H883.719ZM883.719 382.03V381.1H897.999V382.03H883.719ZM901.708 376.54V375.61H915.988V376.54H901.708ZM901.708 382.03V381.1H915.988V382.03H901.708ZM939.364 372.52H940.414V374.89H940.504C940.864 374.17 941.444 373.54 942.244 373C943.044 372.44 944.074 372.16 945.334 372.16C947.294 372.16 948.824 372.84 949.924 374.2C951.024 375.56 951.574 377.58 951.574 380.26C951.574 382.94 951.024 384.96 949.924 386.32C948.824 387.68 947.294 388.36 945.334 388.36C944.074 388.36 943.044 388.09 942.244 387.55C941.444 386.99 940.864 386.35 940.504 385.63H940.414V394H939.364V372.52ZM945.094 387.43C946.814 387.43 948.134 386.87 949.054 385.75C949.974 384.61 950.434 383.07 950.434 381.13V379.39C950.434 377.45 949.974 375.92 949.054 374.8C948.134 373.66 946.814 373.09 945.094 373.09C944.474 373.09 943.884 373.18 943.324 373.36C942.764 373.54 942.264 373.8 941.824 374.14C941.404 374.48 941.064 374.89 940.804 375.37C940.544 375.85 940.414 376.38 940.414 376.96V383.56C940.414 384.14 940.544 384.67 940.804 385.15C941.064 385.63 941.404 386.04 941.824 386.38C942.264 386.72 942.764 386.98 943.324 387.16C943.884 387.34 944.474 387.43 945.094 387.43ZM967.733 388C967.273 388 966.943 387.89 966.743 387.67C966.543 387.45 966.433 387.14 966.413 386.74V385.63H966.293C965.933 386.39 965.353 387.04 964.553 387.58C963.753 388.1 962.653 388.36 961.253 388.36C959.593 388.36 958.313 387.98 957.413 387.22C956.513 386.46 956.063 385.38 956.063 383.98C956.063 383.34 956.163 382.75 956.363 382.21C956.563 381.67 956.903 381.21 957.383 380.83C957.863 380.43 958.493 380.13 959.273 379.93C960.053 379.71 961.013 379.6 962.153 379.6H966.383V377.38C966.383 375.92 965.993 374.84 965.213 374.14C964.453 373.44 963.403 373.09 962.063 373.09C960.983 373.09 960.033 373.32 959.213 373.78C958.393 374.22 957.773 374.92 957.353 375.88L956.573 375.37C956.993 374.41 957.653 373.64 958.553 373.06C959.473 372.46 960.653 372.16 962.093 372.16C963.773 372.16 965.083 372.61 966.023 373.51C966.963 374.39 967.433 375.64 967.433 377.26V387.07H969.893V388H967.733ZM961.343 387.46C962.023 387.46 962.663 387.38 963.263 387.22C963.883 387.04 964.423 386.79 964.883 386.47C965.343 386.13 965.703 385.72 965.963 385.24C966.243 384.76 966.383 384.2 966.383 383.56V380.44H962.183C960.403 380.44 959.123 380.73 958.343 381.31C957.583 381.87 957.203 382.61 957.203 383.53V384.43C957.203 385.41 957.583 386.16 958.343 386.68C959.103 387.2 960.103 387.46 961.343 387.46ZM974.171 387.07H979.331V373.45H974.171V372.52H980.381V375.73H980.471C980.651 375.29 980.861 374.88 981.101 374.5C981.361 374.1 981.681 373.76 982.061 373.48C982.461 373.18 982.931 372.95 983.471 372.79C984.011 372.61 984.641 372.52 985.361 372.52H988.511V373.51H985.091C984.431 373.51 983.811 373.62 983.231 373.84C982.671 374.04 982.181 374.34 981.761 374.74C981.341 375.14 981.001 375.65 980.741 376.27C980.501 376.87 980.381 377.56 980.381 378.34V387.07H986.981V388H974.171V387.07ZM1003.71 388C1003.25 388 1002.92 387.89 1002.72 387.67C1002.52 387.45 1002.41 387.14 1002.39 386.74V385.63H1002.27C1001.91 386.39 1001.33 387.04 1000.53 387.58C999.729 388.1 998.629 388.36 997.229 388.36C995.569 388.36 994.289 387.98 993.389 387.22C992.489 386.46 992.039 385.38 992.039 383.98C992.039 383.34 992.139 382.75 992.339 382.21C992.539 381.67 992.879 381.21 993.359 380.83C993.839 380.43 994.469 380.13 995.249 379.93C996.029 379.71 996.989 379.6 998.129 379.6H1002.36V377.38C1002.36 375.92 1001.97 374.84 1001.19 374.14C1000.43 373.44 999.379 373.09 998.039 373.09C996.959 373.09 996.009 373.32 995.189 373.78C994.369 374.22 993.749 374.92 993.329 375.88L992.549 375.37C992.969 374.41 993.629 373.64 994.529 373.06C995.449 372.46 996.629 372.16 998.069 372.16C999.749 372.16 1001.06 372.61 1002 373.51C1002.94 374.39 1003.41 375.64 1003.41 377.26V387.07H1005.87V388H1003.71ZM997.319 387.46C997.999 387.46 998.639 387.38 999.239 387.22C999.859 387.04 1000.4 386.79 1000.86 386.47C1001.32 386.13 1001.68 385.72 1001.94 385.24C1002.22 384.76 1002.36 384.2 1002.36 383.56V380.44H998.159C996.379 380.44 995.099 380.73 994.319 381.31C993.559 381.87 993.179 382.61 993.179 383.53V384.43C993.179 385.41 993.559 386.16 994.319 386.68C995.079 387.2 996.079 387.46 997.319 387.46ZM1009.85 388V372.52H1010.84V374.35H1010.93C1011.17 373.71 1011.53 373.19 1012.01 372.79C1012.51 372.37 1013.2 372.16 1014.08 372.16C1014.94 372.16 1015.62 372.38 1016.12 372.82C1016.62 373.24 1016.95 373.84 1017.11 374.62H1017.17C1017.41 373.92 1017.79 373.34 1018.31 372.88C1018.85 372.4 1019.59 372.16 1020.53 372.16C1021.65 372.16 1022.46 372.52 1022.96 373.24C1023.48 373.94 1023.74 374.96 1023.74 376.3V388H1022.75V376.45C1022.75 375.25 1022.54 374.39 1022.12 373.87C1021.72 373.33 1021.1 373.06 1020.26 373.06C1019.44 373.06 1018.74 373.35 1018.16 373.93C1017.58 374.49 1017.29 375.35 1017.29 376.51V388H1016.3V376.45C1016.3 375.25 1016.09 374.39 1015.67 373.87C1015.27 373.33 1014.65 373.06 1013.81 373.06C1013.01 373.06 1012.31 373.35 1011.71 373.93C1011.13 374.49 1010.84 375.35 1010.84 376.51V388H1009.85ZM1035.22 388.36C1033.72 388.36 1032.4 388.11 1031.26 387.61C1030.14 387.09 1029.16 386.32 1028.32 385.3L1029.07 384.67C1029.85 385.63 1030.73 386.34 1031.71 386.8C1032.71 387.24 1033.88 387.46 1035.22 387.46C1036.74 387.46 1037.96 387.17 1038.88 386.59C1039.82 385.99 1040.29 385.07 1040.29 383.83C1040.29 383.29 1040.2 382.84 1040.02 382.48C1039.84 382.12 1039.58 381.83 1039.24 381.61C1038.9 381.37 1038.49 381.19 1038.01 381.07C1037.53 380.93 1037 380.82 1036.42 380.74L1034.02 380.41C1033.36 380.31 1032.73 380.19 1032.13 380.05C1031.53 379.89 1031 379.66 1030.54 379.36C1030.1 379.06 1029.74 378.68 1029.46 378.22C1029.2 377.74 1029.07 377.14 1029.07 376.42C1029.07 375.66 1029.22 375.01 1029.52 374.47C1029.82 373.93 1030.22 373.49 1030.72 373.15C1031.24 372.81 1031.84 372.56 1032.52 372.4C1033.22 372.24 1033.96 372.16 1034.74 372.16C1035.48 372.16 1036.15 372.23 1036.75 372.37C1037.37 372.49 1037.92 372.67 1038.4 372.91C1038.9 373.13 1039.34 373.39 1039.72 373.69C1040.12 373.97 1040.47 374.27 1040.77 374.59L1040.05 375.31C1039.81 375.03 1039.53 374.76 1039.21 374.5C1038.89 374.22 1038.51 373.98 1038.07 373.78C1037.65 373.56 1037.16 373.39 1036.6 373.27C1036.06 373.13 1035.43 373.06 1034.71 373.06C1033.31 373.06 1032.19 373.33 1031.35 373.87C1030.53 374.39 1030.12 375.22 1030.12 376.36C1030.12 376.9 1030.21 377.35 1030.39 377.71C1030.57 378.05 1030.83 378.34 1031.17 378.58C1031.51 378.8 1031.92 378.98 1032.4 379.12C1032.88 379.24 1033.41 379.34 1033.99 379.42L1036.42 379.78C1037.08 379.88 1037.7 380.01 1038.28 380.17C1038.88 380.31 1039.4 380.53 1039.84 380.83C1040.3 381.11 1040.66 381.49 1040.92 381.97C1041.2 382.45 1041.34 383.05 1041.34 383.77C1041.34 384.55 1041.18 385.23 1040.86 385.81C1040.56 386.39 1040.14 386.87 1039.6 387.25C1039.06 387.61 1038.41 387.88 1037.65 388.06C1036.91 388.26 1036.1 388.36 1035.22 388.36ZM1052.51 388.36C1051.63 388.34 1050.85 388.24 1050.17 388.06C1049.49 387.88 1048.87 387.64 1048.31 387.34C1047.75 387.02 1047.25 386.65 1046.81 386.23C1046.37 385.81 1045.97 385.36 1045.61 384.88L1046.45 384.22C1046.81 384.68 1047.18 385.1 1047.56 385.48C1047.96 385.86 1048.4 386.19 1048.88 386.47C1049.36 386.73 1049.89 386.94 1050.47 387.1C1051.07 387.26 1051.75 387.35 1052.51 387.37V377.74L1051.52 377.59C1050.46 377.41 1049.58 377.14 1048.88 376.78C1048.2 376.42 1047.66 376 1047.26 375.52C1046.86 375.02 1046.57 374.48 1046.39 373.9C1046.23 373.32 1046.15 372.71 1046.15 372.07C1046.15 370.33 1046.72 369.01 1047.86 368.11C1049.02 367.21 1050.57 366.74 1052.51 366.7V363.67H1053.41V366.7C1054.91 366.78 1056.14 367.09 1057.1 367.63C1058.08 368.17 1058.87 368.87 1059.47 369.73L1058.63 370.36C1058.05 369.54 1057.35 368.91 1056.53 368.47C1055.71 368.03 1054.67 367.77 1053.41 367.69V376.81L1054.31 376.96C1055.39 377.14 1056.28 377.42 1056.98 377.8C1057.68 378.18 1058.23 378.62 1058.63 379.12C1059.05 379.6 1059.34 380.14 1059.5 380.74C1059.66 381.34 1059.74 381.96 1059.74 382.6C1059.74 384.42 1059.17 385.81 1058.03 386.77C1056.91 387.73 1055.37 388.26 1053.41 388.36V391.39H1052.51V388.36ZM1047.23 372.07C1047.23 372.81 1047.34 373.44 1047.56 373.96C1047.8 374.48 1048.12 374.92 1048.52 375.28C1048.94 375.62 1049.43 375.89 1049.99 376.09C1050.55 376.29 1051.16 376.45 1051.82 376.57L1052.51 376.69V367.69C1050.85 367.73 1049.55 368.11 1048.61 368.83C1047.69 369.55 1047.23 370.63 1047.23 372.07ZM1058.66 382.63C1058.66 381.83 1058.54 381.16 1058.3 380.62C1058.06 380.08 1057.73 379.63 1057.31 379.27C1056.89 378.91 1056.39 378.63 1055.81 378.43C1055.25 378.23 1054.64 378.08 1053.98 377.98L1053.41 377.89V387.37C1055.07 387.31 1056.36 386.88 1057.28 386.08C1058.2 385.28 1058.66 384.13 1058.66 382.63ZM1064.38 387.07H1070.23V366.73H1064.38V365.8H1071.28V387.07H1077.1V388H1064.38V387.07ZM1088.73 388.36C1086.69 388.36 1085.1 387.67 1083.96 386.29C1082.82 384.91 1082.25 382.9 1082.25 380.26C1082.25 377.62 1082.82 375.61 1083.96 374.23C1085.1 372.85 1086.69 372.16 1088.73 372.16C1090.77 372.16 1092.36 372.85 1093.5 374.23C1094.64 375.61 1095.21 377.62 1095.21 380.26C1095.21 382.9 1094.64 384.91 1093.5 386.29C1092.36 387.67 1090.77 388.36 1088.73 388.36ZM1088.73 387.43C1090.43 387.43 1091.74 386.87 1092.66 385.75C1093.6 384.63 1094.07 383.07 1094.07 381.07V379.45C1094.07 377.45 1093.6 375.89 1092.66 374.77C1091.74 373.65 1090.43 373.09 1088.73 373.09C1087.03 373.09 1085.71 373.65 1084.77 374.77C1083.85 375.89 1083.39 377.45 1083.39 379.45V381.07C1083.39 383.07 1083.85 384.63 1084.77 385.75C1085.71 386.87 1087.03 387.43 1088.73 387.43ZM1107.35 388.36C1105.29 388.36 1103.69 387.67 1102.55 386.29C1101.41 384.91 1100.84 382.9 1100.84 380.26C1100.84 377.62 1101.41 375.61 1102.55 374.23C1103.69 372.85 1105.29 372.16 1107.35 372.16C1108.73 372.16 1109.87 372.48 1110.77 373.12C1111.67 373.74 1112.31 374.56 1112.69 375.58L1111.79 375.94C1111.45 375.02 1110.9 374.32 1110.14 373.84C1109.38 373.34 1108.45 373.09 1107.35 373.09C1105.61 373.09 1104.28 373.66 1103.36 374.8C1102.44 375.92 1101.98 377.45 1101.98 379.39V381.13C1101.98 383.07 1102.44 384.61 1103.36 385.75C1104.28 386.87 1105.61 387.43 1107.35 387.43C1108.53 387.43 1109.51 387.16 1110.29 386.62C1111.07 386.08 1111.67 385.35 1112.09 384.43L1112.9 384.91C1112.7 385.39 1112.43 385.84 1112.09 386.26C1111.75 386.66 1111.35 387.02 1110.89 387.34C1110.43 387.66 1109.9 387.91 1109.3 388.09C1108.72 388.27 1108.07 388.36 1107.35 388.36ZM1129.63 388C1129.17 388 1128.84 387.89 1128.64 387.67C1128.44 387.45 1128.33 387.14 1128.31 386.74V385.63H1128.19C1127.83 386.39 1127.25 387.04 1126.45 387.58C1125.65 388.1 1124.55 388.36 1123.15 388.36C1121.49 388.36 1120.21 387.98 1119.31 387.22C1118.41 386.46 1117.96 385.38 1117.96 383.98C1117.96 383.34 1118.06 382.75 1118.26 382.21C1118.46 381.67 1118.8 381.21 1119.28 380.83C1119.76 380.43 1120.39 380.13 1121.17 379.93C1121.95 379.71 1122.91 379.6 1124.05 379.6H1128.28V377.38C1128.28 375.92 1127.89 374.84 1127.11 374.14C1126.35 373.44 1125.3 373.09 1123.96 373.09C1122.88 373.09 1121.93 373.32 1121.11 373.78C1120.29 374.22 1119.67 374.92 1119.25 375.88L1118.47 375.37C1118.89 374.41 1119.55 373.64 1120.45 373.06C1121.37 372.46 1122.55 372.16 1123.99 372.16C1125.67 372.16 1126.98 372.61 1127.92 373.51C1128.86 374.39 1129.33 375.64 1129.33 377.26V387.07H1131.79V388H1129.63ZM1123.24 387.46C1123.92 387.46 1124.56 387.38 1125.16 387.22C1125.78 387.04 1126.32 386.79 1126.78 386.47C1127.24 386.13 1127.6 385.72 1127.86 385.24C1128.14 384.76 1128.28 384.2 1128.28 383.56V380.44H1124.08C1122.3 380.44 1121.02 380.73 1120.24 381.31C1119.48 381.87 1119.1 382.61 1119.1 383.53V384.43C1119.1 385.41 1119.48 386.16 1120.24 386.68C1121 387.2 1122 387.46 1123.24 387.46ZM1142.1 388C1141.12 388 1140.63 387.5 1140.63 386.5V373.45H1134.81V372.52H1139.64C1140.32 372.52 1140.66 372.19 1140.66 371.53V367.06H1141.68V372.52H1149.39V373.45H1141.68V387.07H1149.39V388H1142.1ZM1161.64 367.69C1161.24 367.69 1160.95 367.61 1160.77 367.45C1160.61 367.27 1160.53 367.05 1160.53 366.79V366.52C1160.53 366.26 1160.61 366.05 1160.77 365.89C1160.95 365.71 1161.24 365.62 1161.64 365.62C1162.04 365.62 1162.32 365.71 1162.48 365.89C1162.66 366.05 1162.75 366.26 1162.75 366.52V366.79C1162.75 367.05 1162.66 367.27 1162.48 367.45C1162.32 367.61 1162.04 367.69 1161.64 367.69ZM1155.1 387.07H1161.13V373.45H1155.1V372.52H1162.18V387.07H1167.82V388H1155.1V387.07ZM1178.67 388.36C1176.63 388.36 1175.04 387.67 1173.9 386.29C1172.76 384.91 1172.19 382.9 1172.19 380.26C1172.19 377.62 1172.76 375.61 1173.9 374.23C1175.04 372.85 1176.63 372.16 1178.67 372.16C1180.71 372.16 1182.3 372.85 1183.44 374.23C1184.58 375.61 1185.15 377.62 1185.15 380.26C1185.15 382.9 1184.58 384.91 1183.44 386.29C1182.3 387.67 1180.71 388.36 1178.67 388.36ZM1178.67 387.43C1180.37 387.43 1181.68 386.87 1182.6 385.75C1183.54 384.63 1184.01 383.07 1184.01 381.07V379.45C1184.01 377.45 1183.54 375.89 1182.6 374.77C1181.68 373.65 1180.37 373.09 1178.67 373.09C1176.97 373.09 1175.65 373.65 1174.71 374.77C1173.79 375.89 1173.33 377.45 1173.33 379.45V381.07C1173.33 383.07 1173.79 384.63 1174.71 385.75C1175.65 386.87 1176.97 387.43 1178.67 387.43ZM1191.26 388V372.52H1192.31V374.8H1192.4C1192.54 374.46 1192.73 374.13 1192.97 373.81C1193.23 373.49 1193.55 373.21 1193.93 372.97C1194.31 372.73 1194.76 372.54 1195.28 372.4C1195.8 372.24 1196.4 372.16 1197.08 372.16C1198.78 372.16 1200.08 372.66 1200.98 373.66C1201.88 374.64 1202.33 376.07 1202.33 377.95V388H1201.28V378.13C1201.28 376.37 1200.9 375.09 1200.14 374.29C1199.38 373.49 1198.28 373.09 1196.84 373.09C1196.26 373.09 1195.69 373.17 1195.13 373.33C1194.59 373.49 1194.11 373.73 1193.69 374.05C1193.27 374.37 1192.93 374.77 1192.67 375.25C1192.43 375.73 1192.31 376.29 1192.31 376.93V388H1191.26ZM1216.75 378.67C1216.75 380.19 1216.59 381.62 1216.27 382.96C1215.95 384.3 1215.51 385.54 1214.95 386.68C1214.41 387.82 1213.77 388.85 1213.03 389.77C1212.29 390.69 1211.5 391.48 1210.66 392.14H1209.49C1210.37 391.46 1211.19 390.66 1211.95 389.74C1212.71 388.84 1213.37 387.85 1213.93 386.77C1214.49 385.67 1214.93 384.5 1215.25 383.26C1215.57 382.02 1215.73 380.72 1215.73 379.36V377.98C1215.73 376.64 1215.57 375.35 1215.25 374.11C1214.93 372.85 1214.49 371.68 1213.93 370.6C1213.37 369.5 1212.71 368.5 1211.95 367.6C1211.19 366.68 1210.37 365.88 1209.49 365.2H1210.66C1211.5 365.86 1212.29 366.65 1213.03 367.57C1213.77 368.49 1214.41 369.52 1214.95 370.66C1215.51 371.8 1215.95 373.04 1216.27 374.38C1216.59 375.72 1216.75 377.15 1216.75 378.67Z" fill="black"/>
</svg>
